<svg width="56" height="56" viewBox="0 0 56 56" fill="none" xmlns="http://www.w3.org/2000/svg">
<g filter="url(#filter0_d_1_613)">
<circle cx="27.75" cy="27.75" r="20.25" fill="#32D1E6"/>
<path d="M38.25 18.75H17.25C16.8522 18.75 16.4706 18.908 16.1893 19.1893C15.908 19.4706 15.75 19.8522 15.75 20.25V35.25C15.75 35.6478 15.908 36.0294 16.1893 36.3107C16.4706 36.592 16.8522 36.75 17.25 36.75H38.25C38.6478 36.75 39.0294 36.592 39.3107 36.3107C39.592 36.0294 39.75 35.6478 39.75 35.25V20.25C39.75 19.8522 39.592 19.4706 39.3107 19.1893C39.0294 18.908 38.6478 18.75 38.25 18.75ZM37.095 35.25H18.495L23.745 29.82L22.665 28.7775L17.25 34.38V21.39L26.5725 30.6675C26.8535 30.9469 27.2337 31.1037 27.63 31.1037C28.0263 31.1037 28.4065 30.9469 28.6875 30.6675L38.25 21.1575V34.2825L32.73 28.7625L31.6725 29.82L37.095 35.25ZM18.2325 20.25H37.035L27.63 29.6025L18.2325 20.25Z" fill="white"/>
</g>
<defs>
<filter id="filter0_d_1_613" x="-4.76837e-07" y="-4.76837e-07" width="55.5" height="55.5" filterUnits="userSpaceOnUse" color-interpolation-filters="sRGB">
<feFlood flood-opacity="0" result="BackgroundImageFix"/>
<feColorMatrix in="SourceAlpha" type="matrix" values="0 0 0 0 0 0 0 0 0 0 0 0 0 0 0 0 0 0 127 0" result="hardAlpha"/>
<feOffset/>
<feGaussianBlur stdDeviation="3.75"/>
<feComposite in2="hardAlpha" operator="out"/>
<feColorMatrix type="matrix" values="0 0 0 0 0 0 0 0 0 0 0 0 0 0 0 0 0 0 0.05 0"/>
<feBlend mode="normal" in2="BackgroundImageFix" result="effect1_dropShadow_1_613"/>
<feBlend mode="normal" in="SourceGraphic" in2="effect1_dropShadow_1_613" result="shape"/>
</filter>
</defs>
</svg>
