<svg width="137" height="46" viewBox="0 0 137 46" fill="none" xmlns="http://www.w3.org/2000/svg">
<path d="M129.582 31.129C128.331 31.129 127.247 30.9264 126.331 30.5211C125.415 30.0981 124.648 29.5431 124.031 28.8558C123.432 28.151 122.983 27.3668 122.683 26.5033C122.401 25.6399 122.26 24.75 122.26 23.8337C122.26 22.9526 122.401 22.0803 122.683 21.2169C122.965 20.3534 123.397 19.578 123.978 18.8908C124.56 18.1859 125.3 17.6309 126.199 17.2256C127.115 16.8026 128.199 16.5912 129.45 16.5912C130.789 16.5912 131.961 16.8819 132.965 17.4635C133.987 18.0273 134.78 18.8644 135.344 19.9745C135.926 21.0671 136.217 22.3975 136.217 23.9658C136.217 24.5498 135.743 25.0231 135.159 25.0231H128.893C127.766 25.0231 126.849 26.0627 127.573 26.9263C128.049 27.4549 128.719 27.7192 129.582 27.7192C130.234 27.7192 130.727 27.6047 131.062 27.3756C131.415 27.1289 131.653 26.8822 131.776 26.6355C131.889 26.4087 132.121 26.2654 132.375 26.2654H135.592C135.854 26.2654 136.045 26.5138 135.979 26.7677C135.891 27.0849 135.723 27.4901 135.476 27.9836C135.23 28.4593 134.869 28.9439 134.393 29.4373C133.917 29.9131 133.283 30.3184 132.49 30.6532C131.714 30.9704 130.745 31.129 129.582 31.129ZM127.6 20.5296C126.755 21.28 127.75 22.4063 128.88 22.4063H129.797C130.934 22.4063 131.965 21.2848 131.115 20.5296C130.657 20.1067 130.075 19.8952 129.371 19.8952C128.683 19.8952 128.093 20.1067 127.6 20.5296Z" fill="#111D15"/>
<path d="M114.746 30.8647C113.498 30.8647 112.486 29.8529 112.486 28.6047V19.089C112.486 17.8555 113.486 16.8555 114.719 16.8555H115.896C116.48 16.8555 116.953 17.3289 116.953 17.9128V18.8762C116.953 18.9281 116.995 18.9701 117.047 18.9701C117.086 18.9701 117.121 18.946 117.135 18.9098C117.275 18.5608 117.469 18.2197 117.719 17.8864C118.001 17.5163 118.389 17.2079 118.882 16.9612C119.376 16.7145 120.028 16.5912 120.838 16.5912C121.226 16.5912 121.535 16.6176 121.764 16.6705C121.965 16.7169 122.107 16.896 122.107 17.1024V20.8384C122.107 21.0332 121.928 21.1784 121.737 21.1376C121.49 21.0847 121.147 21.0583 120.706 21.0583C119.455 21.0583 118.521 21.3931 117.904 22.0627C117.305 22.7323 117.006 23.8249 117.006 25.3403V28.6047C117.006 29.8529 115.994 30.8647 114.746 30.8647Z" fill="#111D15"/>
<path d="M98.5466 36.019C97.2984 36.019 96.2866 35.0072 96.2866 33.759V19.1155C96.2866 17.8673 97.2984 16.8555 98.5466 16.8555H99.9739C100.434 16.8555 100.807 17.2283 100.807 17.6881V18.3901C100.807 18.4622 100.865 18.5208 100.937 18.5208C100.987 18.5208 101.033 18.4931 101.062 18.453C101.132 18.3551 101.276 18.1838 101.494 17.9392C101.776 17.6221 102.207 17.3225 102.789 17.0405C103.371 16.741 104.111 16.5912 105.009 16.5912C106.049 16.5912 106.948 16.8026 107.705 17.2256C108.463 17.6309 109.089 18.1859 109.582 18.8908C110.093 19.578 110.472 20.3534 110.719 21.2169C110.983 22.0803 111.115 22.9614 111.115 23.8601C111.115 24.7588 110.983 25.6399 110.719 26.5033C110.472 27.3668 110.093 28.151 109.582 28.8558C109.089 29.5431 108.463 30.0981 107.705 30.5211C106.948 30.9264 106.049 31.129 105.009 31.129C104.111 31.129 103.371 30.9792 102.789 30.6797C102.207 30.3801 101.776 30.0805 101.494 29.781C101.276 29.5364 101.132 29.3651 101.062 29.2672C101.033 29.2271 100.987 29.1994 100.937 29.1994C100.865 29.1994 100.807 29.258 100.807 29.3301V33.759C100.807 35.0072 99.7947 36.019 98.5466 36.019ZM100.674 23.8601C100.674 24.4592 100.78 25.0407 100.992 25.6046C101.203 26.1509 101.529 26.6091 101.97 26.9791C102.41 27.3316 102.956 27.5078 103.608 27.5078C104.26 27.5078 104.807 27.3316 105.247 26.9791C105.688 26.6091 106.014 26.1509 106.225 25.6046C106.437 25.0407 106.542 24.4592 106.542 23.8601C106.542 23.261 106.437 22.6883 106.225 22.142C106.014 21.5781 105.688 21.1199 105.247 20.7675C104.807 20.3975 104.26 20.2124 103.608 20.2124C102.956 20.2124 102.41 20.3975 101.97 20.7675C101.529 21.1199 101.203 21.5781 100.992 22.142C100.78 22.6883 100.674 23.261 100.674 23.8601Z" fill="#111D15"/>
<path d="M87.3456 31.129C85.7597 31.129 84.4116 30.7942 83.3014 30.1246C82.1913 29.455 81.3366 28.5651 80.7375 27.4549C80.156 26.3447 79.8652 25.1465 79.8652 23.8601C79.8652 22.5737 80.156 21.3755 80.7375 20.2653C81.3366 19.1551 82.1913 18.2652 83.3014 17.5956C84.4116 16.926 85.7597 16.5912 87.3456 16.5912C88.9492 16.5912 90.306 16.926 91.4162 17.5956C92.5264 18.2652 93.3722 19.1551 93.9537 20.2653C94.5528 21.3755 94.8524 22.5737 94.8524 23.8601C94.8524 25.1465 94.5528 26.3447 93.9537 27.4549C93.3722 28.5651 92.5264 29.455 91.4162 30.1246C90.306 30.7942 88.9492 31.129 87.3456 31.129ZM87.3456 27.4813C88.2795 27.4813 89.002 27.1289 89.5131 26.424C90.0417 25.7016 90.306 24.8469 90.306 23.8601C90.306 22.8733 90.0417 22.0275 89.5131 21.3226C89.002 20.6001 88.2795 20.2389 87.3456 20.2389C86.4293 20.2389 85.7068 20.6001 85.1781 21.3226C84.6495 22.0275 84.3852 22.8733 84.3852 23.8601C84.3852 24.8469 84.6495 25.7016 85.1781 26.424C85.7068 27.1289 86.4293 27.4813 87.3456 27.4813Z" fill="#111D15"/>
<path d="M72.3508 30.8647C71.1026 30.8647 70.0908 29.8529 70.0908 28.6047V19.089C70.0908 17.8555 71.0908 16.8555 72.3244 16.8555H73.5006C74.0845 16.8555 74.5579 17.3289 74.5579 17.9128V18.8762C74.5579 18.9281 74.5999 18.9701 74.6518 18.9701C74.6907 18.9701 74.7256 18.946 74.74 18.9098C74.8797 18.5608 75.0745 18.2197 75.3244 17.8864C75.6064 17.5163 75.9941 17.2079 76.4875 16.9612C76.9809 16.7145 77.6329 16.5912 78.4435 16.5912C78.8311 16.5912 79.1395 16.6176 79.3686 16.6705C79.5697 16.7169 79.7122 16.896 79.7122 17.1024V20.8384C79.7122 21.0332 79.5326 21.1784 79.3422 21.1376C79.0955 21.0847 78.7518 21.0583 78.3113 21.0583C77.0602 21.0583 76.1262 21.3931 75.5095 22.0627C74.9103 22.7323 74.6108 23.8249 74.6108 25.3403V28.6047C74.6108 29.8529 73.5989 30.8647 72.3508 30.8647Z" fill="#111D15"/>
<path d="M56.1516 36.019C54.9034 36.019 53.8916 35.0072 53.8916 33.759V19.1155C53.8916 17.8673 54.9034 16.8555 56.1516 16.8555H57.5789C58.0388 16.8555 58.4115 17.2283 58.4115 17.6881V18.3901C58.4115 18.4622 58.4701 18.5208 58.5422 18.5208C58.5917 18.5208 58.6376 18.4931 58.6666 18.453C58.7373 18.3551 58.8814 18.1838 59.0988 17.9392C59.3807 17.6221 59.8125 17.3225 60.394 17.0405C60.9755 16.741 61.7156 16.5912 62.6143 16.5912C63.654 16.5912 64.5527 16.8026 65.3104 17.2256C66.0681 17.6309 66.6937 18.1859 67.1871 18.8908C67.6981 19.578 68.077 20.3534 68.3237 21.2169C68.588 22.0803 68.7202 22.9614 68.7202 23.8601C68.7202 24.7588 68.588 25.6399 68.3237 26.5033C68.077 27.3668 67.6981 28.151 67.1871 28.8558C66.6937 29.5431 66.0681 30.0981 65.3104 30.5211C64.5527 30.9264 63.654 31.129 62.6143 31.129C61.7156 31.129 60.9755 30.9792 60.394 30.6797C59.8125 30.3801 59.3807 30.0805 59.0988 29.781C58.8814 29.5364 58.7373 29.3651 58.6666 29.2672C58.6376 29.2271 58.5917 29.1994 58.5422 29.1994C58.4701 29.1994 58.4115 29.258 58.4115 29.3301V33.759C58.4115 35.0072 57.3997 36.019 56.1516 36.019ZM58.2794 23.8601C58.2794 24.4592 58.3851 25.0407 58.5966 25.6046C58.808 26.1509 59.134 26.6091 59.5746 26.9791C60.0151 27.3316 60.5614 27.5078 61.2134 27.5078C61.8654 27.5078 62.4116 27.3316 62.8522 26.9791C63.2927 26.6091 63.6187 26.1509 63.8302 25.6046C64.0416 25.0407 64.1474 24.4592 64.1474 23.8601C64.1474 23.261 64.0416 22.6883 63.8302 22.142C63.6187 21.5781 63.2927 21.1199 62.8522 20.7675C62.4116 20.3975 61.8654 20.2124 61.2134 20.2124C60.5614 20.2124 60.0151 20.3975 59.5746 20.7675C59.134 21.1199 58.808 21.5781 58.5966 22.142C58.3851 22.6883 58.2794 23.261 58.2794 23.8601Z" fill="#111D15"/>
<path d="M25.5158 30.8647C24.2677 30.8647 23.2559 29.8529 23.2559 28.6047V19.1155C23.2559 17.8674 24.2677 16.8555 25.5158 16.8555H26.8375C27.3557 16.8555 27.7758 17.2757 27.7758 17.7939V18.6322C27.7758 18.6874 27.8206 18.7322 27.8759 18.7322C27.912 18.7322 27.9453 18.7127 27.9635 18.6814C28.2793 18.1387 28.7278 17.6622 29.3089 17.252C29.9256 16.8115 30.7274 16.5912 31.7142 16.5912C32.7715 16.5912 33.6086 16.8379 34.2253 17.3313C34.8475 17.798 35.2918 18.3749 35.558 19.0619C35.5674 19.0861 35.5906 19.1023 35.6165 19.1023C35.6389 19.1023 35.6595 19.0903 35.6707 19.071C35.8806 18.7109 36.1653 18.3425 36.5249 17.9657C36.9126 17.578 37.3884 17.252 37.9523 16.9877C38.5162 16.7234 39.1858 16.5912 39.9611 16.5912C40.9303 16.5912 41.7145 16.8115 42.3136 17.252C42.9304 17.6749 43.3797 18.2212 43.6617 18.8908C43.9612 19.5605 44.111 20.2565 44.111 20.979V28.6047C44.111 29.8529 43.0992 30.8647 41.8511 30.8647C40.6029 30.8647 39.5911 29.8529 39.5911 28.6047V22.3006C39.5911 21.7191 39.4413 21.2345 39.1417 20.8468C38.8422 20.4592 38.3928 20.2653 37.7937 20.2653C37.1417 20.2653 36.6659 20.4856 36.3663 20.9261C36.0844 21.3667 35.9434 21.8689 35.9434 22.4328V28.6047C35.9434 29.8529 34.9316 30.8647 33.6834 30.8647C32.4353 30.8647 31.4235 29.8529 31.4235 28.6047V22.3006C31.4235 21.7367 31.2737 21.2609 30.9741 20.8733C30.6922 20.468 30.2428 20.2653 29.6261 20.2653C28.9741 20.2653 28.4983 20.4944 28.1987 20.9526C27.9168 21.3931 27.7758 21.8865 27.7758 22.4328V28.6047C27.7758 29.8529 26.764 30.8647 25.5158 30.8647Z" fill="#32D1E6"/>
<circle cx="8.34826" cy="15.3756" r="5.1473" transform="rotate(43.9152 8.34826 15.3756)" fill="#32D1E6"/>
<circle cx="15.9604" cy="26.6173" r="3.86547" transform="rotate(43.9152 15.9604 26.6173)" fill="#32D1E6"/>
<circle cx="26.554" cy="10.6222" r="1.79917" transform="rotate(43.9152 26.554 10.6222)" fill="#32D1E6"/>
<circle cx="46.8975" cy="7.68369" r="3.10182" transform="rotate(43.9152 46.8975 7.68369)" fill="#32D1E6"/>
<circle cx="46.6144" cy="33.1959" r="2.12259" transform="rotate(43.9152 46.6144 33.1959)" fill="#32D1E6"/>
<circle cx="51.0253" cy="24.7733" r="4.62869" transform="rotate(43.9152 51.0253 24.7733)" fill="#32D1E6"/>
<path d="M3.53778 43.6961C3.21778 43.6961 2.94278 43.6561 2.71278 43.5761C2.48778 43.4911 2.30028 43.3836 2.15028 43.2536C2.00028 43.1186 1.88028 42.9786 1.79028 42.8336C1.70028 42.6886 1.63278 42.5511 1.58778 42.4211C1.54278 42.2861 1.51278 42.1786 1.49778 42.0986C1.48778 42.0136 1.48278 41.9711 1.48278 41.9711H2.23278C2.23278 41.9711 2.24028 42.0061 2.25528 42.0761C2.27028 42.1461 2.30028 42.2336 2.34528 42.3386C2.39528 42.4436 2.46778 42.5511 2.56278 42.6611C2.65778 42.7661 2.78528 42.8536 2.94528 42.9236C3.10528 42.9936 3.30778 43.0286 3.55278 43.0286C3.92278 43.0286 4.21528 42.9411 4.43028 42.7661C4.64528 42.5861 4.75278 42.3536 4.75278 42.0686C4.75278 41.8236 4.67028 41.6336 4.50528 41.4986C4.34528 41.3636 4.11528 41.2586 3.81528 41.1836L3.08028 41.0036C2.82028 40.9386 2.57778 40.8486 2.35278 40.7336C2.13278 40.6136 1.95528 40.4586 1.82028 40.2686C1.69028 40.0736 1.62528 39.8311 1.62528 39.5411C1.62528 39.2161 1.70528 38.9386 1.86528 38.7086C2.02528 38.4786 2.24278 38.3036 2.51778 38.1836C2.79278 38.0586 3.10528 37.9961 3.45528 37.9961C3.79528 37.9961 4.07778 38.0486 4.30278 38.1536C4.52778 38.2586 4.70778 38.3886 4.84278 38.5436C4.97778 38.6936 5.07778 38.8461 5.14278 39.0011C5.20778 39.1511 5.25028 39.2786 5.27028 39.3836C5.29028 39.4886 5.30028 39.5411 5.30028 39.5411H4.58028C4.58028 39.5411 4.57028 39.4961 4.55028 39.4061C4.53028 39.3161 4.48278 39.2136 4.40778 39.0986C4.33278 38.9786 4.21778 38.8736 4.06278 38.7836C3.90778 38.6936 3.69778 38.6486 3.43278 38.6486C3.07278 38.6486 2.80028 38.7336 2.61528 38.9036C2.43528 39.0736 2.34528 39.2686 2.34528 39.4886C2.34528 39.6886 2.41778 39.8511 2.56278 39.9761C2.70778 40.0961 2.90778 40.1886 3.16278 40.2536L3.95778 40.4486C4.24278 40.5186 4.50028 40.6211 4.73028 40.7561C4.96028 40.8861 5.14278 41.0561 5.27778 41.2661C5.41278 41.4711 5.48028 41.7236 5.48028 42.0236C5.48028 42.3236 5.40528 42.6011 5.25528 42.8561C5.11028 43.1111 4.89278 43.3161 4.60278 43.4711C4.31778 43.6211 3.96278 43.6961 3.53778 43.6961ZM8.02102 43.6961C7.69602 43.6961 7.41352 43.6386 7.17352 43.5236C6.93852 43.4036 6.74352 43.2436 6.58852 43.0436C6.43852 42.8436 6.32602 42.6236 6.25102 42.3836C6.17602 42.1386 6.13852 41.8886 6.13852 41.6336C6.13852 41.3836 6.17352 41.1361 6.24352 40.8911C6.31852 40.6461 6.43102 40.4236 6.58102 40.2236C6.73602 40.0236 6.92852 39.8661 7.15852 39.7511C7.39352 39.6311 7.67102 39.5711 7.99102 39.5711C8.33102 39.5711 8.63102 39.6486 8.89102 39.8036C9.15102 39.9586 9.35602 40.1886 9.50602 40.4936C9.65602 40.7986 9.73102 41.1811 9.73102 41.6411V41.8511H6.85852C6.87352 42.0761 6.92602 42.2836 7.01602 42.4736C7.11102 42.6586 7.24352 42.8086 7.41352 42.9236C7.58352 43.0336 7.78602 43.0886 8.02102 43.0886C8.22602 43.0886 8.39102 43.0561 8.51602 42.9911C8.64602 42.9211 8.74852 42.8411 8.82352 42.7511C8.89852 42.6611 8.94852 42.5836 8.97352 42.5186C9.00352 42.4486 9.01852 42.4136 9.01852 42.4136H9.68602C9.68602 42.4136 9.67352 42.4586 9.64852 42.5486C9.62352 42.6336 9.57852 42.7386 9.51352 42.8636C9.44852 42.9886 9.35352 43.1161 9.22852 43.2461C9.10352 43.3711 8.94352 43.4786 8.74852 43.5686C8.55352 43.6536 8.31102 43.6961 8.02102 43.6961ZM6.86602 41.2961H9.03352C9.02352 41.0361 8.96852 40.8261 8.86852 40.6661C8.76852 40.5011 8.64102 40.3786 8.48602 40.2986C8.33102 40.2186 8.16602 40.1786 7.99102 40.1786C7.67602 40.1786 7.41852 40.2811 7.21852 40.4861C7.01852 40.6861 6.90102 40.9561 6.86602 41.2961ZM10.5533 43.6211V39.6461H11.2658V40.1411H11.2958C11.3808 39.9911 11.5058 39.8586 11.6708 39.7436C11.8358 39.6286 12.0683 39.5711 12.3683 39.5711C12.4533 39.5711 12.5308 39.5761 12.6008 39.5861C12.6708 39.5911 12.7058 39.5936 12.7058 39.5936V40.2761C12.7058 40.2761 12.6658 40.2736 12.5858 40.2686C12.5108 40.2586 12.4308 40.2536 12.3458 40.2536C12.0008 40.2536 11.7333 40.3536 11.5433 40.5536C11.3583 40.7486 11.2658 41.0686 11.2658 41.5136V43.6211H10.5533ZM14.5928 43.6211L13.0778 39.6461H13.8203L14.9828 42.7511L16.1228 39.6461H16.8728L15.3503 43.6211H14.5928ZM17.9766 38.8886C17.8416 38.8886 17.7291 38.8436 17.6391 38.7536C17.5541 38.6636 17.5116 38.5561 17.5116 38.4311C17.5116 38.3011 17.5541 38.1911 17.6391 38.1011C17.7291 38.0111 17.8416 37.9661 17.9766 37.9661C18.1066 37.9661 18.2166 38.0111 18.3066 38.1011C18.3966 38.1911 18.4416 38.3011 18.4416 38.4311C18.4416 38.5561 18.3966 38.6636 18.3066 38.7536C18.2166 38.8436 18.1066 38.8886 17.9766 38.8886ZM17.6241 43.6211V39.6461H18.3366V43.6211H17.6241ZM21.2216 43.6961C20.8966 43.6961 20.6116 43.6386 20.3666 43.5236C20.1216 43.4036 19.9166 43.2461 19.7516 43.0511C19.5916 42.8511 19.4691 42.6286 19.3841 42.3836C19.3041 42.1386 19.2641 41.8886 19.2641 41.6336C19.2641 41.3786 19.3041 41.1311 19.3841 40.8911C19.4641 40.6461 19.5841 40.4236 19.7441 40.2236C19.9091 40.0236 20.1141 39.8661 20.3591 39.7511C20.6041 39.6311 20.8916 39.5711 21.2216 39.5711C21.5416 39.5711 21.8066 39.6186 22.0166 39.7136C22.2266 39.8086 22.3941 39.9286 22.5191 40.0736C22.6491 40.2136 22.7441 40.3561 22.8041 40.5011C22.8691 40.6411 22.9116 40.7586 22.9316 40.8536C22.9516 40.9486 22.9616 40.9961 22.9616 40.9961H22.2716C22.2716 40.9961 22.2591 40.9561 22.2341 40.8761C22.2091 40.7911 22.1616 40.6961 22.0916 40.5911C22.0216 40.4861 21.9166 40.3936 21.7766 40.3136C21.6366 40.2286 21.4516 40.1861 21.2216 40.1861C20.9466 40.1861 20.7141 40.2561 20.5241 40.3961C20.3391 40.5311 20.1991 40.7086 20.1041 40.9286C20.0141 41.1486 19.9691 41.3836 19.9691 41.6336C19.9691 41.8836 20.0141 42.1186 20.1041 42.3386C20.1991 42.5586 20.3391 42.7386 20.5241 42.8786C20.7141 43.0136 20.9466 43.0811 21.2216 43.0811C21.4516 43.0811 21.6366 43.0411 21.7766 42.9611C21.9166 42.8761 22.0216 42.7811 22.0916 42.6761C22.1616 42.5711 22.2091 42.4786 22.2341 42.3986C22.2591 42.3136 22.2716 42.2711 22.2716 42.2711H22.9616C22.9616 42.2711 22.9516 42.3186 22.9316 42.4136C22.9116 42.5086 22.8691 42.6286 22.8041 42.7736C22.7441 42.9136 22.6491 43.0561 22.5191 43.2011C22.3941 43.3411 22.2266 43.4586 22.0166 43.5536C21.8066 43.6486 21.5416 43.6961 21.2216 43.6961ZM25.5962 43.6961C25.2712 43.6961 24.9887 43.6386 24.7487 43.5236C24.5137 43.4036 24.3187 43.2436 24.1637 43.0436C24.0137 42.8436 23.9012 42.6236 23.8262 42.3836C23.7512 42.1386 23.7137 41.8886 23.7137 41.6336C23.7137 41.3836 23.7487 41.1361 23.8187 40.8911C23.8937 40.6461 24.0062 40.4236 24.1562 40.2236C24.3112 40.0236 24.5037 39.8661 24.7337 39.7511C24.9687 39.6311 25.2462 39.5711 25.5662 39.5711C25.9062 39.5711 26.2062 39.6486 26.4662 39.8036C26.7262 39.9586 26.9312 40.1886 27.0812 40.4936C27.2312 40.7986 27.3062 41.1811 27.3062 41.6411V41.8511H24.4337C24.4487 42.0761 24.5012 42.2836 24.5912 42.4736C24.6862 42.6586 24.8187 42.8086 24.9887 42.9236C25.1587 43.0336 25.3612 43.0886 25.5962 43.0886C25.8012 43.0886 25.9662 43.0561 26.0912 42.9911C26.2212 42.9211 26.3237 42.8411 26.3987 42.7511C26.4737 42.6611 26.5237 42.5836 26.5487 42.5186C26.5787 42.4486 26.5937 42.4136 26.5937 42.4136H27.2612C27.2612 42.4136 27.2487 42.4586 27.2237 42.5486C27.1987 42.6336 27.1537 42.7386 27.0887 42.8636C27.0237 42.9886 26.9287 43.1161 26.8037 43.2461C26.6787 43.3711 26.5187 43.4786 26.3237 43.5686C26.1287 43.6536 25.8862 43.6961 25.5962 43.6961ZM24.4412 41.2961H26.6087C26.5987 41.0361 26.5437 40.8261 26.4437 40.6661C26.3437 40.5011 26.2162 40.3786 26.0612 40.2986C25.9062 40.2186 25.7412 40.1786 25.5662 40.1786C25.2512 40.1786 24.9937 40.2811 24.7937 40.4861C24.5937 40.6861 24.4762 40.9561 24.4412 41.2961ZM29.5835 43.6961C29.2785 43.6961 29.026 43.6536 28.826 43.5686C28.631 43.4836 28.476 43.3786 28.361 43.2536C28.246 43.1236 28.161 42.9961 28.106 42.8711C28.051 42.7411 28.016 42.6336 28.001 42.5486C27.986 42.4636 27.9785 42.4211 27.9785 42.4211H28.6985C28.6985 42.4211 28.706 42.4561 28.721 42.5261C28.741 42.5911 28.7785 42.6686 28.8335 42.7586C28.8935 42.8436 28.9835 42.9211 29.1035 42.9911C29.2285 43.0561 29.3935 43.0886 29.5985 43.0886C29.8335 43.0886 30.016 43.0336 30.146 42.9236C30.276 42.8086 30.341 42.6686 30.341 42.5036C30.341 42.3586 30.2885 42.2436 30.1835 42.1586C30.0835 42.0736 29.9385 42.0086 29.7485 41.9636L29.2085 41.8361C29.0085 41.7861 28.821 41.7186 28.646 41.6336C28.471 41.5486 28.3285 41.4336 28.2185 41.2886C28.1135 41.1386 28.061 40.9536 28.061 40.7336C28.061 40.3936 28.1885 40.1161 28.4435 39.9011C28.6985 39.6811 29.031 39.5711 29.441 39.5711C29.716 39.5711 29.9435 39.6111 30.1235 39.6911C30.3035 39.7661 30.446 39.8611 30.551 39.9761C30.661 40.0911 30.741 40.2061 30.791 40.3211C30.846 40.4361 30.881 40.5336 30.896 40.6136C30.911 40.6886 30.9185 40.7261 30.9185 40.7261H30.2285C30.2285 40.7261 30.221 40.6986 30.206 40.6436C30.191 40.5836 30.156 40.5186 30.101 40.4486C30.051 40.3736 29.9735 40.3086 29.8685 40.2536C29.7635 40.1936 29.6235 40.1636 29.4485 40.1636C29.2085 40.1636 29.0335 40.2186 28.9235 40.3286C28.8135 40.4386 28.7585 40.5586 28.7585 40.6886C28.7585 40.8136 28.8085 40.9161 28.9085 40.9961C29.0135 41.0711 29.1485 41.1286 29.3135 41.1686L29.861 41.2961C30.201 41.3761 30.481 41.5086 30.701 41.6936C30.926 41.8736 31.0385 42.1336 31.0385 42.4736C31.0385 42.6936 30.981 42.8986 30.866 43.0886C30.751 43.2736 30.586 43.4211 30.371 43.5311C30.156 43.6411 29.8935 43.6961 29.5835 43.6961ZM35.0906 43.6961C34.7906 43.6961 34.5281 43.6386 34.3031 43.5236C34.0781 43.4036 33.8906 43.2461 33.7406 43.0511C33.5906 42.8511 33.4781 42.6286 33.4031 42.3836C33.3281 42.1386 33.2906 41.8886 33.2906 41.6336C33.2906 41.3786 33.3281 41.1286 33.4031 40.8836C33.4781 40.6386 33.5906 40.4186 33.7406 40.2236C33.8906 40.0236 34.0781 39.8661 34.3031 39.7511C34.5281 39.6311 34.7906 39.5711 35.0906 39.5711C35.3406 39.5711 35.5506 39.6111 35.7206 39.6911C35.8906 39.7711 36.0281 39.8661 36.1331 39.9761C36.2381 40.0811 36.3181 40.1811 36.3731 40.2761H36.4181V37.9211H37.1306V43.6211H36.4181V42.9911H36.3731C36.3181 43.0861 36.2381 43.1886 36.1331 43.2986C36.0281 43.4086 35.8906 43.5036 35.7206 43.5836C35.5506 43.6586 35.3406 43.6961 35.0906 43.6961ZM35.2106 43.0886C35.4756 43.0886 35.6956 43.0186 35.8706 42.8786C36.0506 42.7336 36.1831 42.5511 36.2681 42.3311C36.3581 42.1061 36.4031 41.8736 36.4031 41.6336C36.4031 41.3886 36.3581 41.1561 36.2681 40.9361C36.1831 40.7161 36.0506 40.5361 35.8706 40.3961C35.6956 40.2511 35.4756 40.1786 35.2106 40.1786C34.9456 40.1786 34.7231 40.2511 34.5431 40.3961C34.3631 40.5361 34.2281 40.7161 34.1381 40.9361C34.0531 41.1561 34.0106 41.3886 34.0106 41.6336C34.0106 41.8736 34.0531 42.1061 34.1381 42.3311C34.2281 42.5511 34.3631 42.7336 34.5431 42.8786C34.7231 43.0186 34.9456 43.0886 35.2106 43.0886ZM39.9157 43.6961C39.5907 43.6961 39.3082 43.6386 39.0682 43.5236C38.8332 43.4036 38.6382 43.2436 38.4832 43.0436C38.3332 42.8436 38.2207 42.6236 38.1457 42.3836C38.0707 42.1386 38.0332 41.8886 38.0332 41.6336C38.0332 41.3836 38.0682 41.1361 38.1382 40.8911C38.2132 40.6461 38.3257 40.4236 38.4757 40.2236C38.6307 40.0236 38.8232 39.8661 39.0532 39.7511C39.2882 39.6311 39.5657 39.5711 39.8857 39.5711C40.2257 39.5711 40.5257 39.6486 40.7857 39.8036C41.0457 39.9586 41.2507 40.1886 41.4007 40.4936C41.5507 40.7986 41.6257 41.1811 41.6257 41.6411V41.8511H38.7532C38.7682 42.0761 38.8207 42.2836 38.9107 42.4736C39.0057 42.6586 39.1382 42.8086 39.3082 42.9236C39.4782 43.0336 39.6807 43.0886 39.9157 43.0886C40.1207 43.0886 40.2857 43.0561 40.4107 42.9911C40.5407 42.9211 40.6432 42.8411 40.7182 42.7511C40.7932 42.6611 40.8432 42.5836 40.8682 42.5186C40.8982 42.4486 40.9132 42.4136 40.9132 42.4136H41.5807C41.5807 42.4136 41.5682 42.4586 41.5432 42.5486C41.5182 42.6336 41.4732 42.7386 41.4082 42.8636C41.3432 42.9886 41.2482 43.1161 41.1232 43.2461C40.9982 43.3711 40.8382 43.4786 40.6432 43.5686C40.4482 43.6536 40.2057 43.6961 39.9157 43.6961ZM38.7607 41.2961H40.9282C40.9182 41.0361 40.8632 40.8261 40.7632 40.6661C40.6632 40.5011 40.5357 40.3786 40.3807 40.2986C40.2257 40.2186 40.0607 40.1786 39.8857 40.1786C39.5707 40.1786 39.3132 40.2811 39.1132 40.4861C38.9132 40.6861 38.7957 40.9561 38.7607 41.2961ZM45.9089 43.6961C45.5839 43.6961 45.2989 43.6386 45.0539 43.5236C44.8089 43.4036 44.6039 43.2461 44.4389 43.0511C44.2789 42.8511 44.1564 42.6286 44.0714 42.3836C43.9914 42.1386 43.9514 41.8886 43.9514 41.6336C43.9514 41.3786 43.9914 41.1311 44.0714 40.8911C44.1514 40.6461 44.2714 40.4236 44.4314 40.2236C44.5964 40.0236 44.8014 39.8661 45.0464 39.7511C45.2914 39.6311 45.5789 39.5711 45.9089 39.5711C46.2289 39.5711 46.4939 39.6186 46.7039 39.7136C46.9139 39.8086 47.0814 39.9286 47.2064 40.0736C47.3364 40.2136 47.4314 40.3561 47.4914 40.5011C47.5564 40.6411 47.5989 40.7586 47.6189 40.8536C47.6389 40.9486 47.6489 40.9961 47.6489 40.9961H46.9589C46.9589 40.9961 46.9464 40.9561 46.9214 40.8761C46.8964 40.7911 46.8489 40.6961 46.7789 40.5911C46.7089 40.4861 46.6039 40.3936 46.4639 40.3136C46.3239 40.2286 46.1389 40.1861 45.9089 40.1861C45.6339 40.1861 45.4014 40.2561 45.2114 40.3961C45.0264 40.5311 44.8864 40.7086 44.7914 40.9286C44.7014 41.1486 44.6564 41.3836 44.6564 41.6336C44.6564 41.8836 44.7014 42.1186 44.7914 42.3386C44.8864 42.5586 45.0264 42.7386 45.2114 42.8786C45.4014 43.0136 45.6339 43.0811 45.9089 43.0811C46.1389 43.0811 46.3239 43.0411 46.4639 42.9611C46.6039 42.8761 46.7089 42.7811 46.7789 42.6761C46.8489 42.5711 46.8964 42.4786 46.9214 42.3986C46.9464 42.3136 46.9589 42.2711 46.9589 42.2711H47.6489C47.6489 42.2711 47.6389 42.3186 47.6189 42.4136C47.5989 42.5086 47.5564 42.6286 47.4914 42.7736C47.4314 42.9136 47.3364 43.0561 47.2064 43.2011C47.0814 43.3411 46.9139 43.4586 46.7039 43.5536C46.4939 43.6486 46.2289 43.6961 45.9089 43.6961ZM50.3585 43.6961C49.9335 43.6961 49.576 43.5986 49.286 43.4036C48.996 43.2036 48.776 42.9461 48.626 42.6311C48.476 42.3161 48.401 41.9836 48.401 41.6336C48.401 41.2786 48.476 40.9461 48.626 40.6361C48.776 40.3211 48.996 40.0661 49.286 39.8711C49.576 39.6711 49.9335 39.5711 50.3585 39.5711C50.7835 39.5711 51.141 39.6711 51.431 39.8711C51.721 40.0661 51.941 40.3211 52.091 40.6361C52.241 40.9461 52.316 41.2786 52.316 41.6336C52.316 41.9836 52.241 42.3161 52.091 42.6311C51.941 42.9461 51.721 43.2036 51.431 43.4036C51.141 43.5986 50.7835 43.6961 50.3585 43.6961ZM50.3585 43.0736C50.6285 43.0736 50.8535 43.0061 51.0335 42.8711C51.2185 42.7311 51.356 42.5511 51.446 42.3311C51.541 42.1111 51.5885 41.8786 51.5885 41.6336C51.5885 41.3836 51.541 41.1511 51.446 40.9361C51.356 40.7161 51.2185 40.5386 51.0335 40.4036C50.8535 40.2636 50.6285 40.1936 50.3585 40.1936C50.0935 40.1936 49.8685 40.2636 49.6835 40.4036C49.4985 40.5386 49.3585 40.7161 49.2635 40.9361C49.1735 41.1511 49.1285 41.3836 49.1285 41.6336C49.1285 41.8786 49.1735 42.1111 49.2635 42.3311C49.3585 42.5511 49.4985 42.7311 49.6835 42.8711C49.8685 43.0061 50.0935 43.0736 50.3585 43.0736ZM53.138 43.6211V39.6461H53.8505V40.2236H53.8955C53.9305 40.1636 53.988 40.0811 54.068 39.9761C54.153 39.8711 54.273 39.7786 54.428 39.6986C54.583 39.6136 54.778 39.5711 55.013 39.5711C55.303 39.5711 55.5505 39.6386 55.7555 39.7736C55.9605 39.9036 56.1155 40.0811 56.2205 40.3061C56.3305 40.5311 56.3855 40.7836 56.3855 41.0636V43.6211H55.673V41.1086C55.673 40.8436 55.598 40.6236 55.448 40.4486C55.303 40.2736 55.0905 40.1861 54.8105 40.1861C54.5855 40.1861 54.403 40.2436 54.263 40.3586C54.123 40.4686 54.018 40.6161 53.948 40.8011C53.883 40.9811 53.8505 41.1736 53.8505 41.3786V43.6211H53.138ZM59.1699 43.6961C58.8449 43.6961 58.5599 43.6386 58.3149 43.5236C58.0699 43.4036 57.8649 43.2461 57.6999 43.0511C57.5399 42.8511 57.4174 42.6286 57.3324 42.3836C57.2524 42.1386 57.2124 41.8886 57.2124 41.6336C57.2124 41.3786 57.2524 41.1311 57.3324 40.8911C57.4124 40.6461 57.5324 40.4236 57.6924 40.2236C57.8574 40.0236 58.0624 39.8661 58.3074 39.7511C58.5524 39.6311 58.8399 39.5711 59.1699 39.5711C59.4899 39.5711 59.7549 39.6186 59.9649 39.7136C60.1749 39.8086 60.3424 39.9286 60.4674 40.0736C60.5974 40.2136 60.6924 40.3561 60.7524 40.5011C60.8174 40.6411 60.8599 40.7586 60.8799 40.8536C60.8999 40.9486 60.9099 40.9961 60.9099 40.9961H60.2199C60.2199 40.9961 60.2074 40.9561 60.1824 40.8761C60.1574 40.7911 60.1099 40.6961 60.0399 40.5911C59.9699 40.4861 59.8649 40.3936 59.7249 40.3136C59.5849 40.2286 59.3999 40.1861 59.1699 40.1861C58.8949 40.1861 58.6624 40.2561 58.4724 40.3961C58.2874 40.5311 58.1474 40.7086 58.0524 40.9286C57.9624 41.1486 57.9174 41.3836 57.9174 41.6336C57.9174 41.8836 57.9624 42.1186 58.0524 42.3386C58.1474 42.5586 58.2874 42.7386 58.4724 42.8786C58.6624 43.0136 58.8949 43.0811 59.1699 43.0811C59.3999 43.0811 59.5849 43.0411 59.7249 42.9611C59.8649 42.8761 59.9699 42.7811 60.0399 42.6761C60.1099 42.5711 60.1574 42.4786 60.1824 42.3986C60.2074 42.3136 60.2199 42.2711 60.2199 42.2711H60.9099C60.9099 42.2711 60.8999 42.3186 60.8799 42.4136C60.8599 42.5086 60.8174 42.6286 60.7524 42.7736C60.6924 42.9136 60.5974 43.0561 60.4674 43.2011C60.3424 43.3411 60.1749 43.4586 59.9649 43.5536C59.7549 43.6486 59.4899 43.6961 59.1699 43.6961ZM62.202 38.8886C62.067 38.8886 61.9545 38.8436 61.8645 38.7536C61.7795 38.6636 61.737 38.5561 61.737 38.4311C61.737 38.3011 61.7795 38.1911 61.8645 38.1011C61.9545 38.0111 62.067 37.9661 62.202 37.9661C62.332 37.9661 62.442 38.0111 62.532 38.1011C62.622 38.1911 62.667 38.3011 62.667 38.4311C62.667 38.5561 62.622 38.6636 62.532 38.7536C62.442 38.8436 62.332 38.8886 62.202 38.8886ZM61.8495 43.6211V39.6461H62.562V43.6211H61.8495ZM65.372 43.6961C65.047 43.6961 64.7645 43.6386 64.5245 43.5236C64.2895 43.4036 64.0945 43.2436 63.9395 43.0436C63.7895 42.8436 63.677 42.6236 63.602 42.3836C63.527 42.1386 63.4895 41.8886 63.4895 41.6336C63.4895 41.3836 63.5245 41.1361 63.5945 40.8911C63.6695 40.6461 63.782 40.4236 63.932 40.2236C64.087 40.0236 64.2795 39.8661 64.5095 39.7511C64.7445 39.6311 65.022 39.5711 65.342 39.5711C65.682 39.5711 65.982 39.6486 66.242 39.8036C66.502 39.9586 66.707 40.1886 66.857 40.4936C67.007 40.7986 67.082 41.1811 67.082 41.6411V41.8511H64.2095C64.2245 42.0761 64.277 42.2836 64.367 42.4736C64.462 42.6586 64.5945 42.8086 64.7645 42.9236C64.9345 43.0336 65.137 43.0886 65.372 43.0886C65.577 43.0886 65.742 43.0561 65.867 42.9911C65.997 42.9211 66.0995 42.8411 66.1745 42.7511C66.2495 42.6611 66.2995 42.5836 66.3245 42.5186C66.3545 42.4486 66.3695 42.4136 66.3695 42.4136H67.037C67.037 42.4136 67.0245 42.4586 66.9995 42.5486C66.9745 42.6336 66.9295 42.7386 66.8645 42.8636C66.7995 42.9886 66.7045 43.1161 66.5795 43.2461C66.4545 43.3711 66.2945 43.4786 66.0995 43.5686C65.9045 43.6536 65.662 43.6961 65.372 43.6961ZM64.217 41.2961H66.3845C66.3745 41.0361 66.3195 40.8261 66.2195 40.6661C66.1195 40.5011 65.992 40.3786 65.837 40.2986C65.682 40.2186 65.517 40.1786 65.342 40.1786C65.027 40.1786 64.7695 40.2811 64.5695 40.4861C64.3695 40.6861 64.252 40.9561 64.217 41.2961ZM67.9042 43.6211V39.6461H68.6167V40.1411H68.6467C68.7317 39.9911 68.8567 39.8586 69.0217 39.7436C69.1867 39.6286 69.4192 39.5711 69.7192 39.5711C69.8042 39.5711 69.8817 39.5761 69.9517 39.5861C70.0217 39.5911 70.0567 39.5936 70.0567 39.5936V40.2761C70.0567 40.2761 70.0167 40.2736 69.9367 40.2686C69.8617 40.2586 69.7817 40.2536 69.6967 40.2536C69.3517 40.2536 69.0842 40.3536 68.8942 40.5536C68.7092 40.7486 68.6167 41.0686 68.6167 41.5136V43.6211H67.9042ZM72.3035 45.1961C71.9735 45.1961 71.6985 45.1511 71.4785 45.0611C71.2585 44.9761 71.081 44.8661 70.946 44.7311C70.816 44.6011 70.7185 44.4711 70.6535 44.3411C70.5885 44.2111 70.546 44.1011 70.526 44.0111C70.506 43.9261 70.496 43.8836 70.496 43.8836H71.2085C71.2085 43.8836 71.221 43.9186 71.246 43.9886C71.271 44.0586 71.3185 44.1386 71.3885 44.2286C71.4635 44.3186 71.5735 44.3986 71.7185 44.4686C71.8635 44.5386 72.0585 44.5736 72.3035 44.5736C72.5935 44.5736 72.821 44.5161 72.986 44.4011C73.151 44.2911 73.2685 44.1461 73.3385 43.9661C73.4135 43.7861 73.451 43.5961 73.451 43.3961V42.9386H73.4135C73.3635 43.0236 73.2835 43.1211 73.1735 43.2311C73.0685 43.3361 72.9285 43.4286 72.7535 43.5086C72.5785 43.5836 72.3635 43.6211 72.1085 43.6211C71.8085 43.6211 71.546 43.5636 71.321 43.4486C71.096 43.3336 70.9085 43.1786 70.7585 42.9836C70.6135 42.7886 70.5035 42.5711 70.4285 42.3311C70.3535 42.0911 70.316 41.8461 70.316 41.5961C70.316 41.3461 70.3535 41.1011 70.4285 40.8611C70.5035 40.6211 70.6135 40.4036 70.7585 40.2086C70.9085 40.0136 71.096 39.8586 71.321 39.7436C71.546 39.6286 71.8085 39.5711 72.1085 39.5711C72.3635 39.5711 72.5785 39.6111 72.7535 39.6911C72.9285 39.7661 73.0685 39.8561 73.1735 39.9611C73.2835 40.0661 73.3635 40.1636 73.4135 40.2536H73.451V39.6461H74.1635V43.3886C74.1635 43.9436 74.001 44.3836 73.676 44.7086C73.356 45.0336 72.8985 45.1961 72.3035 45.1961ZM72.2435 43.0136C72.5085 43.0136 72.7285 42.9461 72.9035 42.8111C73.0835 42.6711 73.216 42.4936 73.301 42.2786C73.391 42.0636 73.436 41.8361 73.436 41.5961C73.436 41.3561 73.391 41.1286 73.301 40.9136C73.216 40.6936 73.0835 40.5161 72.9035 40.3811C72.7285 40.2461 72.5085 40.1786 72.2435 40.1786C71.9785 40.1786 71.756 40.2461 71.576 40.3811C71.396 40.5161 71.261 40.6936 71.171 40.9136C71.086 41.1286 71.0435 41.3561 71.0435 41.5961C71.0435 41.8361 71.086 42.0636 71.171 42.2786C71.261 42.4936 71.396 42.6711 71.576 42.8111C71.756 42.9461 71.9785 43.0136 72.2435 43.0136ZM76.7213 43.6961C76.3963 43.6961 76.1138 43.6386 75.8738 43.5236C75.6388 43.4036 75.4438 43.2436 75.2888 43.0436C75.1388 42.8436 75.0263 42.6236 74.9513 42.3836C74.8763 42.1386 74.8388 41.8886 74.8388 41.6336C74.8388 41.3836 74.8738 41.1361 74.9438 40.8911C75.0188 40.6461 75.1313 40.4236 75.2813 40.2236C75.4363 40.0236 75.6288 39.8661 75.8588 39.7511C76.0938 39.6311 76.3713 39.5711 76.6913 39.5711C77.0313 39.5711 77.3313 39.6486 77.5913 39.8036C77.8513 39.9586 78.0563 40.1886 78.2063 40.4936C78.3563 40.7986 78.4313 41.1811 78.4313 41.6411V41.8511H75.5588C75.5738 42.0761 75.6263 42.2836 75.7163 42.4736C75.8113 42.6586 75.9438 42.8086 76.1138 42.9236C76.2838 43.0336 76.4863 43.0886 76.7213 43.0886C76.9263 43.0886 77.0913 43.0561 77.2163 42.9911C77.3463 42.9211 77.4488 42.8411 77.5238 42.7511C77.5988 42.6611 77.6488 42.5836 77.6738 42.5186C77.7038 42.4486 77.7188 42.4136 77.7188 42.4136H78.3863C78.3863 42.4136 78.3738 42.4586 78.3488 42.5486C78.3238 42.6336 78.2788 42.7386 78.2138 42.8636C78.1488 42.9886 78.0538 43.1161 77.9288 43.2461C77.8038 43.3711 77.6438 43.4786 77.4488 43.5686C77.2538 43.6536 77.0113 43.6961 76.7213 43.6961ZM75.5663 41.2961H77.7338C77.7238 41.0361 77.6688 40.8261 77.5688 40.6661C77.4688 40.5011 77.3413 40.3786 77.1863 40.2986C77.0313 40.2186 76.8663 40.1786 76.6913 40.1786C76.3763 40.1786 76.1188 40.2811 75.9188 40.4861C75.7188 40.6861 75.6013 40.9561 75.5663 41.2961ZM79.2536 43.6211V39.6461H79.9661V40.1411H79.9961C80.0811 39.9911 80.2061 39.8586 80.3711 39.7436C80.5361 39.6286 80.7686 39.5711 81.0686 39.5711C81.1536 39.5711 81.2311 39.5761 81.3011 39.5861C81.3711 39.5911 81.4061 39.5936 81.4061 39.5936V40.2761C81.4061 40.2761 81.3661 40.2736 81.2861 40.2686C81.2111 40.2586 81.1311 40.2536 81.0461 40.2536C80.7011 40.2536 80.4336 40.3536 80.2436 40.5536C80.0586 40.7486 79.9661 41.0686 79.9661 41.5136V43.6211H79.2536ZM82.6521 38.8886C82.5171 38.8886 82.4046 38.8436 82.3146 38.7536C82.2296 38.6636 82.1871 38.5561 82.1871 38.4311C82.1871 38.3011 82.2296 38.1911 82.3146 38.1011C82.4046 38.0111 82.5171 37.9661 82.6521 37.9661C82.7821 37.9661 82.8921 38.0111 82.9821 38.1011C83.0721 38.1911 83.1171 38.3011 83.1171 38.4311C83.1171 38.5561 83.0721 38.6636 82.9821 38.7536C82.8921 38.8436 82.7821 38.8886 82.6521 38.8886ZM82.2996 43.6211V39.6461H83.0121V43.6211H82.2996ZM85.8221 43.6961C85.4971 43.6961 85.2146 43.6386 84.9746 43.5236C84.7396 43.4036 84.5446 43.2436 84.3896 43.0436C84.2396 42.8436 84.1271 42.6236 84.0521 42.3836C83.9771 42.1386 83.9396 41.8886 83.9396 41.6336C83.9396 41.3836 83.9746 41.1361 84.0446 40.8911C84.1196 40.6461 84.2321 40.4236 84.3821 40.2236C84.5371 40.0236 84.7296 39.8661 84.9596 39.7511C85.1946 39.6311 85.4721 39.5711 85.7921 39.5711C86.1321 39.5711 86.4321 39.6486 86.6921 39.8036C86.9521 39.9586 87.1571 40.1886 87.3071 40.4936C87.4571 40.7986 87.5321 41.1811 87.5321 41.6411V41.8511H84.6596C84.6746 42.0761 84.7271 42.2836 84.8171 42.4736C84.9121 42.6586 85.0446 42.8086 85.2146 42.9236C85.3846 43.0336 85.5871 43.0886 85.8221 43.0886C86.0271 43.0886 86.1921 43.0561 86.3171 42.9911C86.4471 42.9211 86.5496 42.8411 86.6246 42.7511C86.6996 42.6611 86.7496 42.5836 86.7746 42.5186C86.8046 42.4486 86.8196 42.4136 86.8196 42.4136H87.4871C87.4871 42.4136 87.4746 42.4586 87.4496 42.5486C87.4246 42.6336 87.3796 42.7386 87.3146 42.8636C87.2496 42.9886 87.1546 43.1161 87.0296 43.2461C86.9046 43.3711 86.7446 43.4786 86.5496 43.5686C86.3546 43.6536 86.1121 43.6961 85.8221 43.6961ZM84.6671 41.2961H86.8346C86.8246 41.0361 86.7696 40.8261 86.6696 40.6661C86.5696 40.5011 86.4421 40.3786 86.2871 40.2986C86.1321 40.2186 85.9671 40.1786 85.7921 40.1786C85.4771 40.1786 85.2196 40.2811 85.0196 40.4861C84.8196 40.6861 84.7021 40.9561 84.6671 41.2961ZM91.7404 43.6961C91.4154 43.6961 91.1329 43.6386 90.8929 43.5236C90.6579 43.4036 90.4629 43.2436 90.3079 43.0436C90.1579 42.8436 90.0454 42.6236 89.9704 42.3836C89.8954 42.1386 89.8579 41.8886 89.8579 41.6336C89.8579 41.3836 89.8929 41.1361 89.9629 40.8911C90.0379 40.6461 90.1504 40.4236 90.3004 40.2236C90.4554 40.0236 90.6479 39.8661 90.8779 39.7511C91.1129 39.6311 91.3904 39.5711 91.7104 39.5711C92.0504 39.5711 92.3504 39.6486 92.6104 39.8036C92.8704 39.9586 93.0754 40.1886 93.2254 40.4936C93.3754 40.7986 93.4504 41.1811 93.4504 41.6411V41.8511H90.5779C90.5929 42.0761 90.6454 42.2836 90.7354 42.4736C90.8304 42.6586 90.9629 42.8086 91.1329 42.9236C91.3029 43.0336 91.5054 43.0886 91.7404 43.0886C91.9454 43.0886 92.1104 43.0561 92.2354 42.9911C92.3654 42.9211 92.4679 42.8411 92.5429 42.7511C92.6179 42.6611 92.6679 42.5836 92.6929 42.5186C92.7229 42.4486 92.7379 42.4136 92.7379 42.4136H93.4054C93.4054 42.4136 93.3929 42.4586 93.3679 42.5486C93.3429 42.6336 93.2979 42.7386 93.2329 42.8636C93.1679 42.9886 93.0729 43.1161 92.9479 43.2461C92.8229 43.3711 92.6629 43.4786 92.4679 43.5686C92.2729 43.6536 92.0304 43.6961 91.7404 43.6961ZM90.5854 41.2961H92.7529C92.7429 41.0361 92.6879 40.8261 92.5879 40.6661C92.4879 40.5011 92.3604 40.3786 92.2054 40.2986C92.0504 40.2186 91.8854 40.1786 91.7104 40.1786C91.3954 40.1786 91.1379 40.2811 90.9379 40.4861C90.7379 40.6861 90.6204 40.9561 90.5854 41.2961ZM95.8869 43.6961C95.4769 43.6961 95.1669 43.5911 94.9569 43.3811C94.7519 43.1711 94.6494 42.8761 94.6494 42.4961V40.2311H93.9369V39.6461H94.6494V38.6486H95.3619V39.6461H96.3294V40.2311H95.3619V42.4961C95.3619 42.6961 95.4169 42.8436 95.5269 42.9386C95.6369 43.0286 95.7969 43.0736 96.0069 43.0736C96.1169 43.0736 96.2219 43.0661 96.3219 43.0511C96.4219 43.0361 96.4719 43.0286 96.4719 43.0286V43.6361C96.4719 43.6361 96.4144 43.6461 96.2994 43.6661C96.1844 43.6861 96.0469 43.6961 95.8869 43.6961ZM100.561 43.6961C100.261 43.6961 99.9984 43.6386 99.7734 43.5236C99.5484 43.4036 99.3609 43.2461 99.2109 43.0511C99.0609 42.8511 98.9484 42.6286 98.8734 42.3836C98.7984 42.1386 98.7609 41.8886 98.7609 41.6336C98.7609 41.3786 98.7984 41.1286 98.8734 40.8836C98.9484 40.6386 99.0609 40.4186 99.2109 40.2236C99.3609 40.0236 99.5484 39.8661 99.7734 39.7511C99.9984 39.6311 100.261 39.5711 100.561 39.5711C100.811 39.5711 101.021 39.6111 101.191 39.6911C101.361 39.7711 101.498 39.8661 101.603 39.9761C101.708 40.0811 101.788 40.1811 101.843 40.2761H101.888V37.9211H102.601V43.6211H101.888V42.9911H101.843C101.788 43.0861 101.708 43.1886 101.603 43.2986C101.498 43.4086 101.361 43.5036 101.191 43.5836C101.021 43.6586 100.811 43.6961 100.561 43.6961ZM100.681 43.0886C100.946 43.0886 101.166 43.0186 101.341 42.8786C101.521 42.7336 101.653 42.5511 101.738 42.3311C101.828 42.1061 101.873 41.8736 101.873 41.6336C101.873 41.3886 101.828 41.1561 101.738 40.9361C101.653 40.7161 101.521 40.5361 101.341 40.3961C101.166 40.2511 100.946 40.1786 100.681 40.1786C100.416 40.1786 100.193 40.2511 100.013 40.3961C99.8334 40.5361 99.6984 40.7161 99.6084 40.9361C99.5234 41.1561 99.4809 41.3886 99.4809 41.6336C99.4809 41.8736 99.5234 42.1061 99.6084 42.3311C99.6984 42.5511 99.8334 42.7336 100.013 42.8786C100.193 43.0186 100.416 43.0886 100.681 43.0886ZM103.503 39.6086L103.578 38.0711H104.246L103.968 39.6086H103.503ZM106.576 43.6961C106.251 43.6961 105.969 43.6386 105.729 43.5236C105.494 43.4036 105.299 43.2436 105.144 43.0436C104.994 42.8436 104.881 42.6236 104.806 42.3836C104.731 42.1386 104.694 41.8886 104.694 41.6336C104.694 41.3836 104.729 41.1361 104.799 40.8911C104.874 40.6461 104.986 40.4236 105.136 40.2236C105.291 40.0236 105.484 39.8661 105.714 39.7511C105.949 39.6311 106.226 39.5711 106.546 39.5711C106.886 39.5711 107.186 39.6486 107.446 39.8036C107.706 39.9586 107.911 40.1886 108.061 40.4936C108.211 40.7986 108.286 41.1811 108.286 41.6411V41.8511H105.414C105.429 42.0761 105.481 42.2836 105.571 42.4736C105.666 42.6586 105.799 42.8086 105.969 42.9236C106.139 43.0336 106.341 43.0886 106.576 43.0886C106.781 43.0886 106.946 43.0561 107.071 42.9911C107.201 42.9211 107.304 42.8411 107.379 42.7511C107.454 42.6611 107.504 42.5836 107.529 42.5186C107.559 42.4486 107.574 42.4136 107.574 42.4136H108.241C108.241 42.4136 108.229 42.4586 108.204 42.5486C108.179 42.6336 108.134 42.7386 108.069 42.8636C108.004 42.9886 107.909 43.1161 107.784 43.2461C107.659 43.3711 107.499 43.4786 107.304 43.5686C107.109 43.6536 106.866 43.6961 106.576 43.6961ZM105.421 41.2961H107.589C107.579 41.0361 107.524 40.8261 107.424 40.6661C107.324 40.5011 107.196 40.3786 107.041 40.2986C106.886 40.2186 106.721 40.1786 106.546 40.1786C106.231 40.1786 105.974 40.2811 105.774 40.4861C105.574 40.6861 105.456 40.9561 105.421 41.2961ZM109.109 43.6211V39.6461H109.821V40.2236H109.866C109.901 40.1636 109.959 40.0811 110.039 39.9761C110.124 39.8711 110.244 39.7786 110.399 39.6986C110.554 39.6136 110.749 39.5711 110.984 39.5711C111.274 39.5711 111.521 39.6386 111.726 39.7736C111.931 39.9036 112.086 40.0811 112.191 40.3061C112.301 40.5311 112.356 40.7836 112.356 41.0636V43.6211H111.644V41.1086C111.644 40.8436 111.569 40.6236 111.419 40.4486C111.274 40.2736 111.061 40.1861 110.781 40.1861C110.556 40.1861 110.374 40.2436 110.234 40.3586C110.094 40.4686 109.989 40.6161 109.919 40.8011C109.854 40.9811 109.821 41.1736 109.821 41.3786V43.6211H109.109ZM114.799 43.6961C114.389 43.6961 114.079 43.5911 113.869 43.3811C113.664 43.1711 113.561 42.8761 113.561 42.4961V40.2311H112.849V39.6461H113.561V38.6486H114.274V39.6461H115.241V40.2311H114.274V42.4961C114.274 42.6961 114.329 42.8436 114.439 42.9386C114.549 43.0286 114.709 43.0736 114.919 43.0736C115.029 43.0736 115.134 43.0661 115.234 43.0511C115.334 43.0361 115.384 43.0286 115.384 43.0286V43.6361C115.384 43.6361 115.326 43.6461 115.211 43.6661C115.096 43.6861 114.959 43.6961 114.799 43.6961ZM116.169 43.6211V39.6461H116.882V40.1411H116.912C116.997 39.9911 117.122 39.8586 117.287 39.7436C117.452 39.6286 117.684 39.5711 117.984 39.5711C118.069 39.5711 118.147 39.5761 118.217 39.5861C118.287 39.5911 118.322 39.5936 118.322 39.5936V40.2761C118.322 40.2761 118.282 40.2736 118.202 40.2686C118.127 40.2586 118.047 40.2536 117.962 40.2536C117.617 40.2536 117.349 40.3536 117.159 40.5536C116.974 40.7486 116.882 41.0686 116.882 41.5136V43.6211H116.169ZM120.464 43.6961C120.139 43.6961 119.856 43.6386 119.616 43.5236C119.381 43.4036 119.186 43.2436 119.031 43.0436C118.881 42.8436 118.769 42.6236 118.694 42.3836C118.619 42.1386 118.581 41.8886 118.581 41.6336C118.581 41.3836 118.616 41.1361 118.686 40.8911C118.761 40.6461 118.874 40.4236 119.024 40.2236C119.179 40.0236 119.371 39.8661 119.601 39.7511C119.836 39.6311 120.114 39.5711 120.434 39.5711C120.774 39.5711 121.074 39.6486 121.334 39.8036C121.594 39.9586 121.799 40.1886 121.949 40.4936C122.099 40.7986 122.174 41.1811 122.174 41.6411V41.8511H119.301C119.316 42.0761 119.369 42.2836 119.459 42.4736C119.554 42.6586 119.686 42.8086 119.856 42.9236C120.026 43.0336 120.229 43.0886 120.464 43.0886C120.669 43.0886 120.834 43.0561 120.959 42.9911C121.089 42.9211 121.191 42.8411 121.266 42.7511C121.341 42.6611 121.391 42.5836 121.416 42.5186C121.446 42.4486 121.461 42.4136 121.461 42.4136H122.129C122.129 42.4136 122.116 42.4586 122.091 42.5486C122.066 42.6336 122.021 42.7386 121.956 42.8636C121.891 42.9886 121.796 43.1161 121.671 43.2461C121.546 43.3711 121.386 43.4786 121.191 43.5686C120.996 43.6536 120.754 43.6961 120.464 43.6961ZM119.309 41.2961H121.476C121.466 41.0361 121.411 40.8261 121.311 40.6661C121.211 40.5011 121.084 40.3786 120.929 40.2986C120.774 40.2186 120.609 40.1786 120.434 40.1786C120.119 40.1786 119.861 40.2811 119.661 40.4861C119.461 40.6861 119.344 40.9561 119.309 41.2961ZM124.61 43.6961C124.2 43.6961 123.89 43.5911 123.68 43.3811C123.475 43.1711 123.373 42.8761 123.373 42.4961V40.2311H122.66V39.6461H123.373V38.6486H124.085V39.6461H125.053V40.2311H124.085V42.4961C124.085 42.6961 124.14 42.8436 124.25 42.9386C124.36 43.0286 124.52 43.0736 124.73 43.0736C124.84 43.0736 124.945 43.0661 125.045 43.0511C125.145 43.0361 125.195 43.0286 125.195 43.0286V43.6361C125.195 43.6361 125.138 43.6461 125.023 43.6661C124.908 43.6861 124.77 43.6961 124.61 43.6961ZM126.446 38.8886C126.311 38.8886 126.198 38.8436 126.108 38.7536C126.023 38.6636 125.981 38.5561 125.981 38.4311C125.981 38.3011 126.023 38.1911 126.108 38.1011C126.198 38.0111 126.311 37.9661 126.446 37.9661C126.576 37.9661 126.686 38.0111 126.776 38.1011C126.866 38.1911 126.911 38.3011 126.911 38.4311C126.911 38.5561 126.866 38.6636 126.776 38.7536C126.686 38.8436 126.576 38.8886 126.446 38.8886ZM126.093 43.6211V39.6461H126.806V43.6211H126.093ZM129.616 43.6961C129.291 43.6961 129.008 43.6386 128.768 43.5236C128.533 43.4036 128.338 43.2436 128.183 43.0436C128.033 42.8436 127.921 42.6236 127.846 42.3836C127.771 42.1386 127.733 41.8886 127.733 41.6336C127.733 41.3836 127.768 41.1361 127.838 40.8911C127.913 40.6461 128.026 40.4236 128.176 40.2236C128.331 40.0236 128.523 39.8661 128.753 39.7511C128.988 39.6311 129.266 39.5711 129.586 39.5711C129.926 39.5711 130.226 39.6486 130.486 39.8036C130.746 39.9586 130.951 40.1886 131.101 40.4936C131.251 40.7986 131.326 41.1811 131.326 41.6411V41.8511H128.453C128.468 42.0761 128.521 42.2836 128.611 42.4736C128.706 42.6586 128.838 42.8086 129.008 42.9236C129.178 43.0336 129.381 43.0886 129.616 43.0886C129.821 43.0886 129.986 43.0561 130.111 42.9911C130.241 42.9211 130.343 42.8411 130.418 42.7511C130.493 42.6611 130.543 42.5836 130.568 42.5186C130.598 42.4486 130.613 42.4136 130.613 42.4136H131.281C131.281 42.4136 131.268 42.4586 131.243 42.5486C131.218 42.6336 131.173 42.7386 131.108 42.8636C131.043 42.9886 130.948 43.1161 130.823 43.2461C130.698 43.3711 130.538 43.4786 130.343 43.5686C130.148 43.6536 129.906 43.6961 129.616 43.6961ZM128.461 41.2961H130.628C130.618 41.0361 130.563 40.8261 130.463 40.6661C130.363 40.5011 130.236 40.3786 130.081 40.2986C129.926 40.2186 129.761 40.1786 129.586 40.1786C129.271 40.1786 129.013 40.2811 128.813 40.4861C128.613 40.6861 128.496 40.9561 128.461 41.2961ZM132.148 43.6211V39.6461H132.86V40.2236H132.905C132.94 40.1636 132.998 40.0811 133.078 39.9761C133.163 39.8711 133.283 39.7786 133.438 39.6986C133.593 39.6136 133.788 39.5711 134.023 39.5711C134.313 39.5711 134.56 39.6386 134.765 39.7736C134.97 39.9036 135.125 40.0811 135.23 40.3061C135.34 40.5311 135.395 40.7836 135.395 41.0636V43.6211H134.683V41.1086C134.683 40.8436 134.608 40.6236 134.458 40.4486C134.313 40.2736 134.1 40.1861 133.82 40.1861C133.595 40.1861 133.413 40.2436 133.273 40.3586C133.133 40.4686 133.028 40.6161 132.958 40.8011C132.893 40.9811 132.86 41.1736 132.86 41.3786V43.6211H132.148Z" fill="#111D15"/>
</svg>
