<svg width="137" height="47" viewBox="0 0 137 47" fill="none" xmlns="http://www.w3.org/2000/svg">
<path d="M129.582 31.129C128.33 31.129 127.247 30.9264 126.33 30.5211C125.414 30.0981 124.647 29.5431 124.031 28.8558C123.432 28.151 122.982 27.3668 122.683 26.5033C122.401 25.6399 122.26 24.75 122.26 23.8337C122.26 22.9526 122.401 22.0803 122.683 21.2169C122.965 20.3534 123.396 19.578 123.978 18.8908C124.559 18.1859 125.299 17.6309 126.198 17.2256C127.115 16.8026 128.198 16.5912 129.449 16.5912C130.789 16.5912 131.96 16.8819 132.965 17.4635C133.987 18.0273 134.78 18.8644 135.344 19.9745C135.925 21.0671 136.216 22.3975 136.216 23.9658C136.216 24.5498 135.743 25.0231 135.159 25.0231H128.893C127.766 25.0231 126.848 26.0627 127.573 26.9263C128.048 27.4549 128.718 27.7192 129.582 27.7192C130.234 27.7192 130.727 27.6047 131.062 27.3756C131.414 27.1289 131.652 26.8822 131.775 26.6355C131.889 26.4087 132.121 26.2654 132.374 26.2654H135.591C135.854 26.2654 136.045 26.5138 135.978 26.7677C135.89 27.0849 135.723 27.4901 135.476 27.9836C135.229 28.4593 134.868 28.9439 134.392 29.4373C133.916 29.9131 133.282 30.3184 132.489 30.6532C131.714 30.9704 130.745 31.129 129.582 31.129ZM127.599 20.5296C126.755 21.28 127.75 22.4063 128.879 22.4063H129.796C130.933 22.4063 131.964 21.2848 131.115 20.5296C130.656 20.1067 130.075 19.8952 129.37 19.8952C128.683 19.8952 128.093 20.1067 127.599 20.5296Z" fill="#111D15"/>
<path d="M114.746 30.8647C113.497 30.8647 112.486 29.8529 112.486 28.6047V19.089C112.486 17.8555 113.486 16.8555 114.719 16.8555H115.895C116.479 16.8555 116.953 17.3289 116.953 17.9128V18.8762C116.953 18.9281 116.995 18.9701 117.047 18.9701C117.086 18.9701 117.12 18.946 117.135 18.9098C117.274 18.5608 117.469 18.2197 117.719 17.8864C118.001 17.5163 118.389 17.2079 118.882 16.9612C119.376 16.7145 120.028 16.5912 120.838 16.5912C121.226 16.5912 121.534 16.6176 121.763 16.6705C121.965 16.7169 122.107 16.896 122.107 17.1024V20.8384C122.107 21.0332 121.927 21.1784 121.737 21.1376C121.49 21.0847 121.147 21.0583 120.706 21.0583C119.455 21.0583 118.521 21.3931 117.904 22.0627C117.305 22.7323 117.006 23.8249 117.006 25.3403V28.6047C117.006 29.8529 115.994 30.8647 114.746 30.8647Z" fill="#111D15"/>
<path d="M98.5463 36.019C97.2982 36.019 96.2864 35.0072 96.2864 33.759V19.1155C96.2864 17.8673 97.2982 16.8555 98.5463 16.8555H99.9737C100.434 16.8555 100.806 17.2283 100.806 17.6881V18.3901C100.806 18.4622 100.865 18.5208 100.937 18.5208C100.987 18.5208 101.032 18.4931 101.061 18.453C101.132 18.3551 101.276 18.1838 101.494 17.9392C101.776 17.6221 102.207 17.3225 102.789 17.0405C103.37 16.741 104.11 16.5912 105.009 16.5912C106.049 16.5912 106.947 16.8026 107.705 17.2256C108.463 17.6309 109.088 18.1859 109.582 18.8908C110.093 19.578 110.472 20.3534 110.718 21.2169C110.983 22.0803 111.115 22.9614 111.115 23.8601C111.115 24.7588 110.983 25.6399 110.718 26.5033C110.472 27.3668 110.093 28.151 109.582 28.8558C109.088 29.5431 108.463 30.0981 107.705 30.5211C106.947 30.9264 106.049 31.129 105.009 31.129C104.11 31.129 103.37 30.9792 102.789 30.6797C102.207 30.3801 101.776 30.0805 101.494 29.781C101.276 29.5364 101.132 29.3651 101.061 29.2672C101.032 29.2271 100.987 29.1994 100.937 29.1994C100.865 29.1994 100.806 29.258 100.806 29.3301V33.759C100.806 35.0072 99.7945 36.019 98.5463 36.019ZM100.674 23.8601C100.674 24.4592 100.78 25.0407 100.991 25.6046C101.203 26.1509 101.529 26.6091 101.969 26.9791C102.41 27.3316 102.956 27.5078 103.608 27.5078C104.26 27.5078 104.806 27.3316 105.247 26.9791C105.687 26.6091 106.013 26.1509 106.225 25.6046C106.436 25.0407 106.542 24.4592 106.542 23.8601C106.542 23.261 106.436 22.6883 106.225 22.142C106.013 21.5781 105.687 21.1199 105.247 20.7675C104.806 20.3975 104.26 20.2124 103.608 20.2124C102.956 20.2124 102.41 20.3975 101.969 20.7675C101.529 21.1199 101.203 21.5781 100.991 22.142C100.78 22.6883 100.674 23.261 100.674 23.8601Z" fill="#111D15"/>
<path d="M87.3451 31.129C85.7592 31.129 84.4111 30.7942 83.301 30.1246C82.1908 29.455 81.3361 28.5651 80.737 27.4549C80.1555 26.3447 79.8647 25.1465 79.8647 23.8601C79.8647 22.5737 80.1555 21.3755 80.737 20.2653C81.3361 19.1551 82.1908 18.2652 83.301 17.5956C84.4111 16.926 85.7592 16.5912 87.3451 16.5912C88.9487 16.5912 90.3055 16.926 91.4157 17.5956C92.5259 18.2652 93.3717 19.1551 93.9532 20.2653C94.5524 21.3755 94.8519 22.5737 94.8519 23.8601C94.8519 25.1465 94.5524 26.3447 93.9532 27.4549C93.3717 28.5651 92.5259 29.455 91.4157 30.1246C90.3055 30.7942 88.9487 31.129 87.3451 31.129ZM87.3451 27.4813C88.2791 27.4813 89.0015 27.1289 89.5126 26.424C90.0412 25.7016 90.3055 24.8469 90.3055 23.8601C90.3055 22.8733 90.0412 22.0275 89.5126 21.3226C89.0015 20.6001 88.2791 20.2389 87.3451 20.2389C86.4288 20.2389 85.7063 20.6001 85.1777 21.3226C84.649 22.0275 84.3847 22.8733 84.3847 23.8601C84.3847 24.8469 84.649 25.7016 85.1777 26.424C85.7063 27.1289 86.4288 27.4813 87.3451 27.4813Z" fill="#111D15"/>
<path d="M72.3505 30.8647C71.1024 30.8647 70.0906 29.8529 70.0906 28.6047V19.089C70.0906 17.8555 71.0906 16.8555 72.3241 16.8555H73.5004C74.0843 16.8555 74.5577 17.3289 74.5577 17.9128V18.8762C74.5577 18.9281 74.5997 18.9701 74.6515 18.9701C74.6905 18.9701 74.7253 18.946 74.7398 18.9098C74.8794 18.5608 75.0742 18.2197 75.3242 17.8864C75.6061 17.5163 75.9938 17.2079 76.4872 16.9612C76.9806 16.7145 77.6326 16.5912 78.4432 16.5912C78.8309 16.5912 79.1393 16.6176 79.3683 16.6705C79.5695 16.7169 79.712 16.896 79.712 17.1024V20.8384C79.712 21.0332 79.5324 21.1784 79.3419 21.1376C79.0952 21.0847 78.7516 21.0583 78.3111 21.0583C77.0599 21.0583 76.126 21.3931 75.5092 22.0627C74.9101 22.7323 74.6105 23.8249 74.6105 25.3403V28.6047C74.6105 29.8529 73.5987 30.8647 72.3505 30.8647Z" fill="#111D15"/>
<path d="M56.1513 36.019C54.9032 36.019 53.8914 35.0072 53.8914 33.759V19.1155C53.8914 17.8673 54.9032 16.8555 56.1513 16.8555H57.5787C58.0385 16.8555 58.4113 17.2283 58.4113 17.6881V18.3901C58.4113 18.4622 58.4698 18.5208 58.542 18.5208C58.5915 18.5208 58.6374 18.4931 58.6663 18.453C58.7371 18.3551 58.8811 18.1838 59.0985 17.9392C59.3805 17.6221 59.8122 17.3225 60.3937 17.0405C60.9752 16.741 61.7153 16.5912 62.614 16.5912C63.6537 16.5912 64.5524 16.8026 65.3102 17.2256C66.0679 17.6309 66.6934 18.1859 67.1869 18.8908C67.6979 19.578 68.0767 20.3534 68.3234 21.2169C68.5878 22.0803 68.7199 22.9614 68.7199 23.8601C68.7199 24.7588 68.5878 25.6399 68.3234 26.5033C68.0767 27.3668 67.6979 28.151 67.1869 28.8558C66.6934 29.5431 66.0679 30.0981 65.3102 30.5211C64.5524 30.9264 63.6537 31.129 62.614 31.129C61.7153 31.129 60.9752 30.9792 60.3937 30.6797C59.8122 30.3801 59.3805 30.0805 59.0985 29.781C58.8811 29.5364 58.7371 29.3651 58.6663 29.2672C58.6374 29.2271 58.5915 29.1994 58.542 29.1994C58.4698 29.1994 58.4113 29.258 58.4113 29.3301V33.759C58.4113 35.0072 57.3995 36.019 56.1513 36.019ZM58.2791 23.8601C58.2791 24.4592 58.3849 25.0407 58.5963 25.6046C58.8078 26.1509 59.1338 26.6091 59.5743 26.9791C60.0149 27.3316 60.5611 27.5078 61.2131 27.5078C61.8651 27.5078 62.4114 27.3316 62.8519 26.9791C63.2925 26.6091 63.6185 26.1509 63.8299 25.6046C64.0414 25.0407 64.1471 24.4592 64.1471 23.8601C64.1471 23.261 64.0414 22.6883 63.8299 22.142C63.6185 21.5781 63.2925 21.1199 62.8519 20.7675C62.4114 20.3975 61.8651 20.2124 61.2131 20.2124C60.5611 20.2124 60.0149 20.3975 59.5743 20.7675C59.1338 21.1199 58.8078 21.5781 58.5963 22.142C58.3849 22.6883 58.2791 23.261 58.2791 23.8601Z" fill="#111D15"/>
<path d="M25.5156 30.8647C24.2674 30.8647 23.2556 29.8529 23.2556 28.6047V19.1155C23.2556 17.8674 24.2674 16.8555 25.5156 16.8555H26.8372C27.3554 16.8555 27.7756 17.2757 27.7756 17.7939V18.6322C27.7756 18.6874 27.8204 18.7322 27.8756 18.7322C27.9118 18.7322 27.945 18.7127 27.9632 18.6814C28.2791 18.1387 28.7276 17.6622 29.3086 17.252C29.9254 16.8115 30.7272 16.5912 31.714 16.5912C32.7713 16.5912 33.6083 16.8379 34.2251 17.3313C34.8473 17.798 35.2915 18.3749 35.5577 19.0619C35.5671 19.0861 35.5903 19.1023 35.6163 19.1023C35.6386 19.1023 35.6592 19.0903 35.6705 19.071C35.8803 18.7109 36.1651 18.3425 36.5247 17.9657C36.9124 17.578 37.3881 17.252 37.952 16.9877C38.5159 16.7234 39.1855 16.5912 39.9609 16.5912C40.9301 16.5912 41.7142 16.8115 42.3134 17.252C42.9301 17.6749 43.3795 18.2212 43.6614 18.8908C43.961 19.5605 44.1108 20.2565 44.1108 20.979V28.6047C44.1108 29.8529 43.099 30.8647 41.8508 30.8647C40.6027 30.8647 39.5908 29.8529 39.5908 28.6047V22.3006C39.5908 21.7191 39.4411 21.2345 39.1415 20.8468C38.8419 20.4592 38.3926 20.2653 37.7934 20.2653C37.1414 20.2653 36.6657 20.4856 36.3661 20.9261C36.0841 21.3667 35.9432 21.8689 35.9432 22.4328V28.6047C35.9432 29.8529 34.9313 30.8647 33.6832 30.8647C32.4351 30.8647 31.4232 29.8529 31.4232 28.6047V22.3006C31.4232 21.7367 31.2734 21.2609 30.9739 20.8733C30.6919 20.468 30.2426 20.2653 29.6258 20.2653C28.9738 20.2653 28.498 20.4944 28.1985 20.9526C27.9165 21.3931 27.7756 21.8865 27.7756 22.4328V28.6047C27.7756 29.8529 26.7637 30.8647 25.5156 30.8647Z" fill="#32D1E6"/>
<circle cx="8.34826" cy="15.3756" r="5.1473" transform="rotate(43.9152 8.34826 15.3756)" fill="#32D1E6"/>
<circle cx="15.9604" cy="26.6173" r="3.86547" transform="rotate(43.9152 15.9604 26.6173)" fill="#32D1E6"/>
<circle cx="26.554" cy="10.6222" r="1.79917" transform="rotate(43.9152 26.554 10.6222)" fill="#32D1E6"/>
<circle cx="46.8973" cy="7.68369" r="3.10182" transform="rotate(43.9152 46.8973 7.68369)" fill="#32D1E6"/>
<circle cx="46.6142" cy="33.1959" r="2.12259" transform="rotate(43.9152 46.6142 33.1959)" fill="#32D1E6"/>
<circle cx="51.0255" cy="24.7733" r="4.62869" transform="rotate(43.9152 51.0255 24.7733)" fill="#32D1E6"/>
<path d="M6.71219 44.2011C6.24819 44.2011 5.84019 44.1158 5.48819 43.9451C5.13619 43.7691 4.84286 43.5371 4.60819 43.2491C4.37886 42.9558 4.20552 42.6304 4.08819 42.2731C3.97086 41.9104 3.91219 41.5398 3.91219 41.1611C3.91219 40.7824 3.97086 40.4118 4.08819 40.0491C4.20552 39.6864 4.37886 39.3611 4.60819 39.0731C4.84286 38.7798 5.13619 38.5478 5.48819 38.3771C5.84019 38.2064 6.24819 38.1211 6.71219 38.1211C7.09619 38.1211 7.42419 38.1718 7.69619 38.2731C7.97352 38.3691 8.20286 38.4944 8.38419 38.6491C8.57086 38.8038 8.72019 38.9691 8.83219 39.1451C8.94952 39.3211 9.03486 39.4864 9.08819 39.6411C9.14686 39.7958 9.18419 39.9238 9.20019 40.0251C9.22152 40.1211 9.23219 40.1691 9.23219 40.1691H8.44819C8.44819 40.1691 8.43752 40.1264 8.41619 40.0411C8.39486 39.9504 8.35219 39.8411 8.28819 39.7131C8.22419 39.5798 8.12819 39.4464 8.00019 39.3131C7.87219 39.1798 7.70419 39.0704 7.49619 38.9851C7.28819 38.8944 7.02952 38.8491 6.72019 38.8491C6.38419 38.8491 6.09086 38.9158 5.84019 39.0491C5.58952 39.1771 5.37886 39.3531 5.20819 39.5771C5.04286 39.7958 4.91752 40.0438 4.83219 40.3211C4.75219 40.5931 4.71219 40.8731 4.71219 41.1611C4.71219 41.4491 4.75219 41.7318 4.83219 42.0091C4.91752 42.2811 5.04286 42.5291 5.20819 42.7531C5.37886 42.9718 5.58952 43.1478 5.84019 43.2811C6.09086 43.4091 6.38419 43.4731 6.72019 43.4731C7.02952 43.4731 7.28819 43.4278 7.49619 43.3371C7.70419 43.2464 7.87219 43.1371 8.00019 43.0091C8.12819 42.8758 8.22419 42.7451 8.28819 42.6171C8.35219 42.4838 8.39486 42.3718 8.41619 42.2811C8.43752 42.1904 8.44819 42.1451 8.44819 42.1451H9.23219C9.23219 42.1451 9.22152 42.1958 9.20019 42.2971C9.18419 42.3931 9.14686 42.5211 9.08819 42.6811C9.03486 42.8358 8.94952 43.0011 8.83219 43.1771C8.72019 43.3478 8.57086 43.5131 8.38419 43.6731C8.20286 43.8278 7.97352 43.9558 7.69619 44.0571C7.42419 44.1531 7.09619 44.2011 6.71219 44.2011ZM12.0833 44.2011C11.63 44.2011 11.2486 44.0971 10.9393 43.8891C10.63 43.6758 10.3953 43.4011 10.2353 43.0651C10.0753 42.7291 9.99532 42.3744 9.99532 42.0011C9.99532 41.6224 10.0753 41.2678 10.2353 40.9371C10.3953 40.6011 10.63 40.3291 10.9393 40.1211C11.2486 39.9078 11.63 39.8011 12.0833 39.8011C12.5366 39.8011 12.918 39.9078 13.2273 40.1211C13.5366 40.3291 13.7713 40.6011 13.9313 40.9371C14.0913 41.2678 14.1713 41.6224 14.1713 42.0011C14.1713 42.3744 14.0913 42.7291 13.9313 43.0651C13.7713 43.4011 13.5366 43.6758 13.2273 43.8891C12.918 44.0971 12.5366 44.2011 12.0833 44.2011ZM12.0833 43.5371C12.3713 43.5371 12.6113 43.4651 12.8033 43.3211C13.0006 43.1718 13.1473 42.9798 13.2433 42.7451C13.3446 42.5104 13.3953 42.2624 13.3953 42.0011C13.3953 41.7344 13.3446 41.4864 13.2433 41.2571C13.1473 41.0224 13.0006 40.8331 12.8033 40.6891C12.6113 40.5398 12.3713 40.4651 12.0833 40.4651C11.8006 40.4651 11.5606 40.5398 11.3633 40.6891C11.166 40.8331 11.0166 41.0224 10.9153 41.2571C10.8193 41.4864 10.7713 41.7344 10.7713 42.0011C10.7713 42.2624 10.8193 42.5104 10.9153 42.7451C11.0166 42.9798 11.166 43.1718 11.3633 43.3211C11.5606 43.4651 11.8006 43.5371 12.0833 43.5371ZM15.0481 44.1211V39.8811H15.8081V40.4971H15.8561C15.8935 40.4331 15.9548 40.3451 16.0401 40.2331C16.1308 40.1211 16.2588 40.0224 16.4241 39.9371C16.5895 39.8464 16.7975 39.8011 17.0481 39.8011C17.3575 39.8011 17.6215 39.8731 17.8401 40.0171C18.0588 40.1558 18.2241 40.3451 18.3361 40.5851C18.4535 40.8251 18.5121 41.0944 18.5121 41.3931V44.1211H17.7521V41.4411C17.7521 41.1584 17.6721 40.9238 17.5121 40.7371C17.3575 40.5504 17.1308 40.4571 16.8321 40.4571C16.5921 40.4571 16.3975 40.5184 16.2481 40.6411C16.0988 40.7584 15.9868 40.9158 15.9121 41.1131C15.8428 41.3051 15.8081 41.5104 15.8081 41.7291V44.1211H15.0481ZM21.4821 44.2011C21.1354 44.2011 20.8314 44.1398 20.5701 44.0171C20.3087 43.8891 20.0901 43.7211 19.9141 43.5131C19.7434 43.2998 19.6127 43.0624 19.5221 42.8011C19.4367 42.5398 19.3941 42.2731 19.3941 42.0011C19.3941 41.7291 19.4367 41.4651 19.5221 41.2091C19.6074 40.9478 19.7354 40.7104 19.9061 40.4971C20.0821 40.2838 20.3007 40.1158 20.5621 39.9931C20.8234 39.8651 21.1301 39.8011 21.4821 39.8011C21.8234 39.8011 22.1061 39.8518 22.3301 39.9531C22.5541 40.0544 22.7327 40.1824 22.8661 40.3371C23.0047 40.4864 23.1061 40.6384 23.1701 40.7931C23.2394 40.9424 23.2847 41.0678 23.3061 41.1691C23.3274 41.2704 23.3381 41.3211 23.3381 41.3211H22.6021C22.6021 41.3211 22.5887 41.2784 22.5621 41.1931C22.5354 41.1024 22.4847 41.0011 22.4101 40.8891C22.3354 40.7771 22.2234 40.6784 22.0741 40.5931C21.9247 40.5024 21.7274 40.4571 21.4821 40.4571C21.1887 40.4571 20.9407 40.5318 20.7381 40.6811C20.5407 40.8251 20.3914 41.0144 20.2901 41.2491C20.1941 41.4838 20.1461 41.7344 20.1461 42.0011C20.1461 42.2678 20.1941 42.5184 20.2901 42.7531C20.3914 42.9878 20.5407 43.1798 20.7381 43.3291C20.9407 43.4731 21.1887 43.5451 21.4821 43.5451C21.7274 43.5451 21.9247 43.5024 22.0741 43.4171C22.2234 43.3264 22.3354 43.2251 22.4101 43.1131C22.4847 43.0011 22.5354 42.9024 22.5621 42.8171C22.5887 42.7264 22.6021 42.6811 22.6021 42.6811H23.3381C23.3381 42.6811 23.3274 42.7318 23.3061 42.8331C23.2847 42.9344 23.2394 43.0624 23.1701 43.2171C23.1061 43.3664 23.0047 43.5184 22.8661 43.6731C22.7327 43.8224 22.5541 43.9478 22.3301 44.0491C22.1061 44.1504 21.8234 44.2011 21.4821 44.2011ZM24.7163 39.0731C24.5723 39.0731 24.4523 39.0251 24.3563 38.9291C24.2656 38.8331 24.2203 38.7184 24.2203 38.5851C24.2203 38.4464 24.2656 38.3291 24.3563 38.2331C24.4523 38.1371 24.5723 38.0891 24.7163 38.0891C24.855 38.0891 24.9723 38.1371 25.0683 38.2331C25.1643 38.3291 25.2123 38.4464 25.2123 38.5851C25.2123 38.7184 25.1643 38.8331 25.0683 38.9291C24.9723 39.0251 24.855 39.0731 24.7163 39.0731ZM24.3403 44.1211V39.8811H25.1003V44.1211H24.3403ZM28.0977 44.2011C27.751 44.2011 27.4497 44.1398 27.1937 44.0171C26.943 43.8891 26.735 43.7184 26.5697 43.5051C26.4097 43.2918 26.2897 43.0571 26.2097 42.8011C26.1297 42.5398 26.0897 42.2731 26.0897 42.0011C26.0897 41.7344 26.127 41.4704 26.2017 41.2091C26.2817 40.9478 26.4017 40.7104 26.5617 40.4971C26.727 40.2838 26.9324 40.1158 27.1777 39.9931C27.4284 39.8651 27.7244 39.8011 28.0657 39.8011C28.4284 39.8011 28.7484 39.8838 29.0257 40.0491C29.303 40.2144 29.5217 40.4598 29.6817 40.7851C29.8417 41.1104 29.9217 41.5184 29.9217 42.0091V42.2331H26.8577C26.8737 42.4731 26.9297 42.6944 27.0257 42.8971C27.127 43.0944 27.2684 43.2544 27.4497 43.3771C27.631 43.4944 27.847 43.5531 28.0977 43.5531C28.3164 43.5531 28.4924 43.5184 28.6257 43.4491C28.7644 43.3744 28.8737 43.2891 28.9537 43.1931C29.0337 43.0971 29.087 43.0144 29.1137 42.9451C29.1457 42.8704 29.1617 42.8331 29.1617 42.8331H29.8737C29.8737 42.8331 29.8604 42.8811 29.8337 42.9771C29.807 43.0678 29.759 43.1798 29.6897 43.3131C29.6204 43.4464 29.519 43.5824 29.3857 43.7211C29.2524 43.8544 29.0817 43.9691 28.8737 44.0651C28.6657 44.1558 28.407 44.2011 28.0977 44.2011ZM26.8657 41.6411H29.1777C29.167 41.3638 29.1084 41.1398 29.0017 40.9691C28.895 40.7931 28.759 40.6624 28.5937 40.5771C28.4284 40.4918 28.2524 40.4491 28.0657 40.4491C27.7297 40.4491 27.455 40.5584 27.2417 40.7771C27.0284 40.9904 26.903 41.2784 26.8657 41.6411ZM30.7988 44.1211V39.8811H31.5588V40.4091H31.5908C31.6814 40.2491 31.8148 40.1078 31.9908 39.9851C32.1668 39.8624 32.4148 39.8011 32.7348 39.8011C32.8254 39.8011 32.9081 39.8064 32.9828 39.8171C33.0574 39.8224 33.0948 39.8251 33.0948 39.8251V40.5531C33.0948 40.5531 33.0521 40.5504 32.9668 40.5451C32.8868 40.5344 32.8014 40.5291 32.7108 40.5291C32.3428 40.5291 32.0574 40.6358 31.8548 40.8491C31.6574 41.0571 31.5588 41.3984 31.5588 41.8731V44.1211H30.7988ZM35.4913 45.8011C35.1393 45.8011 34.8459 45.7531 34.6113 45.6571C34.3766 45.5664 34.1873 45.4491 34.0433 45.3051C33.9046 45.1664 33.8006 45.0278 33.7313 44.8891C33.6619 44.7504 33.6166 44.6331 33.5953 44.5371C33.5739 44.4464 33.5633 44.4011 33.5633 44.4011H34.3233C34.3233 44.4011 34.3366 44.4384 34.3633 44.5131C34.3899 44.5878 34.4406 44.6731 34.5153 44.7691C34.5953 44.8651 34.7126 44.9504 34.8673 45.0251C35.0219 45.0998 35.2299 45.1371 35.4913 45.1371C35.8006 45.1371 36.0433 45.0758 36.2193 44.9531C36.3953 44.8358 36.5206 44.6811 36.5953 44.4891C36.6753 44.2971 36.7153 44.0944 36.7153 43.8811V43.3931H36.6753C36.6219 43.4838 36.5366 43.5878 36.4193 43.7051C36.3073 43.8171 36.1579 43.9158 35.9713 44.0011C35.7846 44.0811 35.5553 44.1211 35.2833 44.1211C34.9633 44.1211 34.6833 44.0598 34.4433 43.9371C34.2033 43.8144 34.0033 43.6491 33.8433 43.4411C33.6886 43.2331 33.5713 43.0011 33.4913 42.7451C33.4113 42.4891 33.3713 42.2278 33.3713 41.9611C33.3713 41.6944 33.4113 41.4331 33.4913 41.1771C33.5713 40.9211 33.6886 40.6891 33.8433 40.4811C34.0033 40.2731 34.2033 40.1078 34.4433 39.9851C34.6833 39.8624 34.9633 39.8011 35.2833 39.8011C35.5553 39.8011 35.7846 39.8438 35.9713 39.9291C36.1579 40.0091 36.3073 40.1051 36.4193 40.2171C36.5366 40.3291 36.6219 40.4331 36.6753 40.5291H36.7153V39.8811H37.4753V43.8731C37.4753 44.4651 37.3019 44.9344 36.9553 45.2811C36.6139 45.6278 36.1259 45.8011 35.4913 45.8011ZM35.4273 43.4731C35.7099 43.4731 35.9446 43.4011 36.1313 43.2571C36.3233 43.1078 36.4646 42.9184 36.5553 42.6891C36.6513 42.4598 36.6993 42.2171 36.6993 41.9611C36.6993 41.7051 36.6513 41.4624 36.5553 41.2331C36.4646 40.9984 36.3233 40.8091 36.1313 40.6651C35.9446 40.5211 35.7099 40.4491 35.4273 40.4491C35.1446 40.4491 34.9073 40.5211 34.7153 40.6651C34.5233 40.8091 34.3793 40.9984 34.2833 41.2331C34.1926 41.4624 34.1473 41.7051 34.1473 41.9611C34.1473 42.2171 34.1926 42.4598 34.2833 42.6891C34.3793 42.9184 34.5233 43.1078 34.7153 43.2571C34.9073 43.4011 35.1446 43.4731 35.4273 43.4731ZM40.2036 44.2011C39.857 44.2011 39.5556 44.1398 39.2996 44.0171C39.049 43.8891 38.841 43.7184 38.6756 43.5051C38.5156 43.2918 38.3956 43.0571 38.3156 42.8011C38.2356 42.5398 38.1956 42.2731 38.1956 42.0011C38.1956 41.7344 38.233 41.4704 38.3076 41.2091C38.3876 40.9478 38.5076 40.7104 38.6676 40.4971C38.833 40.2838 39.0383 40.1158 39.2836 39.9931C39.5343 39.8651 39.8303 39.8011 40.1716 39.8011C40.5343 39.8011 40.8543 39.8838 41.1316 40.0491C41.409 40.2144 41.6276 40.4598 41.7876 40.7851C41.9476 41.1104 42.0276 41.5184 42.0276 42.0091V42.2331H38.9636C38.9796 42.4731 39.0356 42.6944 39.1316 42.8971C39.233 43.0944 39.3743 43.2544 39.5556 43.3771C39.737 43.4944 39.953 43.5531 40.2036 43.5531C40.4223 43.5531 40.5983 43.5184 40.7316 43.4491C40.8703 43.3744 40.9796 43.2891 41.0596 43.1931C41.1396 43.0971 41.193 43.0144 41.2196 42.9451C41.2516 42.8704 41.2676 42.8331 41.2676 42.8331H41.9796C41.9796 42.8331 41.9663 42.8811 41.9396 42.9771C41.913 43.0678 41.865 43.1798 41.7956 43.3131C41.7263 43.4464 41.625 43.5824 41.4916 43.7211C41.3583 43.8544 41.1876 43.9691 40.9796 44.0651C40.7716 44.1558 40.513 44.2011 40.2036 44.2011ZM38.9716 41.6411H41.2836C41.273 41.3638 41.2143 41.1398 41.1076 40.9691C41.001 40.7931 40.865 40.6624 40.6996 40.5771C40.5343 40.4918 40.3583 40.4491 40.1716 40.4491C39.8356 40.4491 39.561 40.5584 39.3476 40.7771C39.1343 40.9904 39.009 41.2784 38.9716 41.6411ZM46.5644 44.2011C46.1964 44.2011 45.8578 44.1344 45.5484 44.0011C45.2391 43.8678 44.9911 43.6758 44.8044 43.4251C44.6178 43.1744 44.5244 42.8704 44.5244 42.5131C44.5244 42.1291 44.6364 41.8011 44.8604 41.5291C45.0898 41.2518 45.3858 41.0091 45.7484 40.8011L45.6844 40.7291C45.5458 40.5691 45.4178 40.3904 45.3004 40.1931C45.1831 39.9958 45.1244 39.7558 45.1244 39.4731C45.1244 39.1744 45.1911 38.9264 45.3244 38.7291C45.4631 38.5264 45.6418 38.3744 45.8604 38.2731C46.0791 38.1718 46.3084 38.1211 46.5484 38.1211C46.7884 38.1211 47.0124 38.1691 47.2204 38.2651C47.4338 38.3611 47.6044 38.5024 47.7324 38.6891C47.8658 38.8758 47.9324 39.1051 47.9324 39.3771C47.9324 39.6971 47.8311 39.9878 47.6284 40.2491C47.4258 40.5104 47.1378 40.7344 46.7644 40.9211L48.2044 42.5451C48.3164 42.3264 48.4044 42.0651 48.4684 41.7611C48.5324 41.4571 48.5644 41.1104 48.5644 40.7211H49.2124C49.2124 41.2278 49.1618 41.6758 49.0604 42.0651C48.9644 42.4544 48.8311 42.7878 48.6604 43.0651L49.5884 44.1131H48.6284L48.1964 43.6171C47.9671 43.8144 47.7138 43.9611 47.4364 44.0571C47.1591 44.1531 46.8684 44.2011 46.5644 44.2011ZM46.2924 40.3851L46.3804 40.4811L46.4364 40.4571C46.6924 40.3344 46.8924 40.1851 47.0364 40.0091C47.1858 39.8278 47.2604 39.6304 47.2604 39.4171C47.2604 39.1931 47.1884 39.0224 47.0444 38.9051C46.9058 38.7824 46.7431 38.7211 46.5564 38.7211C46.3591 38.7211 46.1831 38.7878 46.0284 38.9211C45.8791 39.0491 45.8044 39.2251 45.8044 39.4491C45.8044 39.6091 45.8471 39.7611 45.9324 39.9051C46.0178 40.0491 46.1378 40.2091 46.2924 40.3851ZM45.2444 42.4491C45.2444 42.6838 45.3058 42.8864 45.4284 43.0571C45.5511 43.2224 45.7138 43.3478 45.9164 43.4331C46.1244 43.5184 46.3538 43.5611 46.6044 43.5611C46.8231 43.5611 47.0311 43.5264 47.2284 43.4571C47.4311 43.3878 47.6124 43.2784 47.7724 43.1291L46.1244 41.2331C45.8631 41.3824 45.6498 41.5558 45.4844 41.7531C45.3244 41.9504 45.2444 42.1824 45.2444 42.4491ZM52.0341 44.1211V39.8811H52.7941V40.4971H52.8261C52.8687 40.4171 52.9354 40.3238 53.0261 40.2171C53.1167 40.1051 53.2394 40.0091 53.3941 39.9291C53.5541 39.8438 53.7541 39.8011 53.9941 39.8011C54.3087 39.8011 54.5727 39.8784 54.7861 40.0331C55.0047 40.1824 55.1674 40.3851 55.2741 40.6411H55.2821C55.3994 40.4064 55.5647 40.2091 55.7781 40.0491C55.9967 39.8838 56.2794 39.8011 56.6261 39.8011C57.0847 39.8011 57.4367 39.9584 57.6821 40.2731C57.9327 40.5824 58.0581 40.9824 58.0581 41.4731V44.1211H57.2981V41.5131C57.2981 41.1984 57.2234 40.9451 57.0741 40.7531C56.9247 40.5558 56.7087 40.4571 56.4261 40.4571C56.1807 40.4571 55.9834 40.5238 55.8341 40.6571C55.6901 40.7904 55.5861 40.9558 55.5221 41.1531C55.4581 41.3504 55.4261 41.5478 55.4261 41.7451V44.1211H54.6661V41.5131C54.6661 41.1984 54.5914 40.9451 54.4421 40.7531C54.2981 40.5558 54.0821 40.4571 53.7941 40.4571C53.5487 40.4571 53.3514 40.5238 53.2021 40.6571C53.0581 40.7904 52.9541 40.9584 52.8901 41.1611C52.8261 41.3584 52.7941 41.5531 52.7941 41.7451V44.1211H52.0341ZM60.8547 39.8011C61.1214 39.8011 61.3454 39.8438 61.5267 39.9291C61.708 40.0144 61.8547 40.1158 61.9667 40.2331C62.0787 40.3451 62.164 40.4518 62.2227 40.5531H62.2707V39.8811H63.0307V44.1211H62.2707V43.4491H62.2227C62.164 43.5504 62.0787 43.6598 61.9667 43.7771C61.8547 43.8944 61.708 43.9958 61.5267 44.0811C61.3454 44.1611 61.1214 44.2011 60.8547 44.2011C60.5347 44.2011 60.2547 44.1398 60.0147 44.0171C59.7747 43.8891 59.5747 43.7211 59.4147 43.5131C59.2547 43.2998 59.1347 43.0624 59.0547 42.8011C58.9747 42.5398 58.9347 42.2731 58.9347 42.0011C58.9347 41.7291 58.9747 41.4624 59.0547 41.2011C59.1347 40.9398 59.2547 40.7051 59.4147 40.4971C59.5747 40.2838 59.7747 40.1158 60.0147 39.9931C60.2547 39.8651 60.5347 39.8011 60.8547 39.8011ZM60.9827 40.4491C60.7 40.4491 60.4627 40.5264 60.2707 40.6811C60.0787 40.8304 59.9347 41.0224 59.8387 41.2571C59.748 41.4918 59.7027 41.7398 59.7027 42.0011C59.7027 42.2571 59.748 42.5051 59.8387 42.7451C59.9347 42.9798 60.0787 43.1744 60.2707 43.3291C60.4627 43.4784 60.7 43.5531 60.9827 43.5531C61.2654 43.5531 61.5 43.4784 61.6867 43.3291C61.8787 43.1744 62.02 42.9798 62.1107 42.7451C62.2067 42.5051 62.2547 42.2571 62.2547 42.0011C62.2547 41.7398 62.2067 41.4918 62.1107 41.2571C62.02 41.0224 61.8787 40.8304 61.6867 40.6811C61.5 40.5264 61.2654 40.4491 60.9827 40.4491ZM64.4835 39.0731C64.3395 39.0731 64.2195 39.0251 64.1235 38.9291C64.0328 38.8331 63.9875 38.7184 63.9875 38.5851C63.9875 38.4464 64.0328 38.3291 64.1235 38.2331C64.2195 38.1371 64.3395 38.0891 64.4835 38.0891C64.6222 38.0891 64.7395 38.1371 64.8355 38.2331C64.9315 38.3291 64.9795 38.4464 64.9795 38.5851C64.9795 38.7184 64.9315 38.8331 64.8355 38.9291C64.7395 39.0251 64.6222 39.0731 64.4835 39.0731ZM64.1075 44.1211V39.8811H64.8675V44.1211H64.1075ZM65.9369 44.1211V39.8811H66.6969V40.4971H66.7449C66.7822 40.4331 66.8435 40.3451 66.9289 40.2331C67.0195 40.1211 67.1475 40.0224 67.3129 39.9371C67.4782 39.8464 67.6862 39.8011 67.9369 39.8011C68.2462 39.8011 68.5102 39.8731 68.7289 40.0171C68.9475 40.1558 69.1129 40.3451 69.2249 40.5851C69.3422 40.8251 69.4009 41.0944 69.4009 41.3931V44.1211H68.6409V41.4411C68.6409 41.1584 68.5609 40.9238 68.4009 40.7371C68.2462 40.5504 68.0195 40.4571 67.7209 40.4571C67.4809 40.4571 67.2862 40.5184 67.1369 40.6411C66.9875 40.7584 66.8755 40.9158 66.8009 41.1131C66.7315 41.3051 66.6969 41.5104 66.6969 41.7291V44.1211H65.9369ZM72.0066 44.2011C71.5692 44.2011 71.2386 44.0891 71.0146 43.8651C70.7959 43.6411 70.6866 43.3264 70.6866 42.9211V40.5051H69.9266V39.8811H70.6866V38.8171H71.4466V39.8811H72.4786V40.5051H71.4466V42.9211C71.4466 43.1344 71.5052 43.2918 71.6226 43.3931C71.7399 43.4891 71.9106 43.5371 72.1346 43.5371C72.2519 43.5371 72.3639 43.5291 72.4706 43.5131C72.5772 43.4971 72.6306 43.4891 72.6306 43.4891V44.1371C72.6306 44.1371 72.5692 44.1478 72.4466 44.1691C72.3239 44.1904 72.1772 44.2011 72.0066 44.2011ZM75.2402 44.2011C74.8935 44.2011 74.5922 44.1398 74.3362 44.0171C74.0855 43.8891 73.8775 43.7184 73.7122 43.5051C73.5522 43.2918 73.4322 43.0571 73.3522 42.8011C73.2722 42.5398 73.2322 42.2731 73.2322 42.0011C73.2322 41.7344 73.2695 41.4704 73.3442 41.2091C73.4242 40.9478 73.5442 40.7104 73.7042 40.4971C73.8695 40.2838 74.0749 40.1158 74.3202 39.9931C74.5709 39.8651 74.8669 39.8011 75.2082 39.8011C75.5709 39.8011 75.8909 39.8838 76.1682 40.0491C76.4455 40.2144 76.6642 40.4598 76.8242 40.7851C76.9842 41.1104 77.0642 41.5184 77.0642 42.0091V42.2331H74.0002C74.0162 42.4731 74.0722 42.6944 74.1682 42.8971C74.2695 43.0944 74.4109 43.2544 74.5922 43.3771C74.7735 43.4944 74.9895 43.5531 75.2402 43.5531C75.4589 43.5531 75.6349 43.5184 75.7682 43.4491C75.9069 43.3744 76.0162 43.2891 76.0962 43.1931C76.1762 43.0971 76.2295 43.0144 76.2562 42.9451C76.2882 42.8704 76.3042 42.8331 76.3042 42.8331H77.0162C77.0162 42.8331 77.0029 42.8811 76.9762 42.9771C76.9495 43.0678 76.9015 43.1798 76.8322 43.3131C76.7629 43.4464 76.6615 43.5824 76.5282 43.7211C76.3949 43.8544 76.2242 43.9691 76.0162 44.0651C75.8082 44.1558 75.5495 44.2011 75.2402 44.2011ZM74.0082 41.6411H76.3202C76.3095 41.3638 76.2509 41.1398 76.1442 40.9691C76.0375 40.7931 75.9015 40.6624 75.7362 40.5771C75.5709 40.4918 75.3949 40.4491 75.2082 40.4491C74.8722 40.4491 74.5975 40.5584 74.3842 40.7771C74.1709 40.9904 74.0455 41.2784 74.0082 41.6411ZM77.9413 44.1211V39.8811H78.7013V40.4971H78.7493C78.7866 40.4331 78.8479 40.3451 78.9333 40.2331C79.0239 40.1211 79.1519 40.0224 79.3173 39.9371C79.4826 39.8464 79.6906 39.8011 79.9413 39.8011C80.2506 39.8011 80.5146 39.8731 80.7333 40.0171C80.9519 40.1558 81.1173 40.3451 81.2293 40.5851C81.3466 40.8251 81.4053 41.0944 81.4053 41.3931V44.1211H80.6453V41.4411C80.6453 41.1584 80.5653 40.9238 80.4053 40.7371C80.2506 40.5504 80.0239 40.4571 79.7253 40.4571C79.4853 40.4571 79.2906 40.5184 79.1413 40.6411C78.9919 40.7584 78.8799 40.9158 78.8053 41.1131C78.7359 41.3051 78.7013 41.5104 78.7013 41.7291V44.1211H77.9413ZM84.2072 39.8011C84.4739 39.8011 84.6979 39.8438 84.8792 39.9291C85.0605 40.0144 85.2072 40.1158 85.3192 40.2331C85.4312 40.3451 85.5165 40.4518 85.5752 40.5531H85.6232V39.8811H86.3832V44.1211H85.6232V43.4491H85.5752C85.5165 43.5504 85.4312 43.6598 85.3192 43.7771C85.2072 43.8944 85.0605 43.9958 84.8792 44.0811C84.6979 44.1611 84.4739 44.2011 84.2072 44.2011C83.8872 44.2011 83.6072 44.1398 83.3672 44.0171C83.1272 43.8891 82.9272 43.7211 82.7672 43.5131C82.6072 43.2998 82.4872 43.0624 82.4072 42.8011C82.3272 42.5398 82.2872 42.2731 82.2872 42.0011C82.2872 41.7291 82.3272 41.4624 82.4072 41.2011C82.4872 40.9398 82.6072 40.7051 82.7672 40.4971C82.9272 40.2838 83.1272 40.1158 83.3672 39.9931C83.6072 39.8651 83.8872 39.8011 84.2072 39.8011ZM84.3352 40.4491C84.0525 40.4491 83.8152 40.5264 83.6232 40.6811C83.4312 40.8304 83.2872 41.0224 83.1912 41.2571C83.1005 41.4918 83.0552 41.7398 83.0552 42.0011C83.0552 42.2571 83.1005 42.5051 83.1912 42.7451C83.2872 42.9798 83.4312 43.1744 83.6232 43.3291C83.8152 43.4784 84.0525 43.5531 84.3352 43.5531C84.6179 43.5531 84.8525 43.4784 85.0392 43.3291C85.2312 43.1744 85.3725 42.9798 85.4632 42.7451C85.5592 42.5051 85.6072 42.2571 85.6072 42.0011C85.6072 41.7398 85.5592 41.4918 85.4632 41.2571C85.3725 41.0224 85.2312 40.8304 85.0392 40.6811C84.8525 40.5264 84.6179 40.4491 84.3352 40.4491ZM87.34 44.1211V39.8811H88.1V40.4971H88.148C88.1853 40.4331 88.2467 40.3451 88.332 40.2331C88.4227 40.1211 88.5507 40.0224 88.716 39.9371C88.8813 39.8464 89.0893 39.8011 89.34 39.8011C89.6493 39.8011 89.9133 39.8731 90.132 40.0171C90.3507 40.1558 90.516 40.3451 90.628 40.5851C90.7453 40.8251 90.804 41.0944 90.804 41.3931V44.1211H90.044V41.4411C90.044 41.1584 89.964 40.9238 89.804 40.7371C89.6493 40.5504 89.4227 40.4571 89.124 40.4571C88.884 40.4571 88.6893 40.5184 88.54 40.6411C88.3907 40.7584 88.2787 40.9158 88.204 41.1131C88.1347 41.3051 88.1 41.5104 88.1 41.7291V44.1211H87.34ZM93.7739 44.2011C93.4273 44.2011 93.1233 44.1398 92.8619 44.0171C92.6006 43.8891 92.3819 43.7211 92.2059 43.5131C92.0353 43.2998 91.9046 43.0624 91.8139 42.8011C91.7286 42.5398 91.6859 42.2731 91.6859 42.0011C91.6859 41.7291 91.7286 41.4651 91.8139 41.2091C91.8993 40.9478 92.0273 40.7104 92.1979 40.4971C92.3739 40.2838 92.5926 40.1158 92.8539 39.9931C93.1153 39.8651 93.4219 39.8011 93.7739 39.8011C94.1153 39.8011 94.3979 39.8518 94.6219 39.9531C94.8459 40.0544 95.0246 40.1824 95.1579 40.3371C95.2966 40.4864 95.3979 40.6384 95.4619 40.7931C95.5313 40.9424 95.5766 41.0678 95.5979 41.1691C95.6193 41.2704 95.6299 41.3211 95.6299 41.3211H94.8939C94.8939 41.3211 94.8806 41.2784 94.8539 41.1931C94.8273 41.1024 94.7766 41.0011 94.7019 40.8891C94.6273 40.7771 94.5153 40.6784 94.3659 40.5931C94.2166 40.5024 94.0193 40.4571 93.7739 40.4571C93.4806 40.4571 93.2326 40.5318 93.0299 40.6811C92.8326 40.8251 92.6833 41.0144 92.5819 41.2491C92.4859 41.4838 92.4379 41.7344 92.4379 42.0011C92.4379 42.2678 92.4859 42.5184 92.5819 42.7531C92.6833 42.9878 92.8326 43.1798 93.0299 43.3291C93.2326 43.4731 93.4806 43.5451 93.7739 43.5451C94.0193 43.5451 94.2166 43.5024 94.3659 43.4171C94.5153 43.3264 94.6273 43.2251 94.7019 43.1131C94.7766 43.0011 94.8273 42.9024 94.8539 42.8171C94.8806 42.7264 94.8939 42.6811 94.8939 42.6811H95.6299C95.6299 42.6811 95.6193 42.7318 95.5979 42.8331C95.5766 42.9344 95.5313 43.0624 95.4619 43.2171C95.3979 43.3664 95.2966 43.5184 95.1579 43.6731C95.0246 43.8224 94.8459 43.9478 94.6219 44.0491C94.3979 44.1504 94.1153 44.2011 93.7739 44.2011ZM98.4402 44.2011C98.0935 44.2011 97.7922 44.1398 97.5362 44.0171C97.2855 43.8891 97.0775 43.7184 96.9122 43.5051C96.7522 43.2918 96.6322 43.0571 96.5522 42.8011C96.4722 42.5398 96.4322 42.2731 96.4322 42.0011C96.4322 41.7344 96.4695 41.4704 96.5442 41.2091C96.6242 40.9478 96.7442 40.7104 96.9042 40.4971C97.0695 40.2838 97.2749 40.1158 97.5202 39.9931C97.7709 39.8651 98.0669 39.8011 98.4082 39.8011C98.7709 39.8011 99.0909 39.8838 99.3682 40.0491C99.6455 40.2144 99.8642 40.4598 100.024 40.7851C100.184 41.1104 100.264 41.5184 100.264 42.0091V42.2331H97.2002C97.2162 42.4731 97.2722 42.6944 97.3682 42.8971C97.4695 43.0944 97.6109 43.2544 97.7922 43.3771C97.9735 43.4944 98.1895 43.5531 98.4402 43.5531C98.6589 43.5531 98.8349 43.5184 98.9682 43.4491C99.1069 43.3744 99.2162 43.2891 99.2962 43.1931C99.3762 43.0971 99.4295 43.0144 99.4562 42.9451C99.4882 42.8704 99.5042 42.8331 99.5042 42.8331H100.216C100.216 42.8331 100.203 42.8811 100.176 42.9771C100.15 43.0678 100.102 43.1798 100.032 43.3131C99.9629 43.4464 99.8615 43.5824 99.7282 43.7211C99.5949 43.8544 99.4242 43.9691 99.2162 44.0651C99.0082 44.1558 98.7495 44.2011 98.4402 44.2011ZM97.2082 41.6411H99.5202C99.5095 41.3638 99.4509 41.1398 99.3442 40.9691C99.2375 40.7931 99.1015 40.6624 98.9362 40.5771C98.7709 40.4918 98.5949 40.4491 98.4082 40.4491C98.0722 40.4491 97.7975 40.5584 97.5842 40.7771C97.3709 40.9904 97.2455 41.2784 97.2082 41.6411ZM104.377 44.2011C104.052 44.2011 103.782 44.1558 103.569 44.0651C103.361 43.9744 103.196 43.8624 103.073 43.7291C102.95 43.5904 102.86 43.4544 102.801 43.3211C102.742 43.1824 102.705 43.0678 102.689 42.9771C102.673 42.8864 102.665 42.8411 102.665 42.8411H103.433C103.433 42.8411 103.441 42.8784 103.457 42.9531C103.478 43.0224 103.518 43.1051 103.577 43.2011C103.641 43.2918 103.737 43.3744 103.865 43.4491C103.998 43.5184 104.174 43.5531 104.393 43.5531C104.644 43.5531 104.838 43.4944 104.977 43.3771C105.116 43.2544 105.185 43.1051 105.185 42.9291C105.185 42.7744 105.129 42.6518 105.017 42.5611C104.91 42.4704 104.756 42.4011 104.553 42.3531L103.977 42.2171C103.764 42.1638 103.564 42.0918 103.377 42.0011C103.19 41.9104 103.038 41.7878 102.921 41.6331C102.809 41.4731 102.753 41.2758 102.753 41.0411C102.753 40.6784 102.889 40.3824 103.161 40.1531C103.433 39.9184 103.788 39.8011 104.225 39.8011C104.518 39.8011 104.761 39.8438 104.953 39.9291C105.145 40.0091 105.297 40.1104 105.409 40.2331C105.526 40.3558 105.612 40.4784 105.665 40.6011C105.724 40.7238 105.761 40.8278 105.777 40.9131C105.793 40.9931 105.801 41.0331 105.801 41.0331H105.065C105.065 41.0331 105.057 41.0038 105.041 40.9451C105.025 40.8811 104.988 40.8118 104.929 40.7371C104.876 40.6571 104.793 40.5878 104.681 40.5291C104.569 40.4651 104.42 40.4331 104.233 40.4331C103.977 40.4331 103.79 40.4918 103.673 40.6091C103.556 40.7264 103.497 40.8544 103.497 40.9931C103.497 41.1264 103.55 41.2358 103.657 41.3211C103.769 41.4011 103.913 41.4624 104.089 41.5051L104.673 41.6411C105.036 41.7264 105.334 41.8678 105.569 42.0651C105.809 42.2571 105.929 42.5344 105.929 42.8971C105.929 43.1318 105.868 43.3504 105.745 43.5531C105.622 43.7504 105.446 43.9078 105.217 44.0251C104.988 44.1424 104.708 44.2011 104.377 44.2011ZM108.577 44.2011C108.231 44.2011 107.929 44.1398 107.673 44.0171C107.423 43.8891 107.215 43.7184 107.049 43.5051C106.889 43.2918 106.769 43.0571 106.689 42.8011C106.609 42.5398 106.569 42.2731 106.569 42.0011C106.569 41.7344 106.607 41.4704 106.681 41.2091C106.761 40.9478 106.881 40.7104 107.041 40.4971C107.207 40.2838 107.412 40.1158 107.657 39.9931C107.908 39.8651 108.204 39.8011 108.545 39.8011C108.908 39.8011 109.228 39.8838 109.505 40.0491C109.783 40.2144 110.001 40.4598 110.161 40.7851C110.321 41.1104 110.401 41.5184 110.401 42.0091V42.2331H107.337C107.353 42.4731 107.409 42.6944 107.505 42.8971C107.607 43.0944 107.748 43.2544 107.929 43.3771C108.111 43.4944 108.327 43.5531 108.577 43.5531C108.796 43.5531 108.972 43.5184 109.105 43.4491C109.244 43.3744 109.353 43.2891 109.433 43.1931C109.513 43.0971 109.567 43.0144 109.593 42.9451C109.625 42.8704 109.641 42.8331 109.641 42.8331H110.353C110.353 42.8331 110.34 42.8811 110.313 42.9771C110.287 43.0678 110.239 43.1798 110.169 43.3131C110.1 43.4464 109.999 43.5824 109.865 43.7211C109.732 43.8544 109.561 43.9691 109.353 44.0651C109.145 44.1558 108.887 44.2011 108.577 44.2011ZM107.345 41.6411H109.657C109.647 41.3638 109.588 41.1398 109.481 40.9691C109.375 40.7931 109.239 40.6624 109.073 40.5771C108.908 40.4918 108.732 40.4491 108.545 40.4491C108.209 40.4491 107.935 40.5584 107.721 40.7771C107.508 40.9904 107.383 41.2784 107.345 41.6411ZM111.278 44.1211V39.8811H112.038V40.4091H112.07C112.161 40.2491 112.294 40.1078 112.47 39.9851C112.646 39.8624 112.894 39.8011 113.214 39.8011C113.305 39.8011 113.388 39.8064 113.462 39.8171C113.537 39.8224 113.574 39.8251 113.574 39.8251V40.5531C113.574 40.5531 113.532 40.5504 113.446 40.5451C113.366 40.5344 113.281 40.5291 113.19 40.5291C112.822 40.5291 112.537 40.6358 112.334 40.8491C112.137 41.0571 112.038 41.3984 112.038 41.8731V44.1211H111.278ZM115.587 44.1211L113.971 39.8811H114.763L116.003 43.1931L117.219 39.8811H118.019L116.395 44.1211H115.587ZM119.197 39.0731C119.053 39.0731 118.933 39.0251 118.837 38.9291C118.746 38.8331 118.701 38.7184 118.701 38.5851C118.701 38.4464 118.746 38.3291 118.837 38.2331C118.933 38.1371 119.053 38.0891 119.197 38.0891C119.335 38.0891 119.453 38.1371 119.549 38.2331C119.645 38.3291 119.693 38.4464 119.693 38.5851C119.693 38.7184 119.645 38.8331 119.549 38.9291C119.453 39.0251 119.335 39.0731 119.197 39.0731ZM118.821 44.1211V39.8811H119.581V44.1211H118.821ZM122.658 44.2011C122.311 44.2011 122.007 44.1398 121.746 44.0171C121.485 43.8891 121.266 43.7211 121.09 43.5131C120.919 43.2998 120.789 43.0624 120.698 42.8011C120.613 42.5398 120.57 42.2731 120.57 42.0011C120.57 41.7291 120.613 41.4651 120.698 41.2091C120.783 40.9478 120.911 40.7104 121.082 40.4971C121.258 40.2838 121.477 40.1158 121.738 39.9931C121.999 39.8651 122.306 39.8011 122.658 39.8011C122.999 39.8011 123.282 39.8518 123.506 39.9531C123.73 40.0544 123.909 40.1824 124.042 40.3371C124.181 40.4864 124.282 40.6384 124.346 40.7931C124.415 40.9424 124.461 41.0678 124.482 41.1691C124.503 41.2704 124.514 41.3211 124.514 41.3211H123.778C123.778 41.3211 123.765 41.2784 123.738 41.1931C123.711 41.1024 123.661 41.0011 123.586 40.8891C123.511 40.7771 123.399 40.6784 123.25 40.5931C123.101 40.5024 122.903 40.4571 122.658 40.4571C122.365 40.4571 122.117 40.5318 121.914 40.6811C121.717 40.8251 121.567 41.0144 121.466 41.2491C121.37 41.4838 121.322 41.7344 121.322 42.0011C121.322 42.2678 121.37 42.5184 121.466 42.7531C121.567 42.9878 121.717 43.1798 121.914 43.3291C122.117 43.4731 122.365 43.5451 122.658 43.5451C122.903 43.5451 123.101 43.5024 123.25 43.4171C123.399 43.3264 123.511 43.2251 123.586 43.1131C123.661 43.0011 123.711 42.9024 123.738 42.8171C123.765 42.7264 123.778 42.6811 123.778 42.6811H124.514C124.514 42.6811 124.503 42.7318 124.482 42.8331C124.461 42.9344 124.415 43.0624 124.346 43.2171C124.282 43.3664 124.181 43.5184 124.042 43.6731C123.909 43.8224 123.73 43.9478 123.506 44.0491C123.282 44.1504 122.999 44.2011 122.658 44.2011ZM127.324 44.2011C126.978 44.2011 126.676 44.1398 126.42 44.0171C126.17 43.8891 125.962 43.7184 125.796 43.5051C125.636 43.2918 125.516 43.0571 125.436 42.8011C125.356 42.5398 125.316 42.2731 125.316 42.0011C125.316 41.7344 125.354 41.4704 125.428 41.2091C125.508 40.9478 125.628 40.7104 125.788 40.4971C125.954 40.2838 126.159 40.1158 126.404 39.9931C126.655 39.8651 126.951 39.8011 127.292 39.8011C127.655 39.8011 127.975 39.8838 128.252 40.0491C128.53 40.2144 128.748 40.4598 128.908 40.7851C129.068 41.1104 129.148 41.5184 129.148 42.0091V42.2331H126.084C126.1 42.4731 126.156 42.6944 126.252 42.8971C126.354 43.0944 126.495 43.2544 126.676 43.3771C126.858 43.4944 127.074 43.5531 127.324 43.5531C127.543 43.5531 127.719 43.5184 127.852 43.4491C127.991 43.3744 128.1 43.2891 128.18 43.1931C128.26 43.0971 128.314 43.0144 128.34 42.9451C128.372 42.8704 128.388 42.8331 128.388 42.8331H129.1C129.1 42.8331 129.087 42.8811 129.06 42.9771C129.034 43.0678 128.986 43.1798 128.916 43.3131C128.847 43.4464 128.746 43.5824 128.612 43.7211C128.479 43.8544 128.308 43.9691 128.1 44.0651C127.892 44.1558 127.634 44.2011 127.324 44.2011ZM126.092 41.6411H128.404C128.394 41.3638 128.335 41.1398 128.228 40.9691C128.122 40.7931 127.986 40.6624 127.82 40.5771C127.655 40.4918 127.479 40.4491 127.292 40.4491C126.956 40.4491 126.682 40.5584 126.468 40.7771C126.255 40.9904 126.13 41.2784 126.092 41.6411ZM131.577 44.2011C131.252 44.2011 130.983 44.1558 130.769 44.0651C130.561 43.9744 130.396 43.8624 130.273 43.7291C130.151 43.5904 130.06 43.4544 130.001 43.3211C129.943 43.1824 129.905 43.0678 129.889 42.9771C129.873 42.8864 129.865 42.8411 129.865 42.8411H130.633C130.633 42.8411 130.641 42.8784 130.657 42.9531C130.679 43.0224 130.719 43.1051 130.777 43.2011C130.841 43.2918 130.937 43.3744 131.065 43.4491C131.199 43.5184 131.375 43.5531 131.593 43.5531C131.844 43.5531 132.039 43.4944 132.177 43.3771C132.316 43.2544 132.385 43.1051 132.385 42.9291C132.385 42.7744 132.329 42.6518 132.217 42.5611C132.111 42.4704 131.956 42.4011 131.753 42.3531L131.177 42.2171C130.964 42.1638 130.764 42.0918 130.577 42.0011C130.391 41.9104 130.239 41.7878 130.121 41.6331C130.009 41.4731 129.953 41.2758 129.953 41.0411C129.953 40.6784 130.089 40.3824 130.361 40.1531C130.633 39.9184 130.988 39.8011 131.425 39.8011C131.719 39.8011 131.961 39.8438 132.153 39.9291C132.345 40.0091 132.497 40.1104 132.609 40.2331C132.727 40.3558 132.812 40.4784 132.865 40.6011C132.924 40.7238 132.961 40.8278 132.977 40.9131C132.993 40.9931 133.001 41.0331 133.001 41.0331H132.265C132.265 41.0331 132.257 41.0038 132.241 40.9451C132.225 40.8811 132.188 40.8118 132.129 40.7371C132.076 40.6571 131.993 40.5878 131.881 40.5291C131.769 40.4651 131.62 40.4331 131.433 40.4331C131.177 40.4331 130.991 40.4918 130.873 40.6091C130.756 40.7264 130.697 40.8544 130.697 40.9931C130.697 41.1264 130.751 41.2358 130.857 41.3211C130.969 41.4011 131.113 41.4624 131.289 41.5051L131.873 41.6411C132.236 41.7264 132.535 41.8678 132.769 42.0651C133.009 42.2571 133.129 42.5344 133.129 42.8971C133.129 43.1318 133.068 43.3504 132.945 43.5531C132.823 43.7504 132.647 43.9078 132.417 44.0251C132.188 44.1424 131.908 44.2011 131.577 44.2011Z" fill="#111D15"/>
</svg>
