<svg width="56" height="56" viewBox="0 0 56 56" fill="none" xmlns="http://www.w3.org/2000/svg">
<g filter="url(#filter0_d_1_667)">
<circle cx="27.75" cy="27.75" r="20.25" fill="#32D1E6"/>
<path d="M27.75 27.3C27.1106 27.3 26.4975 27.0629 26.0454 26.641C25.5933 26.219 25.3393 25.6467 25.3393 25.05C25.3393 24.4533 25.5933 23.881 26.0454 23.459C26.4975 23.0371 27.1106 22.8 27.75 22.8C28.3894 22.8 29.0025 23.0371 29.4546 23.459C29.9067 23.881 30.1607 24.4533 30.1607 25.05C30.1607 25.3455 30.0984 25.6381 29.9772 25.911C29.8561 26.184 29.6785 26.4321 29.4546 26.641C29.2308 26.8499 28.965 27.0157 28.6725 27.1287C28.3801 27.2418 28.0666 27.3 27.75 27.3ZM27.75 18.75C25.9598 18.75 24.2429 19.4137 22.977 20.5952C21.7112 21.7767 21 23.3791 21 25.05C21 29.775 27.75 36.75 27.75 36.75C27.75 36.75 34.5 29.775 34.5 25.05C34.5 23.3791 33.7888 21.7767 32.523 20.5952C31.2571 19.4137 29.5402 18.75 27.75 18.75Z" fill="white"/>
</g>
<defs>
<filter id="filter0_d_1_667" x="-4.76837e-07" y="-4.76837e-07" width="55.5" height="55.5" filterUnits="userSpaceOnUse" color-interpolation-filters="sRGB">
<feFlood flood-opacity="0" result="BackgroundImageFix"/>
<feColorMatrix in="SourceAlpha" type="matrix" values="0 0 0 0 0 0 0 0 0 0 0 0 0 0 0 0 0 0 127 0" result="hardAlpha"/>
<feOffset/>
<feGaussianBlur stdDeviation="3.75"/>
<feComposite in2="hardAlpha" operator="out"/>
<feColorMatrix type="matrix" values="0 0 0 0 0 0 0 0 0 0 0 0 0 0 0 0 0 0 0.05 0"/>
<feBlend mode="normal" in2="BackgroundImageFix" result="effect1_dropShadow_1_667"/>
<feBlend mode="normal" in="SourceGraphic" in2="effect1_dropShadow_1_667" result="shape"/>
</filter>
</defs>
</svg>
