<svg width="56" height="56" viewBox="0 0 56 56" fill="none" xmlns="http://www.w3.org/2000/svg">
<g filter="url(#filter0_d_1_652)">
<circle cx="27.75" cy="27.75" r="20.25" fill="#32D1E6"/>
<path fill-rule="evenodd" clip-rule="evenodd" d="M29.4473 18.784C29.2605 18.8524 29.1044 18.9853 29.0072 19.1588C28.9522 19.2605 28.9204 19.3731 28.9141 19.4885C28.9078 19.6039 28.9271 19.7193 28.9707 19.8264C29.0142 19.9334 29.081 20.0295 29.1661 20.1077C29.2512 20.1859 29.3526 20.2443 29.463 20.2786C29.5235 20.2967 29.6508 20.3211 29.7459 20.3321C30.3227 20.3989 31.0786 20.6307 31.679 20.9254C32.947 21.5388 33.9667 22.5679 34.5684 23.8415C34.86 24.4497 35.0289 24.9975 35.1358 25.6882C35.1916 26.0481 35.2513 26.1919 35.4085 26.3428C35.5531 26.4811 35.7134 26.5408 35.9381 26.5408C36.1629 26.5408 36.3232 26.4811 36.4678 26.3428C36.7051 26.1149 36.7554 25.8894 36.6776 25.3911C36.4277 23.7303 35.6512 22.1935 34.4624 21.0071C33.2742 19.8189 31.7757 19.0606 30.0917 18.7934C29.749 18.7384 29.5809 18.7361 29.4473 18.784ZM20.6147 19.5824C20.1525 19.6824 19.7305 19.9179 19.4026 20.2586C19.0747 20.5994 18.8557 21.0301 18.7736 21.4959C18.6557 22.1732 18.992 24.0325 19.513 25.5821C20.5707 28.7301 22.5816 31.5339 25.1835 33.4874C26.5429 34.5079 28.0467 35.3204 29.6453 35.8983C31.0504 36.3981 32.9292 36.7886 33.7221 36.747C34.5818 36.7014 35.3205 36.2063 35.7016 35.4205C35.9232 34.9624 35.9224 34.9702 35.9224 33.2045C35.9224 31.4215 35.9248 31.4458 35.6843 30.9547C35.5486 30.6788 35.3598 30.4325 35.1287 30.2298C34.8975 30.0271 34.6286 29.8721 34.3374 29.7736C34.1251 29.7154 33.9097 29.669 33.6923 29.6345C33.0793 29.5316 32.7123 29.4389 32.0562 29.222C31.5509 29.0546 31.5014 29.0444 31.1391 29.031C30.6842 29.0138 30.4052 29.0648 30.0634 29.2291C29.7255 29.3909 29.5777 29.5017 29.1754 29.897L28.8084 30.2569L28.4839 30.0353C27.2761 29.1999 26.2313 28.1506 25.4011 26.9392L25.2141 26.661L25.5724 26.2948C25.9701 25.887 26.084 25.7353 26.2427 25.3998C26.4015 25.0658 26.4541 24.7782 26.4376 24.3248C26.425 23.968 26.4148 23.9185 26.2475 23.4132C26.0306 22.7571 25.9378 22.3901 25.8349 21.7772C25.8004 21.5597 25.754 21.3444 25.6958 21.132C25.5975 20.8407 25.4425 20.5718 25.2398 20.3406C25.0371 20.1095 24.7907 19.9207 24.5147 19.7851C24.033 19.5494 24.0637 19.5525 22.3592 19.5431C21.0878 19.536 20.7986 19.5423 20.6147 19.5824ZM23.8209 21.1863C24.1108 21.3434 24.1941 21.5037 24.2955 22.1025C24.3937 22.6856 24.5517 23.315 24.7324 23.8494C24.8888 24.3083 24.9108 24.5267 24.8236 24.7373C24.7906 24.8167 24.5564 25.0776 24.1501 25.4886C23.5576 26.0889 23.5254 26.1275 23.4735 26.3058C23.3761 26.639 23.468 26.87 24.0346 27.7195C24.9977 29.164 26.2329 30.407 27.6713 31.3791C28.597 32.003 28.8218 32.0957 29.1636 31.9959C29.342 31.9441 29.3805 31.9126 29.9832 31.3162C30.3706 30.9327 30.6598 30.6726 30.7297 30.6435C30.9341 30.5579 31.1643 30.5822 31.6201 30.737C32.1536 30.9178 32.7839 31.0757 33.3661 31.174C33.9665 31.2753 34.1315 31.3633 34.2918 31.6643C34.3461 31.7657 34.3516 31.878 34.3602 33.1338C34.3657 34.0265 34.3578 34.5357 34.3358 34.6174C34.2533 34.9223 33.9162 35.1848 33.6074 35.1848C33.4117 35.1848 32.853 35.107 32.3391 35.0079C28.4996 34.2677 25.0161 31.9865 22.8637 28.8039C21.828 27.2708 21.1499 25.7958 20.7114 24.1189C20.5126 23.3575 20.3177 22.2487 20.3169 21.8707C20.3161 21.6703 20.4426 21.4102 20.6029 21.2829C20.8277 21.1045 20.8387 21.1037 22.3278 21.1116C23.6621 21.1187 23.6983 21.1202 23.8209 21.1863ZM29.4473 21.9273C29.2913 21.98 29.156 22.0807 29.0606 22.2149C28.9653 22.3491 28.9147 22.51 28.9161 22.6746C28.9161 22.8412 28.9326 22.9103 29.0072 23.0471C29.1275 23.2679 29.298 23.3818 29.6272 23.4635C30.8264 23.7606 31.6837 24.6077 31.9941 25.8006C32.0916 26.1777 32.1961 26.3381 32.4224 26.4622C32.5274 26.5193 32.644 26.5515 32.7634 26.5565C32.8828 26.5614 33.0017 26.5389 33.1111 26.4907C33.2204 26.4426 33.3173 26.37 33.3942 26.2785C33.4711 26.1871 33.526 26.0792 33.5547 25.9632C33.6577 25.579 33.3072 24.5802 32.8153 23.8533C32.567 23.4863 31.9831 22.9025 31.6161 22.6542C30.8429 22.1308 29.8292 21.7913 29.4473 21.9273Z" fill="white"/>
</g>
<defs>
<filter id="filter0_d_1_652" x="-4.76837e-07" y="-4.76837e-07" width="55.5" height="55.5" filterUnits="userSpaceOnUse" color-interpolation-filters="sRGB">
<feFlood flood-opacity="0" result="BackgroundImageFix"/>
<feColorMatrix in="SourceAlpha" type="matrix" values="0 0 0 0 0 0 0 0 0 0 0 0 0 0 0 0 0 0 127 0" result="hardAlpha"/>
<feOffset/>
<feGaussianBlur stdDeviation="3.75"/>
<feComposite in2="hardAlpha" operator="out"/>
<feColorMatrix type="matrix" values="0 0 0 0 0 0 0 0 0 0 0 0 0 0 0 0 0 0 0.05 0"/>
<feBlend mode="normal" in2="BackgroundImageFix" result="effect1_dropShadow_1_652"/>
<feBlend mode="normal" in="SourceGraphic" in2="effect1_dropShadow_1_652" result="shape"/>
</filter>
</defs>
</svg>
