<svg width="12" height="12" viewBox="0 0 12 12" fill="none" xmlns="http://www.w3.org/2000/svg">
<circle cx="6" cy="6" r="6" fill="#32D1E6"/>
<path d="M4.89164 8.03205L4.89226 8.03136L3.22478 6.16229C3.16848 6.09705 3.1373 6.00965 3.13795 5.91889C3.1386 5.82814 3.17102 5.7413 3.22823 5.67708C3.28544 5.61286 3.36287 5.5764 3.44383 5.57554C3.5248 5.57469 3.60282 5.60952 3.6611 5.67252L5.32858 7.54194L8.60394 3.87129C8.63243 3.83823 8.6665 3.81187 8.70418 3.79373C8.74185 3.77559 8.78237 3.76604 8.82337 3.76564C8.86437 3.76524 8.90504 3.774 8.94298 3.7914C8.98093 3.8088 9.01541 3.8345 9.0444 3.867C9.0734 3.8995 9.09633 3.93815 9.11185 3.98068C9.12738 4.02322 9.13519 4.0688 9.13484 4.11476C9.13448 4.16072 9.12596 4.20613 9.10978 4.24836C9.0936 4.29059 9.07007 4.32878 9.04058 4.36071L5.54659 8.27676C5.48868 8.34165 5.41015 8.3781 5.32827 8.3781C5.24639 8.3781 5.16786 8.34165 5.10996 8.27676L4.89164 8.03205Z" fill="white"/>
</svg>
