<svg width="137" height="47" viewBox="0 0 137 47" fill="none" xmlns="http://www.w3.org/2000/svg">
<path d="M129.582 31.1289C128.33 31.1289 127.247 30.9262 126.33 30.5209C125.414 30.098 124.648 29.5429 124.031 28.8557C123.432 28.1508 122.982 27.3667 122.683 26.5032C122.401 25.6398 122.26 24.7499 122.26 23.8335C122.26 22.9525 122.401 22.0802 122.683 21.2167C122.965 20.3533 123.396 19.5779 123.978 18.8907C124.559 18.1858 125.3 17.6307 126.198 17.2254C127.115 16.8025 128.198 16.5911 129.449 16.5911C130.789 16.5911 131.961 16.8818 132.965 17.4633C133.987 18.0272 134.78 18.8643 135.344 19.9744C135.925 21.067 136.216 22.3974 136.216 23.9657C136.216 24.5496 135.743 25.023 135.159 25.023H128.893C127.766 25.023 126.848 26.0626 127.573 26.9261C128.049 27.4548 128.718 27.7191 129.582 27.7191C130.234 27.7191 130.727 27.6046 131.062 27.3755C131.414 27.1288 131.652 26.8821 131.775 26.6354C131.889 26.4086 132.121 26.2653 132.374 26.2653H135.591C135.854 26.2653 136.045 26.5137 135.978 26.7675C135.89 27.0847 135.723 27.49 135.476 27.9834C135.229 28.4592 134.868 28.9438 134.392 29.4372C133.917 29.913 133.282 30.3183 132.489 30.6531C131.714 30.9703 130.745 31.1289 129.582 31.1289ZM127.599 20.5295C126.755 21.2799 127.75 22.4062 128.879 22.4062H129.797C130.933 22.4062 131.964 21.2847 131.115 20.5295C130.657 20.1066 130.075 19.8951 129.37 19.8951C128.683 19.8951 128.093 20.1066 127.599 20.5295Z" fill="white"/>
<path d="M114.746 30.8646C113.497 30.8646 112.486 29.8527 112.486 28.6046V19.0889C112.486 17.8554 113.486 16.8554 114.719 16.8554H115.895C116.479 16.8554 116.953 17.3288 116.953 17.9127V18.8761C116.953 18.9279 116.995 18.97 117.047 18.97C117.086 18.97 117.12 18.9459 117.135 18.9097C117.274 18.5607 117.469 18.2195 117.719 17.8863C118.001 17.5162 118.389 17.2078 118.882 16.9611C119.376 16.7144 120.028 16.5911 120.838 16.5911C121.226 16.5911 121.534 16.6175 121.763 16.6704C121.965 16.7168 122.107 16.8959 122.107 17.1023V20.8383C122.107 21.0331 121.927 21.1782 121.737 21.1374C121.49 21.0846 121.147 21.0581 120.706 21.0581C119.455 21.0581 118.521 21.393 117.904 22.0626C117.305 22.7322 117.006 23.8247 117.006 25.3402V28.6046C117.006 29.8527 115.994 30.8646 114.746 30.8646Z" fill="white"/>
<path d="M98.5465 36.0189C97.2983 36.0189 96.2865 35.0071 96.2865 33.7589V19.1154C96.2865 17.8672 97.2983 16.8554 98.5465 16.8554H99.9738C100.434 16.8554 100.806 17.2282 100.806 17.688V18.3899C100.806 18.4621 100.865 18.5206 100.937 18.5206C100.987 18.5206 101.032 18.493 101.061 18.4528C101.132 18.355 101.276 18.1837 101.494 17.9391C101.776 17.6219 102.207 17.3224 102.789 17.0404C103.37 16.7408 104.11 16.5911 105.009 16.5911C106.049 16.5911 106.948 16.8025 107.705 17.2254C108.463 17.6307 109.089 18.1858 109.582 18.8907C110.093 19.5779 110.472 20.3533 110.719 21.2167C110.983 22.0802 111.115 22.9613 111.115 23.86C111.115 24.7587 110.983 25.6398 110.719 26.5032C110.472 27.3667 110.093 28.1508 109.582 28.8557C109.089 29.5429 108.463 30.098 107.705 30.5209C106.948 30.9262 106.049 31.1289 105.009 31.1289C104.11 31.1289 103.37 30.9791 102.789 30.6795C102.207 30.38 101.776 30.0804 101.494 29.7808C101.276 29.5362 101.132 29.365 101.061 29.2671C101.032 29.227 100.987 29.1993 100.937 29.1993C100.865 29.1993 100.806 29.2578 100.806 29.33V33.7589C100.806 35.0071 99.7946 36.0189 98.5465 36.0189ZM100.674 23.86C100.674 24.4591 100.78 25.0406 100.991 25.6045C101.203 26.1508 101.529 26.6089 101.969 26.979C102.41 27.3314 102.956 27.5076 103.608 27.5076C104.26 27.5076 104.807 27.3314 105.247 26.979C105.688 26.6089 106.014 26.1508 106.225 25.6045C106.437 25.0406 106.542 24.4591 106.542 23.86C106.542 23.2608 106.437 22.6881 106.225 22.1419C106.014 21.578 105.688 21.1198 105.247 20.7674C104.807 20.3973 104.26 20.2123 103.608 20.2123C102.956 20.2123 102.41 20.3973 101.969 20.7674C101.529 21.1198 101.203 21.578 100.991 22.1419C100.78 22.6881 100.674 23.2608 100.674 23.86Z" fill="white"/>
<path d="M87.3452 31.1289C85.7592 31.1289 84.4112 30.7941 83.301 30.1245C82.1909 29.4548 81.3362 28.5649 80.7371 27.4548C80.1556 26.3446 79.8648 25.1464 79.8648 23.86C79.8648 22.5736 80.1556 21.3753 80.7371 20.2652C81.3362 19.155 82.1909 18.2651 83.301 17.5955C84.4112 16.9259 85.7592 16.5911 87.3452 16.5911C88.9487 16.5911 90.3056 16.9259 91.4158 17.5955C92.5259 18.2651 93.3718 19.155 93.9533 20.2652C94.5524 21.3753 94.852 22.5736 94.852 23.86C94.852 25.1464 94.5524 26.3446 93.9533 27.4548C93.3718 28.5649 92.5259 29.4548 91.4158 30.1245C90.3056 30.7941 88.9487 31.1289 87.3452 31.1289ZM87.3452 27.4812C88.2791 27.4812 89.0016 27.1288 89.5126 26.4239C90.0413 25.7014 90.3056 24.8468 90.3056 23.86C90.3056 22.8732 90.0413 22.0273 89.5126 21.3225C89.0016 20.6 88.2791 20.2387 87.3452 20.2387C86.4289 20.2387 85.7064 20.6 85.1777 21.3225C84.6491 22.0273 84.3847 22.8732 84.3847 23.86C84.3847 24.8468 84.6491 25.7014 85.1777 26.4239C85.7064 27.1288 86.4289 27.4812 87.3452 27.4812Z" fill="white"/>
<path d="M72.3506 30.8646C71.1025 30.8646 70.0906 29.8527 70.0906 28.6046V19.0889C70.0906 17.8554 71.0906 16.8554 72.3242 16.8554H73.5004C74.0843 16.8554 74.5577 17.3288 74.5577 17.9127V18.8761C74.5577 18.9279 74.5997 18.97 74.6516 18.97C74.6906 18.97 74.7254 18.9459 74.7398 18.9097C74.8795 18.5607 75.0743 18.2195 75.3243 17.8863C75.6062 17.5162 75.9939 17.2078 76.4873 16.9611C76.9807 16.7144 77.6327 16.5911 78.4433 16.5911C78.831 16.5911 79.1393 16.6175 79.3684 16.6704C79.5695 16.7168 79.712 16.8959 79.712 17.1023V20.8383C79.712 21.0331 79.5324 21.1783 79.342 21.1374C79.0953 21.0846 78.7517 21.0581 78.3111 21.0581C77.06 21.0581 76.126 21.393 75.5093 22.0626C74.9101 22.7322 74.6106 23.8247 74.6106 25.3402V28.6046C74.6106 29.8527 73.5988 30.8646 72.3506 30.8646Z" fill="white"/>
<path d="M56.1514 36.0189C54.9032 36.0189 53.8914 35.0071 53.8914 33.7589V19.1154C53.8914 17.8672 54.9032 16.8554 56.1514 16.8554H57.5787C58.0386 16.8554 58.4114 17.2282 58.4114 17.688V18.3899C58.4114 18.4621 58.4699 18.5206 58.542 18.5206C58.5915 18.5206 58.6374 18.493 58.6664 18.4528C58.7371 18.355 58.8812 18.1837 59.0986 17.9391C59.3805 17.6219 59.8123 17.3224 60.3938 17.0404C60.9753 16.7408 61.7154 16.5911 62.6141 16.5911C63.6538 16.5911 64.5525 16.8025 65.3102 17.2254C66.0679 17.6307 66.6935 18.1858 67.1869 18.8907C67.6979 19.5779 68.0768 20.3533 68.3235 21.2167C68.5878 22.0802 68.72 22.9613 68.72 23.86C68.72 24.7587 68.5878 25.6398 68.3235 26.5032C68.0768 27.3667 67.6979 28.1508 67.1869 28.8557C66.6935 29.5429 66.0679 30.098 65.3102 30.5209C64.5525 30.9262 63.6538 31.1289 62.6141 31.1289C61.7154 31.1289 60.9753 30.9791 60.3938 30.6795C59.8123 30.38 59.3805 30.0804 59.0986 29.7808C58.8812 29.5362 58.7371 29.365 58.6664 29.2671C58.6374 29.227 58.5915 29.1993 58.542 29.1993C58.4699 29.1993 58.4114 29.2578 58.4114 29.33V33.7589C58.4114 35.0071 57.3995 36.0189 56.1514 36.0189ZM58.2792 23.86C58.2792 24.4591 58.3849 25.0406 58.5964 25.6045C58.8078 26.1508 59.1338 26.6089 59.5744 26.979C60.0149 27.3314 60.5612 27.5076 61.2132 27.5076C61.8652 27.5076 62.4115 27.3314 62.852 26.979C63.2925 26.6089 63.6185 26.1508 63.83 25.6045C64.0415 25.0406 64.1472 24.4591 64.1472 23.86C64.1472 23.2608 64.0415 22.6881 63.83 22.1419C63.6185 21.578 63.2925 21.1198 62.852 20.7674C62.4115 20.3973 61.8652 20.2123 61.2132 20.2123C60.5612 20.2123 60.0149 20.3973 59.5744 20.7674C59.1338 21.1198 58.8078 21.578 58.5964 22.1419C58.3849 22.6881 58.2792 23.2608 58.2792 23.86Z" fill="white"/>
<path d="M25.5156 30.8646C24.2675 30.8646 23.2557 29.8527 23.2557 28.6046V19.1154C23.2557 17.8672 24.2675 16.8554 25.5156 16.8554H26.8373C27.3555 16.8554 27.7756 17.2755 27.7756 17.7937V18.632C27.7756 18.6873 27.8204 18.7321 27.8757 18.7321C27.9118 18.7321 27.9451 18.7125 27.9633 18.6813C28.2791 18.1385 28.7276 17.662 29.3087 17.2519C29.9255 16.8113 30.7272 16.5911 31.714 16.5911C32.7713 16.5911 33.6084 16.8378 34.2251 17.3312C34.8474 17.7978 35.2916 18.3747 35.5578 19.0618C35.5672 19.086 35.5904 19.1021 35.6163 19.1021C35.6387 19.1021 35.6593 19.0902 35.6705 19.0709C35.8804 18.7107 36.1651 18.3423 36.5247 17.9655C36.9124 17.5779 37.3882 17.2519 37.9521 16.9876C38.516 16.7232 39.1856 16.5911 39.961 16.5911C40.9301 16.5911 41.7143 16.8113 42.3134 17.2519C42.9302 17.6748 43.3795 18.2211 43.6615 18.8907C43.9611 19.5603 44.1108 20.2564 44.1108 20.9788V28.6046C44.1108 29.8527 43.099 30.8646 41.8509 30.8646C40.6027 30.8646 39.5909 29.8527 39.5909 28.6046V22.3005C39.5909 21.7189 39.4411 21.2344 39.1416 20.8467C38.842 20.459 38.3926 20.2652 37.7935 20.2652C37.1415 20.2652 36.6657 20.4854 36.3661 20.926C36.0842 21.3665 35.9432 21.8687 35.9432 22.4326V28.6046C35.9432 29.8527 34.9314 30.8646 33.6833 30.8646C32.4351 30.8646 31.4233 29.8527 31.4233 28.6046V22.3005C31.4233 21.7366 31.2735 21.2608 30.9739 20.8731C30.692 20.4678 30.2426 20.2652 29.6259 20.2652C28.9739 20.2652 28.4981 20.4942 28.1985 20.9524C27.9166 21.393 27.7756 21.8864 27.7756 22.4326V28.6046C27.7756 29.8527 26.7638 30.8646 25.5156 30.8646Z" fill="#32D1E6"/>
<circle cx="8.3482" cy="15.3755" r="5.1473" transform="rotate(43.9152 8.3482 15.3755)" fill="#32D1E6"/>
<circle cx="15.9604" cy="26.6172" r="3.86547" transform="rotate(43.9152 15.9604 26.6172)" fill="#32D1E6"/>
<circle cx="26.554" cy="10.6221" r="1.79917" transform="rotate(43.9152 26.554 10.6221)" fill="#32D1E6"/>
<circle cx="46.8973" cy="7.68369" r="3.10182" transform="rotate(43.9152 46.8973 7.68369)" fill="#32D1E6"/>
<circle cx="46.6143" cy="33.1958" r="2.12259" transform="rotate(43.9152 46.6143 33.1958)" fill="#32D1E6"/>
<circle cx="51.0254" cy="24.7733" r="4.62869" transform="rotate(43.9152 51.0254 24.7733)" fill="#32D1E6"/>
<path d="M6.71219 44.7011C6.24819 44.7011 5.84019 44.6158 5.48819 44.4451C5.13619 44.2691 4.84286 44.0371 4.60819 43.7491C4.37886 43.4558 4.20552 43.1304 4.08819 42.7731C3.97086 42.4104 3.91219 42.0398 3.91219 41.6611C3.91219 41.2824 3.97086 40.9118 4.08819 40.5491C4.20552 40.1864 4.37886 39.8611 4.60819 39.5731C4.84286 39.2798 5.13619 39.0478 5.48819 38.8771C5.84019 38.7064 6.24819 38.6211 6.71219 38.6211C7.09619 38.6211 7.42419 38.6718 7.69619 38.7731C7.97352 38.8691 8.20286 38.9944 8.38419 39.1491C8.57086 39.3038 8.72019 39.4691 8.83219 39.6451C8.94952 39.8211 9.03486 39.9864 9.08819 40.1411C9.14686 40.2958 9.18419 40.4238 9.20019 40.5251C9.22152 40.6211 9.23219 40.6691 9.23219 40.6691H8.44819C8.44819 40.6691 8.43752 40.6264 8.41619 40.5411C8.39486 40.4504 8.35219 40.3411 8.28819 40.2131C8.22419 40.0798 8.12819 39.9464 8.00019 39.8131C7.87219 39.6798 7.70419 39.5704 7.49619 39.4851C7.28819 39.3944 7.02952 39.3491 6.72019 39.3491C6.38419 39.3491 6.09086 39.4158 5.84019 39.5491C5.58952 39.6771 5.37886 39.8531 5.20819 40.0771C5.04286 40.2958 4.91752 40.5438 4.83219 40.8211C4.75219 41.0931 4.71219 41.3731 4.71219 41.6611C4.71219 41.9491 4.75219 42.2318 4.83219 42.5091C4.91752 42.7811 5.04286 43.0291 5.20819 43.2531C5.37886 43.4718 5.58952 43.6478 5.84019 43.7811C6.09086 43.9091 6.38419 43.9731 6.72019 43.9731C7.02952 43.9731 7.28819 43.9278 7.49619 43.8371C7.70419 43.7464 7.87219 43.6371 8.00019 43.5091C8.12819 43.3758 8.22419 43.2451 8.28819 43.1171C8.35219 42.9838 8.39486 42.8718 8.41619 42.7811C8.43752 42.6904 8.44819 42.6451 8.44819 42.6451H9.23219C9.23219 42.6451 9.22152 42.6958 9.20019 42.7971C9.18419 42.8931 9.14686 43.0211 9.08819 43.1811C9.03486 43.3358 8.94952 43.5011 8.83219 43.6771C8.72019 43.8478 8.57086 44.0131 8.38419 44.1731C8.20286 44.3278 7.97352 44.4558 7.69619 44.5571C7.42419 44.6531 7.09619 44.7011 6.71219 44.7011ZM12.0833 44.7011C11.63 44.7011 11.2486 44.5971 10.9393 44.3891C10.63 44.1758 10.3953 43.9011 10.2353 43.5651C10.0753 43.2291 9.99532 42.8744 9.99532 42.5011C9.99532 42.1224 10.0753 41.7678 10.2353 41.4371C10.3953 41.1011 10.63 40.8291 10.9393 40.6211C11.2486 40.4078 11.63 40.3011 12.0833 40.3011C12.5366 40.3011 12.918 40.4078 13.2273 40.6211C13.5366 40.8291 13.7713 41.1011 13.9313 41.4371C14.0913 41.7678 14.1713 42.1224 14.1713 42.5011C14.1713 42.8744 14.0913 43.2291 13.9313 43.5651C13.7713 43.9011 13.5366 44.1758 13.2273 44.3891C12.918 44.5971 12.5366 44.7011 12.0833 44.7011ZM12.0833 44.0371C12.3713 44.0371 12.6113 43.9651 12.8033 43.8211C13.0006 43.6718 13.1473 43.4798 13.2433 43.2451C13.3446 43.0104 13.3953 42.7624 13.3953 42.5011C13.3953 42.2344 13.3446 41.9864 13.2433 41.7571C13.1473 41.5224 13.0006 41.3331 12.8033 41.1891C12.6113 41.0398 12.3713 40.9651 12.0833 40.9651C11.8006 40.9651 11.5606 41.0398 11.3633 41.1891C11.166 41.3331 11.0166 41.5224 10.9153 41.7571C10.8193 41.9864 10.7713 42.2344 10.7713 42.5011C10.7713 42.7624 10.8193 43.0104 10.9153 43.2451C11.0166 43.4798 11.166 43.6718 11.3633 43.8211C11.5606 43.9651 11.8006 44.0371 12.0833 44.0371ZM15.0481 44.6211V40.3811H15.8081V40.9971H15.8561C15.8935 40.9331 15.9548 40.8451 16.0401 40.7331C16.1308 40.6211 16.2588 40.5224 16.4241 40.4371C16.5895 40.3464 16.7975 40.3011 17.0481 40.3011C17.3575 40.3011 17.6215 40.3731 17.8401 40.5171C18.0588 40.6558 18.2241 40.8451 18.3361 41.0851C18.4535 41.3251 18.5121 41.5944 18.5121 41.8931V44.6211H17.7521V41.9411C17.7521 41.6584 17.6721 41.4238 17.5121 41.2371C17.3575 41.0504 17.1308 40.9571 16.8321 40.9571C16.5921 40.9571 16.3975 41.0184 16.2481 41.1411C16.0988 41.2584 15.9868 41.4158 15.9121 41.6131C15.8428 41.8051 15.8081 42.0104 15.8081 42.2291V44.6211H15.0481ZM21.4821 44.7011C21.1354 44.7011 20.8314 44.6398 20.5701 44.5171C20.3087 44.3891 20.0901 44.2211 19.9141 44.0131C19.7434 43.7998 19.6127 43.5624 19.5221 43.3011C19.4367 43.0398 19.3941 42.7731 19.3941 42.5011C19.3941 42.2291 19.4367 41.9651 19.5221 41.7091C19.6074 41.4478 19.7354 41.2104 19.9061 40.9971C20.0821 40.7838 20.3007 40.6158 20.5621 40.4931C20.8234 40.3651 21.1301 40.3011 21.4821 40.3011C21.8234 40.3011 22.1061 40.3518 22.3301 40.4531C22.5541 40.5544 22.7327 40.6824 22.8661 40.8371C23.0047 40.9864 23.1061 41.1384 23.1701 41.2931C23.2394 41.4424 23.2847 41.5678 23.3061 41.6691C23.3274 41.7704 23.3381 41.8211 23.3381 41.8211H22.6021C22.6021 41.8211 22.5887 41.7784 22.5621 41.6931C22.5354 41.6024 22.4847 41.5011 22.4101 41.3891C22.3354 41.2771 22.2234 41.1784 22.0741 41.0931C21.9247 41.0024 21.7274 40.9571 21.4821 40.9571C21.1887 40.9571 20.9407 41.0318 20.7381 41.1811C20.5407 41.3251 20.3914 41.5144 20.2901 41.7491C20.1941 41.9838 20.1461 42.2344 20.1461 42.5011C20.1461 42.7678 20.1941 43.0184 20.2901 43.2531C20.3914 43.4878 20.5407 43.6798 20.7381 43.8291C20.9407 43.9731 21.1887 44.0451 21.4821 44.0451C21.7274 44.0451 21.9247 44.0024 22.0741 43.9171C22.2234 43.8264 22.3354 43.7251 22.4101 43.6131C22.4847 43.5011 22.5354 43.4024 22.5621 43.3171C22.5887 43.2264 22.6021 43.1811 22.6021 43.1811H23.3381C23.3381 43.1811 23.3274 43.2318 23.3061 43.3331C23.2847 43.4344 23.2394 43.5624 23.1701 43.7171C23.1061 43.8664 23.0047 44.0184 22.8661 44.1731C22.7327 44.3224 22.5541 44.4478 22.3301 44.5491C22.1061 44.6504 21.8234 44.7011 21.4821 44.7011ZM24.7163 39.5731C24.5723 39.5731 24.4523 39.5251 24.3563 39.4291C24.2656 39.3331 24.2203 39.2184 24.2203 39.0851C24.2203 38.9464 24.2656 38.8291 24.3563 38.7331C24.4523 38.6371 24.5723 38.5891 24.7163 38.5891C24.855 38.5891 24.9723 38.6371 25.0683 38.7331C25.1643 38.8291 25.2123 38.9464 25.2123 39.0851C25.2123 39.2184 25.1643 39.3331 25.0683 39.4291C24.9723 39.5251 24.855 39.5731 24.7163 39.5731ZM24.3403 44.6211V40.3811H25.1003V44.6211H24.3403ZM28.0977 44.7011C27.751 44.7011 27.4497 44.6398 27.1937 44.5171C26.943 44.3891 26.735 44.2184 26.5697 44.0051C26.4097 43.7918 26.2897 43.5571 26.2097 43.3011C26.1297 43.0398 26.0897 42.7731 26.0897 42.5011C26.0897 42.2344 26.127 41.9704 26.2017 41.7091C26.2817 41.4478 26.4017 41.2104 26.5617 40.9971C26.727 40.7838 26.9324 40.6158 27.1777 40.4931C27.4284 40.3651 27.7244 40.3011 28.0657 40.3011C28.4284 40.3011 28.7484 40.3838 29.0257 40.5491C29.303 40.7144 29.5217 40.9598 29.6817 41.2851C29.8417 41.6104 29.9217 42.0184 29.9217 42.5091V42.7331H26.8577C26.8737 42.9731 26.9297 43.1944 27.0257 43.3971C27.127 43.5944 27.2684 43.7544 27.4497 43.8771C27.631 43.9944 27.847 44.0531 28.0977 44.0531C28.3164 44.0531 28.4924 44.0184 28.6257 43.9491C28.7644 43.8744 28.8737 43.7891 28.9537 43.6931C29.0337 43.5971 29.087 43.5144 29.1137 43.4451C29.1457 43.3704 29.1617 43.3331 29.1617 43.3331H29.8737C29.8737 43.3331 29.8604 43.3811 29.8337 43.4771C29.807 43.5678 29.759 43.6798 29.6897 43.8131C29.6204 43.9464 29.519 44.0824 29.3857 44.2211C29.2524 44.3544 29.0817 44.4691 28.8737 44.5651C28.6657 44.6558 28.407 44.7011 28.0977 44.7011ZM26.8657 42.1411H29.1777C29.167 41.8638 29.1084 41.6398 29.0017 41.4691C28.895 41.2931 28.759 41.1624 28.5937 41.0771C28.4284 40.9918 28.2524 40.9491 28.0657 40.9491C27.7297 40.9491 27.455 41.0584 27.2417 41.2771C27.0284 41.4904 26.903 41.7784 26.8657 42.1411ZM30.7988 44.6211V40.3811H31.5588V40.9091H31.5908C31.6814 40.7491 31.8148 40.6078 31.9908 40.4851C32.1668 40.3624 32.4148 40.3011 32.7348 40.3011C32.8254 40.3011 32.9081 40.3064 32.9828 40.3171C33.0574 40.3224 33.0948 40.3251 33.0948 40.3251V41.0531C33.0948 41.0531 33.0521 41.0504 32.9668 41.0451C32.8868 41.0344 32.8014 41.0291 32.7108 41.0291C32.3428 41.0291 32.0574 41.1358 31.8548 41.3491C31.6574 41.5571 31.5588 41.8984 31.5588 42.3731V44.6211H30.7988ZM35.4913 46.3011C35.1393 46.3011 34.8459 46.2531 34.6113 46.1571C34.3766 46.0664 34.1873 45.9491 34.0433 45.8051C33.9046 45.6664 33.8006 45.5278 33.7313 45.3891C33.6619 45.2504 33.6166 45.1331 33.5953 45.0371C33.5739 44.9464 33.5633 44.9011 33.5633 44.9011H34.3233C34.3233 44.9011 34.3366 44.9384 34.3633 45.0131C34.3899 45.0878 34.4406 45.1731 34.5153 45.2691C34.5953 45.3651 34.7126 45.4504 34.8673 45.5251C35.0219 45.5998 35.2299 45.6371 35.4913 45.6371C35.8006 45.6371 36.0433 45.5758 36.2193 45.4531C36.3953 45.3358 36.5206 45.1811 36.5953 44.9891C36.6753 44.7971 36.7153 44.5944 36.7153 44.3811V43.8931H36.6753C36.6219 43.9838 36.5366 44.0878 36.4193 44.2051C36.3073 44.3171 36.1579 44.4158 35.9713 44.5011C35.7846 44.5811 35.5553 44.6211 35.2833 44.6211C34.9633 44.6211 34.6833 44.5598 34.4433 44.4371C34.2033 44.3144 34.0033 44.1491 33.8433 43.9411C33.6886 43.7331 33.5713 43.5011 33.4913 43.2451C33.4113 42.9891 33.3713 42.7278 33.3713 42.4611C33.3713 42.1944 33.4113 41.9331 33.4913 41.6771C33.5713 41.4211 33.6886 41.1891 33.8433 40.9811C34.0033 40.7731 34.2033 40.6078 34.4433 40.4851C34.6833 40.3624 34.9633 40.3011 35.2833 40.3011C35.5553 40.3011 35.7846 40.3438 35.9713 40.4291C36.1579 40.5091 36.3073 40.6051 36.4193 40.7171C36.5366 40.8291 36.6219 40.9331 36.6753 41.0291H36.7153V40.3811H37.4753V44.3731C37.4753 44.9651 37.3019 45.4344 36.9553 45.7811C36.6139 46.1278 36.1259 46.3011 35.4913 46.3011ZM35.4273 43.9731C35.7099 43.9731 35.9446 43.9011 36.1313 43.7571C36.3233 43.6078 36.4646 43.4184 36.5553 43.1891C36.6513 42.9598 36.6993 42.7171 36.6993 42.4611C36.6993 42.2051 36.6513 41.9624 36.5553 41.7331C36.4646 41.4984 36.3233 41.3091 36.1313 41.1651C35.9446 41.0211 35.7099 40.9491 35.4273 40.9491C35.1446 40.9491 34.9073 41.0211 34.7153 41.1651C34.5233 41.3091 34.3793 41.4984 34.2833 41.7331C34.1926 41.9624 34.1473 42.2051 34.1473 42.4611C34.1473 42.7171 34.1926 42.9598 34.2833 43.1891C34.3793 43.4184 34.5233 43.6078 34.7153 43.7571C34.9073 43.9011 35.1446 43.9731 35.4273 43.9731ZM40.2036 44.7011C39.857 44.7011 39.5556 44.6398 39.2996 44.5171C39.049 44.3891 38.841 44.2184 38.6756 44.0051C38.5156 43.7918 38.3956 43.5571 38.3156 43.3011C38.2356 43.0398 38.1956 42.7731 38.1956 42.5011C38.1956 42.2344 38.233 41.9704 38.3076 41.7091C38.3876 41.4478 38.5076 41.2104 38.6676 40.9971C38.833 40.7838 39.0383 40.6158 39.2836 40.4931C39.5343 40.3651 39.8303 40.3011 40.1716 40.3011C40.5343 40.3011 40.8543 40.3838 41.1316 40.5491C41.409 40.7144 41.6276 40.9598 41.7876 41.2851C41.9476 41.6104 42.0276 42.0184 42.0276 42.5091V42.7331H38.9636C38.9796 42.9731 39.0356 43.1944 39.1316 43.3971C39.233 43.5944 39.3743 43.7544 39.5556 43.8771C39.737 43.9944 39.953 44.0531 40.2036 44.0531C40.4223 44.0531 40.5983 44.0184 40.7316 43.9491C40.8703 43.8744 40.9796 43.7891 41.0596 43.6931C41.1396 43.5971 41.193 43.5144 41.2196 43.4451C41.2516 43.3704 41.2676 43.3331 41.2676 43.3331H41.9796C41.9796 43.3331 41.9663 43.3811 41.9396 43.4771C41.913 43.5678 41.865 43.6798 41.7956 43.8131C41.7263 43.9464 41.625 44.0824 41.4916 44.2211C41.3583 44.3544 41.1876 44.4691 40.9796 44.5651C40.7716 44.6558 40.513 44.7011 40.2036 44.7011ZM38.9716 42.1411H41.2836C41.273 41.8638 41.2143 41.6398 41.1076 41.4691C41.001 41.2931 40.865 41.1624 40.6996 41.0771C40.5343 40.9918 40.3583 40.9491 40.1716 40.9491C39.8356 40.9491 39.561 41.0584 39.3476 41.2771C39.1343 41.4904 39.009 41.7784 38.9716 42.1411ZM46.5644 44.7011C46.1964 44.7011 45.8578 44.6344 45.5484 44.5011C45.2391 44.3678 44.9911 44.1758 44.8044 43.9251C44.6178 43.6744 44.5244 43.3704 44.5244 43.0131C44.5244 42.6291 44.6364 42.3011 44.8604 42.0291C45.0898 41.7518 45.3858 41.5091 45.7484 41.3011L45.6844 41.2291C45.5458 41.0691 45.4178 40.8904 45.3004 40.6931C45.1831 40.4958 45.1244 40.2558 45.1244 39.9731C45.1244 39.6744 45.1911 39.4264 45.3244 39.2291C45.4631 39.0264 45.6418 38.8744 45.8604 38.7731C46.0791 38.6718 46.3084 38.6211 46.5484 38.6211C46.7884 38.6211 47.0124 38.6691 47.2204 38.7651C47.4338 38.8611 47.6044 39.0024 47.7324 39.1891C47.8658 39.3758 47.9324 39.6051 47.9324 39.8771C47.9324 40.1971 47.8311 40.4878 47.6284 40.7491C47.4258 41.0104 47.1378 41.2344 46.7644 41.4211L48.2044 43.0451C48.3164 42.8264 48.4044 42.5651 48.4684 42.2611C48.5324 41.9571 48.5644 41.6104 48.5644 41.2211H49.2124C49.2124 41.7278 49.1618 42.1758 49.0604 42.5651C48.9644 42.9544 48.8311 43.2878 48.6604 43.5651L49.5884 44.6131H48.6284L48.1964 44.1171C47.9671 44.3144 47.7138 44.4611 47.4364 44.5571C47.1591 44.6531 46.8684 44.7011 46.5644 44.7011ZM46.2924 40.8851L46.3804 40.9811L46.4364 40.9571C46.6924 40.8344 46.8924 40.6851 47.0364 40.5091C47.1858 40.3278 47.2604 40.1304 47.2604 39.9171C47.2604 39.6931 47.1884 39.5224 47.0444 39.4051C46.9058 39.2824 46.7431 39.2211 46.5564 39.2211C46.3591 39.2211 46.1831 39.2878 46.0284 39.4211C45.8791 39.5491 45.8044 39.7251 45.8044 39.9491C45.8044 40.1091 45.8471 40.2611 45.9324 40.4051C46.0178 40.5491 46.1378 40.7091 46.2924 40.8851ZM45.2444 42.9491C45.2444 43.1838 45.3058 43.3864 45.4284 43.5571C45.5511 43.7224 45.7138 43.8478 45.9164 43.9331C46.1244 44.0184 46.3538 44.0611 46.6044 44.0611C46.8231 44.0611 47.0311 44.0264 47.2284 43.9571C47.4311 43.8878 47.6124 43.7784 47.7724 43.6291L46.1244 41.7331C45.8631 41.8824 45.6498 42.0558 45.4844 42.2531C45.3244 42.4504 45.2444 42.6824 45.2444 42.9491ZM52.0341 44.6211V40.3811H52.7941V40.9971H52.8261C52.8687 40.9171 52.9354 40.8238 53.0261 40.7171C53.1167 40.6051 53.2394 40.5091 53.3941 40.4291C53.5541 40.3438 53.7541 40.3011 53.9941 40.3011C54.3087 40.3011 54.5727 40.3784 54.7861 40.5331C55.0047 40.6824 55.1674 40.8851 55.2741 41.1411H55.2821C55.3994 40.9064 55.5647 40.7091 55.7781 40.5491C55.9967 40.3838 56.2794 40.3011 56.6261 40.3011C57.0847 40.3011 57.4367 40.4584 57.6821 40.7731C57.9327 41.0824 58.0581 41.4824 58.0581 41.9731V44.6211H57.2981V42.0131C57.2981 41.6984 57.2234 41.4451 57.0741 41.2531C56.9247 41.0558 56.7087 40.9571 56.4261 40.9571C56.1807 40.9571 55.9834 41.0238 55.8341 41.1571C55.6901 41.2904 55.5861 41.4558 55.5221 41.6531C55.4581 41.8504 55.4261 42.0478 55.4261 42.2451V44.6211H54.6661V42.0131C54.6661 41.6984 54.5914 41.4451 54.4421 41.2531C54.2981 41.0558 54.0821 40.9571 53.7941 40.9571C53.5487 40.9571 53.3514 41.0238 53.2021 41.1571C53.0581 41.2904 52.9541 41.4584 52.8901 41.6611C52.8261 41.8584 52.7941 42.0531 52.7941 42.2451V44.6211H52.0341ZM60.8547 40.3011C61.1214 40.3011 61.3454 40.3438 61.5267 40.4291C61.708 40.5144 61.8547 40.6158 61.9667 40.7331C62.0787 40.8451 62.164 40.9518 62.2227 41.0531H62.2707V40.3811H63.0307V44.6211H62.2707V43.9491H62.2227C62.164 44.0504 62.0787 44.1598 61.9667 44.2771C61.8547 44.3944 61.708 44.4958 61.5267 44.5811C61.3454 44.6611 61.1214 44.7011 60.8547 44.7011C60.5347 44.7011 60.2547 44.6398 60.0147 44.5171C59.7747 44.3891 59.5747 44.2211 59.4147 44.0131C59.2547 43.7998 59.1347 43.5624 59.0547 43.3011C58.9747 43.0398 58.9347 42.7731 58.9347 42.5011C58.9347 42.2291 58.9747 41.9624 59.0547 41.7011C59.1347 41.4398 59.2547 41.2051 59.4147 40.9971C59.5747 40.7838 59.7747 40.6158 60.0147 40.4931C60.2547 40.3651 60.5347 40.3011 60.8547 40.3011ZM60.9827 40.9491C60.7 40.9491 60.4627 41.0264 60.2707 41.1811C60.0787 41.3304 59.9347 41.5224 59.8387 41.7571C59.748 41.9918 59.7027 42.2398 59.7027 42.5011C59.7027 42.7571 59.748 43.0051 59.8387 43.2451C59.9347 43.4798 60.0787 43.6744 60.2707 43.8291C60.4627 43.9784 60.7 44.0531 60.9827 44.0531C61.2654 44.0531 61.5 43.9784 61.6867 43.8291C61.8787 43.6744 62.02 43.4798 62.1107 43.2451C62.2067 43.0051 62.2547 42.7571 62.2547 42.5011C62.2547 42.2398 62.2067 41.9918 62.1107 41.7571C62.02 41.5224 61.8787 41.3304 61.6867 41.1811C61.5 41.0264 61.2654 40.9491 60.9827 40.9491ZM64.4835 39.5731C64.3395 39.5731 64.2195 39.5251 64.1235 39.4291C64.0328 39.3331 63.9875 39.2184 63.9875 39.0851C63.9875 38.9464 64.0328 38.8291 64.1235 38.7331C64.2195 38.6371 64.3395 38.5891 64.4835 38.5891C64.6222 38.5891 64.7395 38.6371 64.8355 38.7331C64.9315 38.8291 64.9795 38.9464 64.9795 39.0851C64.9795 39.2184 64.9315 39.3331 64.8355 39.4291C64.7395 39.5251 64.6222 39.5731 64.4835 39.5731ZM64.1075 44.6211V40.3811H64.8675V44.6211H64.1075ZM65.9369 44.6211V40.3811H66.6969V40.9971H66.7449C66.7822 40.9331 66.8435 40.8451 66.9289 40.7331C67.0195 40.6211 67.1475 40.5224 67.3129 40.4371C67.4782 40.3464 67.6862 40.3011 67.9369 40.3011C68.2462 40.3011 68.5102 40.3731 68.7289 40.5171C68.9475 40.6558 69.1129 40.8451 69.2249 41.0851C69.3422 41.3251 69.4009 41.5944 69.4009 41.8931V44.6211H68.6409V41.9411C68.6409 41.6584 68.5609 41.4238 68.4009 41.2371C68.2462 41.0504 68.0195 40.9571 67.7209 40.9571C67.4809 40.9571 67.2862 41.0184 67.1369 41.1411C66.9875 41.2584 66.8755 41.4158 66.8009 41.6131C66.7315 41.8051 66.6969 42.0104 66.6969 42.2291V44.6211H65.9369ZM72.0066 44.7011C71.5692 44.7011 71.2386 44.5891 71.0146 44.3651C70.7959 44.1411 70.6866 43.8264 70.6866 43.4211V41.0051H69.9266V40.3811H70.6866V39.3171H71.4466V40.3811H72.4786V41.0051H71.4466V43.4211C71.4466 43.6344 71.5052 43.7918 71.6226 43.8931C71.7399 43.9891 71.9106 44.0371 72.1346 44.0371C72.2519 44.0371 72.3639 44.0291 72.4706 44.0131C72.5772 43.9971 72.6306 43.9891 72.6306 43.9891V44.6371C72.6306 44.6371 72.5692 44.6478 72.4466 44.6691C72.3239 44.6904 72.1772 44.7011 72.0066 44.7011ZM75.2402 44.7011C74.8935 44.7011 74.5922 44.6398 74.3362 44.5171C74.0855 44.3891 73.8775 44.2184 73.7122 44.0051C73.5522 43.7918 73.4322 43.5571 73.3522 43.3011C73.2722 43.0398 73.2322 42.7731 73.2322 42.5011C73.2322 42.2344 73.2695 41.9704 73.3442 41.7091C73.4242 41.4478 73.5442 41.2104 73.7042 40.9971C73.8695 40.7838 74.0749 40.6158 74.3202 40.4931C74.5709 40.3651 74.8669 40.3011 75.2082 40.3011C75.5709 40.3011 75.8909 40.3838 76.1682 40.5491C76.4455 40.7144 76.6642 40.9598 76.8242 41.2851C76.9842 41.6104 77.0642 42.0184 77.0642 42.5091V42.7331H74.0002C74.0162 42.9731 74.0722 43.1944 74.1682 43.3971C74.2695 43.5944 74.4109 43.7544 74.5922 43.8771C74.7735 43.9944 74.9895 44.0531 75.2402 44.0531C75.4589 44.0531 75.6349 44.0184 75.7682 43.9491C75.9069 43.8744 76.0162 43.7891 76.0962 43.6931C76.1762 43.5971 76.2295 43.5144 76.2562 43.4451C76.2882 43.3704 76.3042 43.3331 76.3042 43.3331H77.0162C77.0162 43.3331 77.0029 43.3811 76.9762 43.4771C76.9495 43.5678 76.9015 43.6798 76.8322 43.8131C76.7629 43.9464 76.6615 44.0824 76.5282 44.2211C76.3949 44.3544 76.2242 44.4691 76.0162 44.5651C75.8082 44.6558 75.5495 44.7011 75.2402 44.7011ZM74.0082 42.1411H76.3202C76.3095 41.8638 76.2509 41.6398 76.1442 41.4691C76.0375 41.2931 75.9015 41.1624 75.7362 41.0771C75.5709 40.9918 75.3949 40.9491 75.2082 40.9491C74.8722 40.9491 74.5975 41.0584 74.3842 41.2771C74.1709 41.4904 74.0455 41.7784 74.0082 42.1411ZM77.9413 44.6211V40.3811H78.7013V40.9971H78.7493C78.7866 40.9331 78.8479 40.8451 78.9333 40.7331C79.0239 40.6211 79.1519 40.5224 79.3173 40.4371C79.4826 40.3464 79.6906 40.3011 79.9413 40.3011C80.2506 40.3011 80.5146 40.3731 80.7333 40.5171C80.9519 40.6558 81.1173 40.8451 81.2293 41.0851C81.3466 41.3251 81.4053 41.5944 81.4053 41.8931V44.6211H80.6453V41.9411C80.6453 41.6584 80.5653 41.4238 80.4053 41.2371C80.2506 41.0504 80.0239 40.9571 79.7253 40.9571C79.4853 40.9571 79.2906 41.0184 79.1413 41.1411C78.9919 41.2584 78.8799 41.4158 78.8053 41.6131C78.7359 41.8051 78.7013 42.0104 78.7013 42.2291V44.6211H77.9413ZM84.2072 40.3011C84.4739 40.3011 84.6979 40.3438 84.8792 40.4291C85.0605 40.5144 85.2072 40.6158 85.3192 40.7331C85.4312 40.8451 85.5165 40.9518 85.5752 41.0531H85.6232V40.3811H86.3832V44.6211H85.6232V43.9491H85.5752C85.5165 44.0504 85.4312 44.1598 85.3192 44.2771C85.2072 44.3944 85.0605 44.4958 84.8792 44.5811C84.6979 44.6611 84.4739 44.7011 84.2072 44.7011C83.8872 44.7011 83.6072 44.6398 83.3672 44.5171C83.1272 44.3891 82.9272 44.2211 82.7672 44.0131C82.6072 43.7998 82.4872 43.5624 82.4072 43.3011C82.3272 43.0398 82.2872 42.7731 82.2872 42.5011C82.2872 42.2291 82.3272 41.9624 82.4072 41.7011C82.4872 41.4398 82.6072 41.2051 82.7672 40.9971C82.9272 40.7838 83.1272 40.6158 83.3672 40.4931C83.6072 40.3651 83.8872 40.3011 84.2072 40.3011ZM84.3352 40.9491C84.0525 40.9491 83.8152 41.0264 83.6232 41.1811C83.4312 41.3304 83.2872 41.5224 83.1912 41.7571C83.1005 41.9918 83.0552 42.2398 83.0552 42.5011C83.0552 42.7571 83.1005 43.0051 83.1912 43.2451C83.2872 43.4798 83.4312 43.6744 83.6232 43.8291C83.8152 43.9784 84.0525 44.0531 84.3352 44.0531C84.6179 44.0531 84.8525 43.9784 85.0392 43.8291C85.2312 43.6744 85.3725 43.4798 85.4632 43.2451C85.5592 43.0051 85.6072 42.7571 85.6072 42.5011C85.6072 42.2398 85.5592 41.9918 85.4632 41.7571C85.3725 41.5224 85.2312 41.3304 85.0392 41.1811C84.8525 41.0264 84.6179 40.9491 84.3352 40.9491ZM87.34 44.6211V40.3811H88.1V40.9971H88.148C88.1853 40.9331 88.2467 40.8451 88.332 40.7331C88.4227 40.6211 88.5507 40.5224 88.716 40.4371C88.8813 40.3464 89.0893 40.3011 89.34 40.3011C89.6493 40.3011 89.9133 40.3731 90.132 40.5171C90.3507 40.6558 90.516 40.8451 90.628 41.0851C90.7453 41.3251 90.804 41.5944 90.804 41.8931V44.6211H90.044V41.9411C90.044 41.6584 89.964 41.4238 89.804 41.2371C89.6493 41.0504 89.4227 40.9571 89.124 40.9571C88.884 40.9571 88.6893 41.0184 88.54 41.1411C88.3907 41.2584 88.2787 41.4158 88.204 41.6131C88.1347 41.8051 88.1 42.0104 88.1 42.2291V44.6211H87.34ZM93.7739 44.7011C93.4273 44.7011 93.1233 44.6398 92.8619 44.5171C92.6006 44.3891 92.3819 44.2211 92.2059 44.0131C92.0353 43.7998 91.9046 43.5624 91.8139 43.3011C91.7286 43.0398 91.6859 42.7731 91.6859 42.5011C91.6859 42.2291 91.7286 41.9651 91.8139 41.7091C91.8993 41.4478 92.0273 41.2104 92.1979 40.9971C92.3739 40.7838 92.5926 40.6158 92.8539 40.4931C93.1153 40.3651 93.4219 40.3011 93.7739 40.3011C94.1153 40.3011 94.3979 40.3518 94.6219 40.4531C94.8459 40.5544 95.0246 40.6824 95.1579 40.8371C95.2966 40.9864 95.3979 41.1384 95.4619 41.2931C95.5313 41.4424 95.5766 41.5678 95.5979 41.6691C95.6193 41.7704 95.6299 41.8211 95.6299 41.8211H94.8939C94.8939 41.8211 94.8806 41.7784 94.8539 41.6931C94.8273 41.6024 94.7766 41.5011 94.7019 41.3891C94.6273 41.2771 94.5153 41.1784 94.3659 41.0931C94.2166 41.0024 94.0193 40.9571 93.7739 40.9571C93.4806 40.9571 93.2326 41.0318 93.0299 41.1811C92.8326 41.3251 92.6833 41.5144 92.5819 41.7491C92.4859 41.9838 92.4379 42.2344 92.4379 42.5011C92.4379 42.7678 92.4859 43.0184 92.5819 43.2531C92.6833 43.4878 92.8326 43.6798 93.0299 43.8291C93.2326 43.9731 93.4806 44.0451 93.7739 44.0451C94.0193 44.0451 94.2166 44.0024 94.3659 43.9171C94.5153 43.8264 94.6273 43.7251 94.7019 43.6131C94.7766 43.5011 94.8273 43.4024 94.8539 43.3171C94.8806 43.2264 94.8939 43.1811 94.8939 43.1811H95.6299C95.6299 43.1811 95.6193 43.2318 95.5979 43.3331C95.5766 43.4344 95.5313 43.5624 95.4619 43.7171C95.3979 43.8664 95.2966 44.0184 95.1579 44.1731C95.0246 44.3224 94.8459 44.4478 94.6219 44.5491C94.3979 44.6504 94.1153 44.7011 93.7739 44.7011ZM98.4402 44.7011C98.0935 44.7011 97.7922 44.6398 97.5362 44.5171C97.2855 44.3891 97.0775 44.2184 96.9122 44.0051C96.7522 43.7918 96.6322 43.5571 96.5522 43.3011C96.4722 43.0398 96.4322 42.7731 96.4322 42.5011C96.4322 42.2344 96.4695 41.9704 96.5442 41.7091C96.6242 41.4478 96.7442 41.2104 96.9042 40.9971C97.0695 40.7838 97.2749 40.6158 97.5202 40.4931C97.7709 40.3651 98.0669 40.3011 98.4082 40.3011C98.7709 40.3011 99.0909 40.3838 99.3682 40.5491C99.6455 40.7144 99.8642 40.9598 100.024 41.2851C100.184 41.6104 100.264 42.0184 100.264 42.5091V42.7331H97.2002C97.2162 42.9731 97.2722 43.1944 97.3682 43.3971C97.4695 43.5944 97.6109 43.7544 97.7922 43.8771C97.9735 43.9944 98.1895 44.0531 98.4402 44.0531C98.6589 44.0531 98.8349 44.0184 98.9682 43.9491C99.1069 43.8744 99.2162 43.7891 99.2962 43.6931C99.3762 43.5971 99.4295 43.5144 99.4562 43.4451C99.4882 43.3704 99.5042 43.3331 99.5042 43.3331H100.216C100.216 43.3331 100.203 43.3811 100.176 43.4771C100.15 43.5678 100.102 43.6798 100.032 43.8131C99.9629 43.9464 99.8615 44.0824 99.7282 44.2211C99.5949 44.3544 99.4242 44.4691 99.2162 44.5651C99.0082 44.6558 98.7495 44.7011 98.4402 44.7011ZM97.2082 42.1411H99.5202C99.5095 41.8638 99.4509 41.6398 99.3442 41.4691C99.2375 41.2931 99.1015 41.1624 98.9362 41.0771C98.7709 40.9918 98.5949 40.9491 98.4082 40.9491C98.0722 40.9491 97.7975 41.0584 97.5842 41.2771C97.3709 41.4904 97.2455 41.7784 97.2082 42.1411ZM104.377 44.7011C104.052 44.7011 103.782 44.6558 103.569 44.5651C103.361 44.4744 103.196 44.3624 103.073 44.2291C102.95 44.0904 102.86 43.9544 102.801 43.8211C102.742 43.6824 102.705 43.5678 102.689 43.4771C102.673 43.3864 102.665 43.3411 102.665 43.3411H103.433C103.433 43.3411 103.441 43.3784 103.457 43.4531C103.478 43.5224 103.518 43.6051 103.577 43.7011C103.641 43.7918 103.737 43.8744 103.865 43.9491C103.998 44.0184 104.174 44.0531 104.393 44.0531C104.644 44.0531 104.838 43.9944 104.977 43.8771C105.116 43.7544 105.185 43.6051 105.185 43.4291C105.185 43.2744 105.129 43.1518 105.017 43.0611C104.91 42.9704 104.756 42.9011 104.553 42.8531L103.977 42.7171C103.764 42.6638 103.564 42.5918 103.377 42.5011C103.19 42.4104 103.038 42.2878 102.921 42.1331C102.809 41.9731 102.753 41.7758 102.753 41.5411C102.753 41.1784 102.889 40.8824 103.161 40.6531C103.433 40.4184 103.788 40.3011 104.225 40.3011C104.518 40.3011 104.761 40.3438 104.953 40.4291C105.145 40.5091 105.297 40.6104 105.409 40.7331C105.526 40.8558 105.612 40.9784 105.665 41.1011C105.724 41.2238 105.761 41.3278 105.777 41.4131C105.793 41.4931 105.801 41.5331 105.801 41.5331H105.065C105.065 41.5331 105.057 41.5038 105.041 41.4451C105.025 41.3811 104.988 41.3118 104.929 41.2371C104.876 41.1571 104.793 41.0878 104.681 41.0291C104.569 40.9651 104.42 40.9331 104.233 40.9331C103.977 40.9331 103.79 40.9918 103.673 41.1091C103.556 41.2264 103.497 41.3544 103.497 41.4931C103.497 41.6264 103.55 41.7358 103.657 41.8211C103.769 41.9011 103.913 41.9624 104.089 42.0051L104.673 42.1411C105.036 42.2264 105.334 42.3678 105.569 42.5651C105.809 42.7571 105.929 43.0344 105.929 43.3971C105.929 43.6318 105.868 43.8504 105.745 44.0531C105.622 44.2504 105.446 44.4078 105.217 44.5251C104.988 44.6424 104.708 44.7011 104.377 44.7011ZM108.577 44.7011C108.231 44.7011 107.929 44.6398 107.673 44.5171C107.423 44.3891 107.215 44.2184 107.049 44.0051C106.889 43.7918 106.769 43.5571 106.689 43.3011C106.609 43.0398 106.569 42.7731 106.569 42.5011C106.569 42.2344 106.607 41.9704 106.681 41.7091C106.761 41.4478 106.881 41.2104 107.041 40.9971C107.207 40.7838 107.412 40.6158 107.657 40.4931C107.908 40.3651 108.204 40.3011 108.545 40.3011C108.908 40.3011 109.228 40.3838 109.505 40.5491C109.783 40.7144 110.001 40.9598 110.161 41.2851C110.321 41.6104 110.401 42.0184 110.401 42.5091V42.7331H107.337C107.353 42.9731 107.409 43.1944 107.505 43.3971C107.607 43.5944 107.748 43.7544 107.929 43.8771C108.111 43.9944 108.327 44.0531 108.577 44.0531C108.796 44.0531 108.972 44.0184 109.105 43.9491C109.244 43.8744 109.353 43.7891 109.433 43.6931C109.513 43.5971 109.567 43.5144 109.593 43.4451C109.625 43.3704 109.641 43.3331 109.641 43.3331H110.353C110.353 43.3331 110.34 43.3811 110.313 43.4771C110.287 43.5678 110.239 43.6798 110.169 43.8131C110.1 43.9464 109.999 44.0824 109.865 44.2211C109.732 44.3544 109.561 44.4691 109.353 44.5651C109.145 44.6558 108.887 44.7011 108.577 44.7011ZM107.345 42.1411H109.657C109.647 41.8638 109.588 41.6398 109.481 41.4691C109.375 41.2931 109.239 41.1624 109.073 41.0771C108.908 40.9918 108.732 40.9491 108.545 40.9491C108.209 40.9491 107.935 41.0584 107.721 41.2771C107.508 41.4904 107.383 41.7784 107.345 42.1411ZM111.278 44.6211V40.3811H112.038V40.9091H112.07C112.161 40.7491 112.294 40.6078 112.47 40.4851C112.646 40.3624 112.894 40.3011 113.214 40.3011C113.305 40.3011 113.388 40.3064 113.462 40.3171C113.537 40.3224 113.574 40.3251 113.574 40.3251V41.0531C113.574 41.0531 113.532 41.0504 113.446 41.0451C113.366 41.0344 113.281 41.0291 113.19 41.0291C112.822 41.0291 112.537 41.1358 112.334 41.3491C112.137 41.5571 112.038 41.8984 112.038 42.3731V44.6211H111.278ZM115.587 44.6211L113.971 40.3811H114.763L116.003 43.6931L117.219 40.3811H118.019L116.395 44.6211H115.587ZM119.197 39.5731C119.053 39.5731 118.933 39.5251 118.837 39.4291C118.746 39.3331 118.701 39.2184 118.701 39.0851C118.701 38.9464 118.746 38.8291 118.837 38.7331C118.933 38.6371 119.053 38.5891 119.197 38.5891C119.335 38.5891 119.453 38.6371 119.549 38.7331C119.645 38.8291 119.693 38.9464 119.693 39.0851C119.693 39.2184 119.645 39.3331 119.549 39.4291C119.453 39.5251 119.335 39.5731 119.197 39.5731ZM118.821 44.6211V40.3811H119.581V44.6211H118.821ZM122.658 44.7011C122.311 44.7011 122.007 44.6398 121.746 44.5171C121.485 44.3891 121.266 44.2211 121.09 44.0131C120.919 43.7998 120.789 43.5624 120.698 43.3011C120.613 43.0398 120.57 42.7731 120.57 42.5011C120.57 42.2291 120.613 41.9651 120.698 41.7091C120.783 41.4478 120.911 41.2104 121.082 40.9971C121.258 40.7838 121.477 40.6158 121.738 40.4931C121.999 40.3651 122.306 40.3011 122.658 40.3011C122.999 40.3011 123.282 40.3518 123.506 40.4531C123.73 40.5544 123.909 40.6824 124.042 40.8371C124.181 40.9864 124.282 41.1384 124.346 41.2931C124.415 41.4424 124.461 41.5678 124.482 41.6691C124.503 41.7704 124.514 41.8211 124.514 41.8211H123.778C123.778 41.8211 123.765 41.7784 123.738 41.6931C123.711 41.6024 123.661 41.5011 123.586 41.3891C123.511 41.2771 123.399 41.1784 123.25 41.0931C123.101 41.0024 122.903 40.9571 122.658 40.9571C122.365 40.9571 122.117 41.0318 121.914 41.1811C121.717 41.3251 121.567 41.5144 121.466 41.7491C121.37 41.9838 121.322 42.2344 121.322 42.5011C121.322 42.7678 121.37 43.0184 121.466 43.2531C121.567 43.4878 121.717 43.6798 121.914 43.8291C122.117 43.9731 122.365 44.0451 122.658 44.0451C122.903 44.0451 123.101 44.0024 123.25 43.9171C123.399 43.8264 123.511 43.7251 123.586 43.6131C123.661 43.5011 123.711 43.4024 123.738 43.3171C123.765 43.2264 123.778 43.1811 123.778 43.1811H124.514C124.514 43.1811 124.503 43.2318 124.482 43.3331C124.461 43.4344 124.415 43.5624 124.346 43.7171C124.282 43.8664 124.181 44.0184 124.042 44.1731C123.909 44.3224 123.73 44.4478 123.506 44.5491C123.282 44.6504 122.999 44.7011 122.658 44.7011ZM127.324 44.7011C126.978 44.7011 126.676 44.6398 126.42 44.5171C126.17 44.3891 125.962 44.2184 125.796 44.0051C125.636 43.7918 125.516 43.5571 125.436 43.3011C125.356 43.0398 125.316 42.7731 125.316 42.5011C125.316 42.2344 125.354 41.9704 125.428 41.7091C125.508 41.4478 125.628 41.2104 125.788 40.9971C125.954 40.7838 126.159 40.6158 126.404 40.4931C126.655 40.3651 126.951 40.3011 127.292 40.3011C127.655 40.3011 127.975 40.3838 128.252 40.5491C128.53 40.7144 128.748 40.9598 128.908 41.2851C129.068 41.6104 129.148 42.0184 129.148 42.5091V42.7331H126.084C126.1 42.9731 126.156 43.1944 126.252 43.3971C126.354 43.5944 126.495 43.7544 126.676 43.8771C126.858 43.9944 127.074 44.0531 127.324 44.0531C127.543 44.0531 127.719 44.0184 127.852 43.9491C127.991 43.8744 128.1 43.7891 128.18 43.6931C128.26 43.5971 128.314 43.5144 128.34 43.4451C128.372 43.3704 128.388 43.3331 128.388 43.3331H129.1C129.1 43.3331 129.087 43.3811 129.06 43.4771C129.034 43.5678 128.986 43.6798 128.916 43.8131C128.847 43.9464 128.746 44.0824 128.612 44.2211C128.479 44.3544 128.308 44.4691 128.1 44.5651C127.892 44.6558 127.634 44.7011 127.324 44.7011ZM126.092 42.1411H128.404C128.394 41.8638 128.335 41.6398 128.228 41.4691C128.122 41.2931 127.986 41.1624 127.82 41.0771C127.655 40.9918 127.479 40.9491 127.292 40.9491C126.956 40.9491 126.682 41.0584 126.468 41.2771C126.255 41.4904 126.13 41.7784 126.092 42.1411ZM131.577 44.7011C131.252 44.7011 130.983 44.6558 130.769 44.5651C130.561 44.4744 130.396 44.3624 130.273 44.2291C130.151 44.0904 130.06 43.9544 130.001 43.8211C129.943 43.6824 129.905 43.5678 129.889 43.4771C129.873 43.3864 129.865 43.3411 129.865 43.3411H130.633C130.633 43.3411 130.641 43.3784 130.657 43.4531C130.679 43.5224 130.719 43.6051 130.777 43.7011C130.841 43.7918 130.937 43.8744 131.065 43.9491C131.199 44.0184 131.375 44.0531 131.593 44.0531C131.844 44.0531 132.039 43.9944 132.177 43.8771C132.316 43.7544 132.385 43.6051 132.385 43.4291C132.385 43.2744 132.329 43.1518 132.217 43.0611C132.111 42.9704 131.956 42.9011 131.753 42.8531L131.177 42.7171C130.964 42.6638 130.764 42.5918 130.577 42.5011C130.391 42.4104 130.239 42.2878 130.121 42.1331C130.009 41.9731 129.953 41.7758 129.953 41.5411C129.953 41.1784 130.089 40.8824 130.361 40.6531C130.633 40.4184 130.988 40.3011 131.425 40.3011C131.719 40.3011 131.961 40.3438 132.153 40.4291C132.345 40.5091 132.497 40.6104 132.609 40.7331C132.727 40.8558 132.812 40.9784 132.865 41.1011C132.924 41.2238 132.961 41.3278 132.977 41.4131C132.993 41.4931 133.001 41.5331 133.001 41.5331H132.265C132.265 41.5331 132.257 41.5038 132.241 41.4451C132.225 41.3811 132.188 41.3118 132.129 41.2371C132.076 41.1571 131.993 41.0878 131.881 41.0291C131.769 40.9651 131.62 40.9331 131.433 40.9331C131.177 40.9331 130.991 40.9918 130.873 41.1091C130.756 41.2264 130.697 41.3544 130.697 41.4931C130.697 41.6264 130.751 41.7358 130.857 41.8211C130.969 41.9011 131.113 41.9624 131.289 42.0051L131.873 42.1411C132.236 42.2264 132.535 42.3678 132.769 42.5651C133.009 42.7571 133.129 43.0344 133.129 43.3971C133.129 43.6318 133.068 43.8504 132.945 44.0531C132.823 44.2504 132.647 44.4078 132.417 44.5251C132.188 44.6424 131.908 44.7011 131.577 44.7011Z" fill="white"/>
</svg>
