<svg width="59" height="51" viewBox="0 0 59 51" fill="none" xmlns="http://www.w3.org/2000/svg">
<rect width="58.5" height="50.25" rx="3" fill="#32D1E6"/>
<path d="M31.1162 40.2418C33.9212 38.3437 35.844 36.3101 36.8846 34.1409C37.9251 32.0168 38.4454 29.9832 38.4454 28.0399C38.4454 25.9611 37.8799 24.1082 36.7488 22.4813C35.5725 20.8995 34.2832 19.5212 32.8807 18.3462C32.2473 17.6683 31.9306 16.9226 31.9306 16.1091C31.9306 15.1601 32.2473 14.1885 32.8807 13.1942C33.514 12.2 34.351 11.2736 35.3916 10.4149C36.4321 9.55625 37.6537 8.85577 39.0562 8.31346C40.4134 7.77116 41.8385 7.5 43.3315 7.5C44.7793 7.5 46.0008 7.86154 46.9961 8.58462C47.9462 9.30769 48.7153 10.1889 49.3034 11.2284C49.8916 12.2678 50.3214 13.3524 50.5928 14.4822C50.8643 15.6572 51 16.6966 51 17.6005C51 20.2216 50.525 22.7298 49.5749 25.125C48.6248 27.5654 47.3354 29.8476 45.7067 31.9716C44.078 34.0957 42.1778 36.0389 40.0062 37.8014C37.8346 39.6091 35.5499 41.2135 33.1521 42.6144L31.1162 40.2418ZM7.5 40.3774C10.2597 38.4793 12.1825 36.4457 13.2683 34.2764C14.3089 32.1524 14.8292 30.1187 14.8292 28.1755C14.8292 26.0966 14.2636 24.2437 13.1326 22.6168C11.9563 21.0351 10.6669 19.6567 9.26443 18.4817C8.63104 17.8038 8.31435 17.0582 8.31435 16.2447C8.31435 15.2957 8.63104 14.324 9.26443 13.3298C9.89781 12.3356 10.7348 11.4091 11.7753 10.5505C12.8159 9.69183 14.0374 8.99135 15.4399 8.44904C16.7972 7.90673 18.2223 7.63558 19.7153 7.63558C21.163 7.63558 22.3619 7.99712 23.312 8.72019C24.2621 9.44327 25.0538 10.3245 25.6872 11.3639C26.2754 12.4034 26.7051 13.488 26.9766 14.6178C27.2028 15.7928 27.3159 16.8322 27.3159 17.7361C27.3159 20.3572 26.8409 22.8654 25.8908 25.2606C24.9407 27.701 23.6513 29.9832 22.0226 32.1072C20.3939 34.2312 18.5164 36.1745 16.39 37.937C14.2184 39.7447 11.9337 41.349 9.53588 42.75L7.5 40.3774Z" fill="white"/>
</svg>
