<svg width="18" height="18" viewBox="0 0 18 18" fill="none" xmlns="http://www.w3.org/2000/svg">
<g clip-path="url(#clip0_44_1988)">
<mask id="mask0_44_1988" style="mask-type:alpha" maskUnits="userSpaceOnUse" x="-1" y="2" width="11" height="16">
<rect x="-0.999023" y="2" width="10" height="16" fill="#FF9800"/>
</mask>
<g mask="url(#mask0_44_1988)">
<path d="M10.8217 7.49977L9.7192 3.86982C9.50171 3.15733 8.49672 3.15733 8.28672 3.86982L7.17674 7.49977H3.83929C3.1118 7.49977 2.8118 8.43725 3.40429 8.85725L6.13425 10.8072L5.06177 14.2647C4.84427 14.9622 5.65426 15.5247 6.23175 15.0822L8.99921 12.9822L11.7667 15.0897C12.3442 15.5322 13.1542 14.9697 12.9367 14.2722L11.8642 10.8147L14.5941 8.86475C15.1866 8.43725 14.8866 7.50727 14.1591 7.50727H10.8217V7.49977Z" fill="#FF9800"/>
</g>
<path d="M8.76636 4.01123C8.82467 3.81339 9.08665 3.77462 9.2019 3.93506L9.24097 4.01611L10.322 7.57373V8.00732H14.1589C14.3969 8.00732 14.5025 8.31128 14.3035 8.45752L11.574 10.4077L11.28 10.6177L11.3865 10.9624L12.4587 14.4204L12.4597 14.4214C12.5309 14.6509 12.2628 14.8395 12.071 14.6929L12.0701 14.6919L9.30249 12.5845L8.99976 12.354L8.69702 12.5835L5.92944 14.6841L5.92749 14.6851C5.73562 14.8321 5.46731 14.6433 5.53882 14.4136L5.53979 14.4126L6.61206 10.9556L6.71851 10.6099L6.42456 10.3999L3.69507 8.45068L3.69312 8.44971L3.63452 8.39111C3.52714 8.23994 3.62632 7.99951 3.8396 7.99951H7.54663L7.65503 7.646L8.7644 4.01611H8.76538L8.76636 4.01123Z" stroke="#FF9800"/>
</g>
<defs>
<clipPath id="clip0_44_1988">
<rect width="17.9997" height="17.9997" fill="white"/>
</clipPath>
</defs>
</svg>
