<svg width="18" height="18" viewBox="0 0 18 18" fill="none" xmlns="http://www.w3.org/2000/svg">
<path d="M8.76636 3.67627C8.82467 3.47843 9.08665 3.43966 9.2019 3.6001L9.24097 3.68115L10.322 7.23877V7.67236H14.1589C14.3969 7.67236 14.5025 7.97631 14.3035 8.12256L11.574 10.0728L11.28 10.2827L11.3865 10.6274L12.4587 14.0854L12.4597 14.0864C12.5309 14.3159 12.2628 14.5046 12.071 14.3579L12.0701 14.3569L9.30249 12.2495L8.99976 12.019L8.69702 12.2485L5.92944 14.3491L5.92749 14.3501C5.73562 14.4971 5.46731 14.3083 5.53882 14.0786L5.53979 14.0776L6.61206 10.6206L6.71851 10.2749L6.42456 10.0649L3.69507 8.11572L3.69312 8.11475L3.63452 8.05615C3.52714 7.90498 3.62632 7.66455 3.8396 7.66455H7.54663L7.65503 7.31104L8.7644 3.68115H8.76538L8.76636 3.67627Z" stroke="#FF9800"/>
</svg>
